{
copyright = "Copyright (c) 2015, Cadson Demak (info@cadsondemak.com)";
customParameters = (
{
name = vendorID;
value = CDK;
},
{
name = description;
value = "Copyright (c) 2015, Cadson Demak (info@cadsondemak.com)";
},
{
name = license;

glyphs = (
{
glyphname = A;
lastChange = "2015-10-02 09:32:29 +0000";
layers = (
{
layerId = "F0EF4016-32DD-4ABE-928D-BF0CB1E4FAE8";
name = Light;
paths = (
{
closed = 1;
nodes = (
"212 0 LINE",
"212 22 LINE",
"195 22 LINE SMOOTH",
"170 22 OFFCURVE",
"133 37 OFFCURVE",
"144 66 CURVE SMOOTH",
"345 608 LINE",
"546 47 LINE SMOOTH",
"552 31 OFFCURVE",
"517 22 OFFCURVE",
"493 22 CURVE SMOOTH",
"478 22 LINE",
"478 0 LINE",
"709 0 LINE",
"709 22 LINE",
"692 22 LINE SMOOTH",
"668 22 OFFCURVE",
"637 35 OFFCURVE",
"628 57 CURVE SMOOTH",
"381 712 LINE",
"325 686 LINE",
"88 57 LINE SMOOTH",
"80 37 OFFCURVE",
"45 22 OFFCURVE",
"20 22 CURVE SMOOTH",
"5 22 LINE",
"5 0 LINE"
);
},
{
closed = 1;
nodes = (
"508 217 LINE",
"508 252 LINE",
"186 252 LINE",
"186 217 LINE"
);
}
);
width = 714;
}
);
leftKerningGroup = A;
note = A;
rightKerningGroup = A;
unicode = 0041;
},
{
glyphname = Aacute;
lastChange = "2015-10-02 09:32:29 +0000";
layers = (
{
layerId = "F0EF4016-32DD-4ABE-928D-BF0CB1E4FAE8";
name = Light;
paths = (
{
closed = 1;
nodes = (
"212 0 LINE",
"212 22 LINE",
"195 22 LINE SMOOTH",
"170 22 OFFCURVE",
"133 37 OFFCURVE",
"144 66 CURVE SMOOTH",
"345 608 LINE",
"546 47 LINE SMOOTH",
"552 31 OFFCURVE",
"517 22 OFFCURVE",
"493 22 CURVE SMOOTH",
"478 22 LINE",
"478 0 LINE",
"709 0 LINE",
"709 22 LINE",
"692 22 LINE SMOOTH",
"668 22 OFFCURVE",
"637 35 OFFCURVE",
"628 57 CURVE SMOOTH",
"381 712 LINE",
"325 686 LINE",
"88 57 LINE SMOOTH",
"80 37 OFFCURVE",
"45 22 OFFCURVE",
"20 22 CURVE SMOOTH",
"5 22 LINE",
"5 0 LINE"
);
},
{
closed = 1;
nodes = (
"508 217 LINE",
"508 252 LINE",
"186 252 LINE",
"186 217 LINE"
);
},
{
closed = 1;
nodes = (
"419 863 LINE SMOOTH",
"437 873 OFFCURVE",
"447 885 OFFCURVE",
"447 899 CURVE SMOOTH",
"447 912 OFFCURVE",
"439 924 OFFCURVE",
"422 924 CURVE SMOOTH",
"405 924 OFFCURVE",
"390 911 OFFCURVE",
"382 904 CURVE SMOOTH",
"269 804 LINE",
"283 784 LINE"
);
}
);
width = 714;
}
);
leftKerningGroup = A;
note = Aacute;
rightKerningGroup = A;
unicode = 00C1;
},
{
glyphname = Abreve;
lastChange = "2015-10-02 09:32:29 +0000";
layers = (
{
layerId = "F0EF4016-32DD-4ABE-928D-BF0CB1E4FAE8";
name = Light;
paths = (
{
closed = 1;
nodes = (
"212 0 LINE",
"212 22 LINE",
"195 22 LINE SMOOTH",
"170 22 OFFCURVE",
"133 37 OFFCURVE",
"144 66 CURVE SMOOTH",
"345 608 LINE",
"546 47 LINE SMOOTH",
"552 31 OFFCURVE",
"517 22 OFFCURVE",
"493 22 CURVE SMOOTH",
"478 22 LINE",
"478 0 LINE",
"709 0 LINE",
"709 22 LINE",
"692 22 LINE SMOOTH",
"668 22 OFFCURVE",
"637 35 OFFCURVE",
"628 57 CURVE SMOOTH",
"381 712 LINE",
"325 686 LINE",
"88 57 LINE SMOOTH",
"80 37 OFFCURVE",
"45 22 OFFCURVE",
"20 22 CURVE SMOOTH",
"5 22 LINE",
"5 0 LINE"
);
},
{
closed = 1;
nodes = (
"508 217 LINE",
"508 252 LINE",
"186 252 LINE",
"186 217 LINE"
);
},
{
closed = 1;
nodes = (
"447 776 OFFCURVE",
"492 825 OFFCURVE",
"497 901 CURVE",
"466 901 LINE",
"459 835 OFFCURVE",
"413 815 OFFCURVE",
"357 815 CURVE SMOOTH",
"301 815 OFFCURVE",
"254 835 OFFCURVE",
"246 901 CURVE",
"216 901 LINE",
"220 823 OFFCURVE",
"266 776 OFFCURVE",
"357 776 CURVE SMOOTH"
);
}
);
width = 714;
}
);
leftKerningGroup = A;
note = Abreve;
rightKerningGroup = A;
unicode = 0102;
},
{
glyphname = Abreveacute;
lastChange = "2015-10-02 09:32:29 +0000";
layers = (
{
layerId = "F0EF4016-32DD-4ABE-928D-BF0CB1E4FAE8";
name = Light;
paths = (
{
closed = 1;
nodes = (
"212 0 LINE",
"212 22 LINE",
"195 22 LINE SMOOTH",
"170 22 OFFCURVE",
"133 37 OFFCURVE",
"144 66 CURVE SMOOTH",
"345 608 LINE",
"546 47 LINE SMOOTH",
"552 31 OFFCURVE",
"517 22 OFFCURVE",
"493 22 CURVE SMOOTH",
"478 22 LINE",
"478 0 LINE",
"709 0 LINE",
"709 22 LINE",
"692 22 LINE SMOOTH",
"668 22 OFFCURVE",
"637 35 OFFCURVE",
"628 57 CURVE SMOOTH",
"381 712 LINE",
"325 686 LINE",
"88 57 LINE SMOOTH",
"80 37 OFFCURVE",
"45 22 OFFCURVE",
"20 22 CURVE SMOOTH",
"5 22 LINE",
"5 0 LINE"
);
},
{
closed = 1;
nodes = (
"508 217 LINE",
"508 252 LINE",
"186 252 LINE",
"186 217 LINE"
);
},
{
closed = 1;
nodes = (
"447 779 OFFCURVE",
"492 828 OFFCURVE",
"496 904 CURVE",
"466 904 LINE",
"459 839 OFFCURVE",
"412 819 OFFCURVE",
"356 819 CURVE SMOOTH",
"300 819 OFFCURVE",
"253 839 OFFCURVE",
"246 904 CURVE",
"216 904 LINE",
"220 826 OFFCURVE",
"266 779 OFFCURVE",
"356 779 CURVE SMOOTH"
);
},
{
closed = 1;
nodes = (
"455 962 LINE SMOOTH",
"474 972 OFFCURVE",
"485 985 OFFCURVE",
"485 998 CURVE SMOOTH",
"485 1011 OFFCURVE",
"475 1024 OFFCURVE",
"457 1024 CURVE SMOOTH",
"441 1024 OFFCURVE",
"426 1011 OFFCURVE",
"417 1002 CURVE",
"319 911 LINE",
"333 893 LINE"
);
}
);
width = 714;
}
);
leftKerningGroup = A;
note = Abreveacute;
rightKerningGroup = A;
unicode = 1EAE;
},
{
glyphname = Abrevedotbelow;
lastChange = "2015-10-02 09:32:28 +0000";
layers = (
{
layerId = "F0EF4016-32DD-4ABE-928D-BF0CB1E4FAE8";
name = Light;
paths = (
{
closed = 1;
nodes = (
"212 0 LINE",
"212 22 LINE",
"195 22 LINE SMOOTH",
"170 22 OFFCURVE",
"133 37 OFFCURVE",
"144 66 CURVE SMOOTH",
"345 608 LINE",
"546 47 LINE SMOOTH",
"552 31 OFFCURVE",
"517 22 OFFCURVE",
"493 22 CURVE SMOOTH",
"478 22 LINE",
"478 0 LINE",
"709 0 LINE",
"709 22 LINE",
"692 22 LINE SMOOTH",
"668 22 OFFCURVE",
"637 35 OFFCURVE",
"628 57 CURVE SMOOTH",
"381 712 LINE",
"325 686 LINE",
"88 57 LINE SMOOTH",
"80 37 OFFCURVE",
"45 22 OFFCURVE",
"20 22 CURVE SMOOTH",
"5 22 LINE",
"5 0 LINE"
);
},
{
closed = 1;
nodes = (
"381 -147 OFFCURVE",
"397 -131 OFFCURVE",
"397 -106 CURVE SMOOTH",
"397 -81 OFFCURVE",
"381 -64 OFFCURVE",
"356 -64 CURVE SMOOTH",
"332 -64 OFFCURVE",
"315 -81 OFFCURVE",
"315 -106 CURVE SMOOTH",
"315 -131 OFFCURVE",
"332 -147 OFFCURVE",
"356 -147 CURVE SMOOTH"
);
},
{
closed = 1;
nodes = (
"508 217 LINE",
"508 252 LINE",
"186 252 LINE",
"186 217 LINE"
);
},
{
closed = 1;
nodes = (
"447 779 OFFCURVE",
"492 828 OFFCURVE",
"497 904 CURVE",
"466 904 LINE",
"459 838 OFFCURVE",
"413 818 OFFCURVE",
"357 818 CURVE SMOOTH",
"301 818 OFFCURVE",
"254 838 OFFCURVE",
"246 904 CURVE",
"216 904 LINE",
"220 826 OFFCURVE",
"266 779 OFFCURVE",
"357 779 CURVE SMOOTH"
);
}
);
width = 714;
}
);
leftKerningGroup = A;
note = Abrevedotbelow;
rightKerningGroup = A;
unicode = 1EB6;
},
{
glyphname = Abrevegrave;
lastChange = "2015-10-02 09:32:28 +0000";
layers = (
{
layerId = "F0EF4016-32DD-4ABE-928D-BF0CB1E4FAE8";
name = Light;
paths = (
{
closed = 1;
nodes = (
"212 0 LINE",
"212 22 LINE",
"195 22 LINE SMOOTH",
"170 22 OFFCURVE",
"133 37 OFFCURVE",
"144 66 CURVE SMOOTH",
"345 608 LINE",
"546 47 LINE SMOOTH",
"552 31 OFFCURVE",
"517 22 OFFCURVE",
"493 22 CURVE SMOOTH",
"478 22 LINE",
"478 0 LINE",
"709 0 LINE",
"709 22 LINE",
"692 22 LINE SMOOTH",
"668 22 OFFCURVE",
"637 35 OFFCURVE",
"628 57 CURVE SMOOTH",
"381 712 LINE",
"325 686 LINE",
"88 57 LINE SMOOTH",
"80 37 OFFCURVE",
"45 22 OFFCURVE",
"20 22 CURVE SMOOTH",
"5 22 LINE",
"5 0 LINE"
);
},
{
closed = 1;
nodes = (
"508 217 LINE",
"508 252 LINE",
"186 252 LINE",
"186 217 LINE"
);
},
{
closed = 1;
nodes = (
"447 779 OFFCURVE",
"492 828 OFFCURVE",
"496 904 CURVE",
"466 904 LINE",
"459 839 OFFCURVE",
"412 819 OFFCURVE",
"356 819 CURVE SMOOTH",
"300 819 OFFCURVE",
"253 839 OFFCURVE",
"246 904 CURVE",
"216 904 LINE",
"220 826 OFFCURVE",
"266 779 OFFCURVE",
"356 779 CURVE SMOOTH"
);
},
{
closed = 1;
nodes = (
"384 911 LINE",
"285 1002 LINE",
"276 1011 OFFCURVE",
"262 1023 OFFCURVE",
"245 1023 CURVE SMOOTH",
"227 1023 OFFCURVE",
"218 1010 OFFCURVE",
"218 998 CURVE SMOOTH",
"218 985 OFFCURVE",
"228 972 OFFCURVE",
"247 961 CURVE SMOOTH",
"370 892 LINE"
);
}
);
width = 714;
}
);
leftKerningGroup = A;
note = Abrevegrave;
rightKerningGroup = A;
unicode = 1EB0;
},
{
glyphname = Abrevehookabove;
lastChange = "2015-10-02 09:32:29 +0000";
layers = (
{
layerId = "F0EF4016-32DD-4ABE-928D-BF0CB1E4FAE8";
name = Light;
paths = (
{
closed = 1;
nodes = (
"212 0 LINE",
"212 22 LINE",
"195 22 LINE SMOOTH",
"170 22 OFFCURVE",
"133 37 OFFCURVE",
"144 66 CURVE SMOOTH",
"345 608 LINE",
"546 47 LINE SMOOTH",
"552 31 OFFCURVE",
"517 22 OFFCURVE",
"493 22 CURVE SMOOTH",
"478 22 LINE",
"478 0 LINE",
"709 0 LINE",
"709 22 LINE",
"692 22 LINE SMOOTH",
"668 22 OFFCURVE",
"637 35 OFFCURVE",
"628 57 CURVE SMOOTH",
"381 712 LINE",
"325 686 LINE",
"88 57 LINE SMOOTH",
"80 37 OFFCURVE",
"45 22 OFFCURVE",
"20 22 CURVE SMOOTH",
"5 22 LINE",
"5 0 LINE"
);
},
{
closed = 1;
nodes = (
"508 217 LINE",
"508 252 LINE",
"186 252 LINE",
"186 217 LINE"
);
},
{
closed = 1;
nodes = (
"447 779 OFFCURVE",
"492 828 OFFCURVE",
"496 904 CURVE",
"466 904 LINE",
"459 839 OFFCURVE",
"412 819 OFFCURVE",
"356 819 CURVE SMOOTH",
"300 819 OFFCURVE",
"253 839 OFFCURVE",
"246 904 CURVE",
"216 904 LINE",
"220 826 OFFCURVE",
"266 779 OFFCURVE",
"356 779 CURVE SMOOTH"
);
},
{
closed = 1;
nodes = (
"387 895 LINE",
"369 901 OFFCURVE",
"359 905 OFFCURVE",
"359 922 CURVE SMOOTH",
"359 949 OFFCURVE",
"436 959 OFFCURVE",
"436 1002 CURVE SMOOTH",
"436 1037 OFFCURVE",
"396 1053 OFFCURVE",
"356 1053 CURVE SMOOTH",
"327 1053 OFFCURVE",
"283 1043 OFFCURVE",
"283 1014 CURVE SMOOTH",
"283 1002 OFFCURVE",
"293 994 OFFCURVE",
"303 994 CURVE SMOOTH",
"332 994 OFFCURVE",
"318 1031 OFFCURVE",
"360 1031 CURVE SMOOTH",
"378 1031 OFFCURVE",
"390 1019 OFFCURVE",
"390 1005 CURVE SMOOTH",
"390 967 OFFCURVE",
"319 959 OFFCURVE",
"319 921 CURVE SMOOTH",
"319 898 OFFCURVE",
"335 878 OFFCURVE",
"379 878 CURVE"
);
}
);
width = 714;
}
);
leftKerningGroup = A;
note = Abrevehookabove;
rightKerningGroup = A;
unicode = 1EB2;
},
{
glyphname = Abrevetilde;
lastChange = "2015-10-02 09:32:28 +0000";
layers = (
{
layerId = "F0EF4016-32DD-4ABE-928D-BF0CB1E4FAE8";
name = Light;
paths = (
{
closed = 1;
nodes = (
"212 0 LINE",
"212 22 LINE",
"195 22 LINE SMOOTH",
"170 22 OFFCURVE",
"133 37 OFFCURVE",
"144 66 CURVE SMOOTH",
"345 608 LINE",
"546 47 LINE SMOOTH",
"552 31 OFFCURVE",
"517 22 OFFCURVE",
"493 22 CURVE SMOOTH",
"478 22 LINE",
"478 0 LINE",
"709 0 LINE",
"709 22 LINE",
"692 22 LINE SMOOTH",
"668 22 OFFCURVE",
"637 35 OFFCURVE",
"628 57 CURVE SMOOTH",
"381 712 LINE",
"325 686 LINE",
"88 57 LINE SMOOTH",
"80 37 OFFCURVE",
"45 22 OFFCURVE",
"20 22 CURVE SMOOTH",
"5 22 LINE",
"5 0 LINE"
);
},
{
closed = 1;
nodes = (
"508 217 LINE",
"508 252 LINE",
"186 252 LINE",
"186 217 LINE"
);
},
{
closed = 1;
nodes = (
"447 779 OFFCURVE",
"492 828 OFFCURVE",
"496 904 CURVE",
"466 904 LINE",
"459 839 OFFCURVE",
"412 819 OFFCURVE",
"356 819 CURVE SMOOTH",
"300 819 OFFCURVE",
"253 839 OFFCURVE",
"246 904 CURVE",
"216 904 LINE",
"220 826 OFFCURVE",
"266 779 OFFCURVE",
"356 779 CURVE SMOOTH"
);
},
{
closed = 1;
nodes = (
"232 993 OFFCURVE",
"250 1015 OFFCURVE",
"281 1015 CURVE SMOOTH",
"327 1015 OFFCURVE",
"373 959 OFFCURVE",
"420 959 CURVE SMOOTH",
"469 959 OFFCURVE",
"497 1000 OFFCURVE",
"508 1053 CURVE",
"489 1063 LINE",
"477 1023 OFFCURVE",
"461 999 OFFCURVE",
"428 999 CURVE SMOOTH",
"384 999 OFFCURVE",
"336 1054 OFFCURVE",
"289 1054 CURVE SMOOTH",
"243 1054 OFFCURVE",
"211 1017 OFFCURVE",
"202 965 CURVE",
"220 954 LINE"
);
}
);
width = 714;
}
);
leftKerningGroup = A;
note = Abrevetilde;
rightKerningGroup = A;
unicode = 1EB4;
},
{
glyphname = Acaron;
lastChange = "2015-10-02 09:32:29 +0000";
layers = (
{
layerId = "F0EF4016-32DD-4ABE-928D-BF0CB1E4FAE8";
name = Light;
paths = (
{
closed = 1;
nodes = (
"212 0 LINE",
"212 22 LINE",
"195 22 LINE SMOOTH",
"170 22 OFFCURVE",
"133 37 OFFCURVE",
"144 66 CURVE SMOOTH",
"345 608 LINE",
"546 47 LINE SMOOTH",
"552 31 OFFCURVE",
"517 22 OFFCURVE",
"493 22 CURVE SMOOTH",
"478 22 LINE",
"478 0 LINE",
"709 0 LINE",
"709 22 LINE",
"692 22 LINE SMOOTH",
"668 22 OFFCURVE",
"637 35 OFFCURVE",
"628 57 CURVE SMOOTH",
"381 712 LINE",
"325 686 LINE",
"88 57 LINE SMOOTH",
"80 37 OFFCURVE",
"45 22 OFFCURVE",
"20 22 CURVE SMOOTH",
"5 22 LINE",
"5 0 LINE"
);
},
{
closed = 1;
nodes = (
"508 217 LINE",
"508 252 LINE",
"186 252 LINE",
"186 217 LINE"
);
},
{
closed = 1;
nodes = (
"378 784 LINE",
"495 902 LINE",
"477 921 LINE",
"376 839 LINE",
"369 834 OFFCURVE",
"362 830 OFFCURVE",
"357 830 CURVE SMOOTH",
"352 830 OFFCURVE",
"346 832 OFFCURVE",
"337 839 CURVE SMOOTH",
"236 921 LINE",
"219 902 LINE",
"335 784 LINE"
);
}
);
width = 714;
}
);
leftKerningGroup = A;
note = Acaron;
rightKerningGroup = A;
unicode = 01CD;
},
{
glyphname = Acircumflex;
lastChange = "2015-10-02 09:32:28 +0000";
layers = (
{
layerId = "F0EF4016-32DD-4ABE-928D-BF0CB1E4FAE8";
name = Light;
paths = (
{
closed = 1;
nodes = (
"212 0 LINE",
"212 22 LINE",
"195 22 LINE SMOOTH",
"170 22 OFFCURVE",
"133 37 OFFCURVE",
"144 66 CURVE SMOOTH",
"345 608 LINE",
"546 47 LINE SMOOTH",
"552 31 OFFCURVE",
"517 22 OFFCURVE",
"493 22 CURVE SMOOTH",
"478 22 LINE",
"478 0 LINE",
"709 0 LINE",
"709 22 LINE",
"692 22 LINE SMOOTH",
"668 22 OFFCURVE",
"637 35 OFFCURVE",
"628 57 CURVE SMOOTH",
"381 712 LINE",
"325 686 LINE",
"88 57 LINE SMOOTH",
"80 37 OFFCURVE",
"45 22 OFFCURVE",
"20 22 CURVE SMOOTH",
"5 22 LINE",
"5 0 LINE"
);
},
{
closed = 1;
nodes = (
"508 217 LINE",
"508 252 LINE",
"186 252 LINE",
"186 217 LINE"
);
},
{
closed = 1;
nodes = (
"337 866 LINE",
"344 871 OFFCURVE",
"352 875 OFFCURVE",
"357 875 CURVE SMOOTH",
"362 875 OFFCURVE",
"369 871 OFFCURVE",
"376 866 CURVE",
"477 784 LINE",
"495 803 LINE",
"378 921 LINE",
"335 921 LINE",
"219 803 LINE",
"236 784 LINE"
);
}
);
width = 714;
}
);
leftKerningGroup = A;
note = Acircumflex;
rightKerningGroup = A;
unicode = 00C2;
},
{
glyphname = Acircumflexacute;
lastChange = "2015-10-02 09:32:28 +0000";
layers = (
{
layerId = "F0EF4016-32DD-4ABE-928D-BF0CB1E4FAE8";
name = Light;
paths = (
{
closed = 1;
nodes = (
"212 0 LINE",
"212 22 LINE",
"195 22 LINE SMOOTH",
"170 22 OFFCURVE",
"133 37 OFFCURVE",
"144 66 CURVE SMOOTH",
"345 608 LINE",
"546 47 LINE SMOOTH",
"552 31 OFFCURVE",
"517 22 OFFCURVE",
"493 22 CURVE SMOOTH",
"478 22 LINE",
"478 0 LINE",
"709 0 LINE",
"709 22 LINE",
"692 22 LINE SMOOTH",
"668 22 OFFCURVE",
"637 35 OFFCURVE",
"628 57 CURVE SMOOTH",
"381 712 LINE",
"325 686 LINE",
"88 57 LINE SMOOTH",
"80 37 OFFCURVE",
"45 22 OFFCURVE",
"20 22 CURVE SMOOTH",
"5 22 LINE",
"5 0 LINE"
);
},
{
closed = 1;
nodes = (
"508 217 LINE",
"508 252 LINE",
"186 252 LINE",
"186 217 LINE"
);
},
{
closed = 1;
nodes = (
"336 862 LINE",
"344 868 OFFCURVE",
"352 874 OFFCURVE",
"358 874 CURVE SMOOTH",
"363 874 OFFCURVE",
"370 870 OFFCURVE",
"377 865 CURVE",
"477 783 LINE",
"494 803 LINE",
"379 921 LINE",
"337 921 LINE",
"222 803 LINE",
"239 783 LINE"
);
},
{
closed = 1;
nodes = (
"588 957 LINE SMOOTH",
"607 967 OFFCURVE",
"618 981 OFFCURVE",
"618 993 CURVE SMOOTH",
"618 1006 OFFCURVE",
"608 1019 OFFCURVE",
"590 1019 CURVE SMOOTH",
"574 1019 OFFCURVE",
"559 1006 OFFCURVE",
"550 997 CURVE",
"451 906 LINE",
"466 888 LINE"
);
}
);
width = 714;
}
);
leftKerningGroup = A;
note = Acircumflexacute;
rightKerningGroup = A;
unicode = 1EA4;
},
{
glyphname = Acircumflexdotbelow;
lastChange = "2015-10-02 09:32:29 +0000";
layers = (
{
layerId = "F0EF4016-32DD-4ABE-928D-BF0CB1E4FAE8";
name = Light;
paths = (
{
closed = 1;
nodes = (
"212 0 LINE",
"212 22 LINE",
"195 22 LINE SMOOTH",
"170 22 OFFCURVE",
"133 37 OFFCURVE",
"144 66 CURVE SMOOTH",
"345 608 LINE",
"546 47 LINE SMOOTH",
"552 31 OFFCURVE",
"517 22 OFFCURVE",
"493 22 CURVE SMOOTH",
"478 22 LINE",
"478 0 LINE",
"709 0 LINE",
"709 22 LINE",
"692 22 LINE SMOOTH",
"668 22 OFFCURVE",
"637 35 OFFCURVE",
"628 57 CURVE SMOOTH",
"381 712 LINE",
"325 686 LINE",
"88 57 LINE SMOOTH",
"80 37 OFFCURVE",
"45 22 OFFCURVE",
"20 22 CURVE SMOOTH",
"5 22 LINE",
"5 0 LINE"
);
},
{
closed = 1;
nodes = (
"382 -147 OFFCURVE",
"398 -131 OFFCURVE",
"398 -106 CURVE SMOOTH",
"398 -81 OFFCURVE",
"382 -64 OFFCURVE",
"357 -64 CURVE SMOOTH",
"333 -64 OFFCURVE",
"316 -81 OFFCURVE",
"316 -106 CURVE SMOOTH",
"316 -131 OFFCURVE",
"333 -147 OFFCURVE",
"357 -147 CURVE SMOOTH"
);
},
{
closed = 1;
nodes = (
"508 217 LINE",
"508 252 LINE",
"186 252 LINE",
"186 217 LINE"
);
},
{
closed = 1;
nodes = (
"338 865 LINE",
"345 870 OFFCURVE",
"353 874 OFFCURVE",
"358 874 CURVE SMOOTH",
"363 874 OFFCURVE",
"370 870 OFFCURVE",
"377 865 CURVE",
"478 783 LINE",
"496 802 LINE",
"379 920 LINE",
"336 920 LINE",
"220 802 LINE",
"237 783 LINE"
);
}
);
width = 714;
}
);
leftKerningGroup = A;
note = Acircumflexdotbelow;
rightKerningGroup = A;
unicode = 1EAC;
},
{
glyphname = Acircumflexgrave;
lastChange = "2015-10-02 09:32:28 +0000";
layers = (
{
layerId = "F0EF4016-32DD-4ABE-928D-BF0CB1E4FAE8";
name = Light;
paths = (
{
closed = 1;
nodes = (
"212 0 LINE",
"212 22 LINE",
"195 22 LINE SMOOTH",
"170 22 OFFCURVE",
"133 37 OFFCURVE",
"144 66 CURVE SMOOTH",
"345 608 LINE",
"546 47 LINE SMOOTH",
"552 31 OFFCURVE",
"517 22 OFFCURVE",
"493 22 CURVE SMOOTH",
"478 22 LINE",
"478 0 LINE",
"709 0 LINE",
"709 22 LINE",
"692 22 LINE SMOOTH",
"668 22 OFFCURVE",
"637 35 OFFCURVE",
"628 57 CURVE SMOOTH",
"381 712 LINE",
"325 686 LINE",
"88 57 LINE SMOOTH",
"80 37 OFFCURVE",
"45 22 OFFCURVE",
"20 22 CURVE SMOOTH",
"5 22 LINE",
"5 0 LINE"
);
},
{
closed = 1;
nodes = (
"508 217 LINE",
"508 252 LINE",
"186 252 LINE",
"186 217 LINE"
);
},
{
closed = 1;
nodes = (
"273 906 LINE",
"174 997 LINE",
"165 1006 OFFCURVE",
"151 1019 OFFCURVE",
"134 1019 CURVE SMOOTH",
"117 1019 OFFCURVE",
"107 1006 OFFCURVE",
"107 993 CURVE SMOOTH",
"107 981 OFFCURVE",
"117 967 OFFCURVE",
"136 957 CURVE SMOOTH",
"259 888 LINE"
);
},
{
closed = 1;
nodes = (
"336 862 LINE",
"344 868 OFFCURVE",
"352 874 OFFCURVE",
"358 874 CURVE SMOOTH",
"363 874 OFFCURVE",
"370 870 OFFCURVE",
"377 865 CURVE",
"477 783 LINE",
"494 803 LINE",
"379 921 LINE",
"337 921 LINE",
"222 803 LINE",
"239 783 LINE"
);
}
);
width = 714;
}
);
leftKerningGroup = A;
note = Acircumflexgrave;
rightKerningGroup = A;
unicode = 1EA6;
},
{
glyphname = Acircumflexhookabove;
lastChange = "2015-10-02 09:32:29 +0000";
layers = (
{
layerId = "F0EF4016-32DD-4ABE-928D-BF0CB1E4FAE8";
name = Light;
paths = (
{
closed = 1;
nodes = (
"212 0 LINE",
"212 22 LINE",
"195 22 LINE SMOOTH",
"170 22 OFFCURVE",
"133 37 OFFCURVE",
"144 66 CURVE SMOOTH",
"345 608 LINE",
"546 47 LINE SMOOTH",
"552 31 OFFCURVE",
"517 22 OFFCURVE",
"493 22 CURVE SMOOTH",
"478 22 LINE",
"478 0 LINE",
"709 0 LINE",
"709 22 LINE",
"692 22 LINE SMOOTH",
"668 22 OFFCURVE",
"637 35 OFFCURVE",
"628 57 CURVE SMOOTH",
"381 712 LINE",
"325 686 LINE",
"88 57 LINE SMOOTH",
"80 37 OFFCURVE",
"45 22 OFFCURVE",
"20 22 CURVE SMOOTH",
"5 22 LINE",
"5 0 LINE"
);
},
{
closed = 1;
nodes = (
"508 217 LINE",
"508 252 LINE",
"186 252 LINE",
"186 217 LINE"
);
},
{
closed = 1;
nodes = (
"328 855 LINE",
"338 864 OFFCURVE",
"349 874 OFFCURVE",
"358 874 CURVE SMOOTH",
"363 874 OFFCURVE",
"370 870 OFFCURVE",
"377 865 CURVE",
"477 783 LINE",
"494 803 LINE",
"379 921 LINE",
"337 921 LINE",
"222 803 LINE",
"239 783 LINE"
);
},
{
closed = 1;
nodes = (
"522 890 LINE",
"504 896 OFFCURVE",
"494 900 OFFCURVE",
"494 917 CURVE SMOOTH",
"494 944 OFFCURVE",
"571 954 OFFCURVE",
"571 997 CURVE SMOOTH",
"571 1032 OFFCURVE",
"531 1048 OFFCURVE",
"491 1048 CURVE SMOOTH",
"462 1048 OFFCURVE",
"418 1038 OFFCURVE",
"418 1009 CURVE SMOOTH",
"418 997 OFFCURVE",
"428 989 OFFCURVE",
"438 989 CURVE SMOOTH",
"467 989 OFFCURVE",
"453 1026 OFFCURVE",
"495 1026 CURVE SMOOTH",
"513 1026 OFFCURVE",
"525 1014 OFFCURVE",
"525 1000 CURVE SMOOTH",
"525 962 OFFCURVE",
"454 954 OFFCURVE",
"454 916 CURVE SMOOTH",
"454 893 OFFCURVE",
"470 873 OFFCURVE",
"514 873 CURVE"
);
}
);
width = 714;
}
);
leftKerningGroup = A;
note = Acircumflexhookabove;
rightKerningGroup = A;
unicode = 1EA8;
},
{
glyphname = Acircumflextilde;
lastChange = "2015-10-02 09:32:28 +0000";
layers = (
{
layerId = "F0EF4016-32DD-4ABE-928D-BF0CB1E4FAE8";
name = Light;
paths = (
{
closed = 1;
nodes = (
"212 0 LINE",
"212 22 LINE",
"195 22 LINE SMOOTH",
"170 22 OFFCURVE",
"133 37 OFFCURVE",
"144 66 CURVE SMOOTH",
"345 608 LINE",
"546 47 LINE SMOOTH",
"552 31 OFFCURVE",
"517 22 OFFCURVE",
"493 22 CURVE SMOOTH",
"478 22 LINE",
"478 0 LINE",
"709 0 LINE",
"709 22 LINE",
"692 22 LINE SMOOTH",
"668 22 OFFCURVE",
"637 35 OFFCURVE",
"628 57 CURVE SMOOTH",
"381 712 LINE",
"325 686 LINE",
"88 57 LINE SMOOTH",
"80 37 OFFCURVE",
"45 22 OFFCURVE",
"20 22 CURVE SMOOTH",
"5 22 LINE",
"5 0 LINE"
);
},
{
closed = 1;
nodes = (
"508 217 LINE",
"508 252 LINE",
"186 252 LINE",
"186 217 LINE"
);
},
{
closed = 1;
nodes = (
"336 862 LINE",
"344 868 OFFCURVE",
"352 874 OFFCURVE",
"358 874 CURVE SMOOTH",
"363 874 OFFCURVE",
"370 870 OFFCURVE",
"377 865 CURVE",
"477 783 LINE",
"494 803 LINE",
"379 921 LINE",
"337 921 LINE",
"222 803 LINE",
"239 783 LINE"
);
},
{
closed = 1;
nodes = (
"238 988 OFFCURVE",
"256 1010 OFFCURVE",
"287 1010 CURVE SMOOTH",
"333 1010 OFFCURVE",
"379 954 OFFCURVE",
"426 954 CURVE SMOOTH",
"475 954 OFFCURVE",
"503 995 OFFCURVE",
"514 1048 CURVE",
"495 1058 LINE",
"483 1018 OFFCURVE",
"467 994 OFFCURVE",
"434 994 CURVE SMOOTH",
"390 994 OFFCURVE",
"342 1049 OFFCURVE",
"295 1049 CURVE SMOOTH",
"249 1049 OFFCURVE",
"217 1012 OFFCURVE",
"208 960 CURVE",
"226 949 LINE"
);
}
);
width = 714;
}
);
leftKerningGroup = A;
note = Acircumflextilde;
rightKerningGroup = A;
unicode = 1EAA;
},
{
glyphname = Adieresis;
lastChange = "2015-10-02 09:32:29 +0000";
layers = (
{
layerId = "F0EF4016-32DD-4ABE-928D-BF0CB1E4FAE8";
name = Light;
paths = (
{
closed = 1;
nodes = (
"212 0 LINE",
"212 22 LINE",
"195 22 LINE SMOOTH",
"170 22 OFFCURVE",
"133 37 OFFCURVE",
"144 66 CURVE SMOOTH",
"345 608 LINE",
"546 47 LINE SMOOTH",
"552 31 OFFCURVE",
"517 22 OFFCURVE",
"493 22 CURVE SMOOTH",
"478 22 LINE",
"478 0 LINE",
"709 0 LINE",
"709 22 LINE",
"692 22 LINE SMOOTH",
"668 22 OFFCURVE",
"637 35 OFFCURVE",
"628 57 CURVE SMOOTH",
"381 712 LINE",
"325 686 LINE",
"88 57 LINE SMOOTH",
"80 37 OFFCURVE",
"45 22 OFFCURVE",
"20 22 CURVE SMOOTH",
"5 22 LINE",
"5 0 LINE"
);
},
{
closed = 1;
nodes = (
"508 217 LINE",
"508 252 LINE",
"186 252 LINE",
"186 217 LINE"
);
},
{
closed = 1;
nodes = (
"272 782 OFFCURVE",
"288 799 OFFCURVE",
"288 823 CURVE SMOOTH",
"288 848 OFFCURVE",
"272 865 OFFCURVE",
"247 865 CURVE SMOOTH",
"222 865 OFFCURVE",
"206 848 OFFCURVE",
"206 823 CURVE SMOOTH",
"206 799 OFFCURVE",
"222 782 OFFCURVE",
"247 782 CURVE SMOOTH"
);
},
{
closed = 1;
nodes = (
"481 782 OFFCURVE",
"497 799 OFFCURVE",
"497 823 CURVE SMOOTH",
"497 848 OFFCURVE",
"481 865 OFFCURVE",
"456 865 CURVE SMOOTH",
"431 865 OFFCURVE",
"415 848 OFFCURVE",
"415 823 CURVE SMOOTH",
"415 799 OFFCURVE",
"431 782 OFFCURVE",
"456 782 CURVE SMOOTH"
);
}
);
width = 714;
}
);
leftKerningGroup = A;
note = Adieresis;
rightKerningGroup = A;
unicode = 00C4;
},
{
glyphname = Adotbelow;
lastChange = "2015-10-02 09:32:28 +0000";
layers = (
{
layerId = "F0EF4016-32DD-4ABE-928D-BF0CB1E4FAE8";
name = Light;
paths = (
{
closed = 1;
nodes = (
"212 0 LINE",
"212 22 LINE",
"195 22 LINE SMOOTH",
"170 22 OFFCURVE",
"133 37 OFFCURVE",
"144 66 CURVE SMOOTH",
"345 608 LINE",
"546 47 LINE SMOOTH",
"552 31 OFFCURVE",
"517 22 OFFCURVE",
"493 22 CURVE SMOOTH",
"478 22 LINE",
"478 0 LINE",
"709 0 LINE",
"709 22 LINE",
"692 22 LINE SMOOTH",
"668 22 OFFCURVE",
"637 35 OFFCURVE",
"628 57 CURVE SMOOTH",
"381 712 LINE",
"325 686 LINE",
"88 57 LINE SMOOTH",
"80 37 OFFCURVE",
"45 22 OFFCURVE",
"20 22 CURVE SMOOTH",
"5 22 LINE",
"5 0 LINE"
);
},
{
closed = 1;
nodes = (
"382 -147 OFFCURVE",
"398 -131 OFFCURVE",
"398 -106 CURVE SMOOTH",
"398 -81 OFFCURVE",
"382 -64 OFFCURVE",
"357 -64 CURVE SMOOTH",
"333 -64 OFFCURVE",
"316 -81 OFFCURVE",
"316 -106 CURVE SMOOTH",
"316 -131 OFFCURVE",
"333 -147 OFFCURVE",
"357 -147 CURVE SMOOTH"
);
},
{
closed = 1;
nodes = (
"508 217 LINE",
"508 252 LINE",
"186 252 LINE",
"186 217 LINE"
);
}
);
width = 714;
}
);
leftKerningGroup = A;
note = Adotbelow;
rightKerningGroup = A;
unicode = 1EA0;
},
{
glyphname = Agrave;
lastChange = "2015-10-02 09:32:28 +0000";
layers = (
{
layerId = "F0EF4016-32DD-4ABE-928D-BF0CB1E4FAE8";
name = Light;
paths = (
{
closed = 1;
nodes = (
"212 0 LINE",
"212 22 LINE",
"195 22 LINE SMOOTH",
"170 22 OFFCURVE",
"133 37 OFFCURVE",
"144 66 CURVE SMOOTH",
"345 608 LINE",
"546 47 LINE SMOOTH",
"552 31 OFFCURVE",
"517 22 OFFCURVE",
"493 22 CURVE SMOOTH",
"478 22 LINE",
"478 0 LINE",
"709 0 LINE",
"709 22 LINE",
"692 22 LINE SMOOTH",
"668 22 OFFCURVE",
"637 35 OFFCURVE",
"628 57 CURVE SMOOTH",
"381 712 LINE",
"325 686 LINE",
"88 57 LINE SMOOTH",
"80 37 OFFCURVE",
"45 22 OFFCURVE",
"20 22 CURVE SMOOTH",
"5 22 LINE",
"5 0 LINE"
);
},
{
closed = 1;
nodes = (
"508 217 LINE",
"508 252 LINE",
"186 252 LINE",
"186 217 LINE"
);
},
{
closed = 1;
nodes = (
"446 804 LINE",
"334 904 LINE SMOOTH",
"325 912 OFFCURVE",
"311 924 OFFCURVE",
"295 924 CURVE SMOOTH",
"282 924 OFFCURVE",
"269 914 OFFCURVE",
"269 899 CURVE SMOOTH",
"269 884 OFFCURVE",
"282 870 OFFCURVE",
"295 863 CURVE SMOOTH",
"432 784 LINE"
);
}
);
width = 714;
}
);
leftKerningGroup = A;
note = Agrave;
rightKerningGroup = A;
unicode = 00C0;
},
{
glyphname = Ahookabove;
lastChange = "2015-10-02 09:32:28 +0000";
layers = (
{
layerId = "F0EF4016-32DD-4ABE-928D-BF0CB1E4FAE8";
name = Light;
paths = (
{
closed = 1;
nodes = (
"212 0 LINE",
"212 22 LINE",
"195 22 LINE SMOOTH",
"170 22 OFFCURVE",
"133 37 OFFCURVE",
"144 66 CURVE SMOOTH",
"345 608 LINE",
"546 47 LINE SMOOTH",
"552 31 OFFCURVE",
"517 22 OFFCURVE",
"493 22 CURVE SMOOTH",
"478 22 LINE",
"478 0 LINE",
"709 0 LINE",
"709 22 LINE",
"692 22 LINE SMOOTH",
"668 22 OFFCURVE",
"637 35 OFFCURVE",
"628 57 CURVE SMOOTH",
"381 712 LINE",
"325 686 LINE",
"88 57 LINE SMOOTH",
"80 37 OFFCURVE",
"45 22 OFFCURVE",
"20 22 CURVE SMOOTH",
"5 22 LINE",
"5 0 LINE"
);
},
{
closed = 1;
nodes = (
"508 217 LINE",
"508 252 LINE",
"186 252 LINE",
"186 217 LINE"
);
},
{
closed = 1;
nodes = (
"405 797 LINE",
"386 803 OFFCURVE",
"375 808 OFFCURVE",
"375 826 CURVE SMOOTH",
"375 858 OFFCURVE",
"460 874 OFFCURVE",
"460 923 CURVE SMOOTH",
"460 963 OFFCURVE",
"425 983 OFFCURVE",
"377 983 CURVE SMOOTH",
"332 983 OFFCURVE",
"295 966 OFFCURVE",
"295 935 CURVE SMOOTH",
"295 919 OFFCURVE",
"302 912 OFFCURVE",
"315 912 CURVE SMOOTH",
"334 912 OFFCURVE",
"336 926 OFFCURVE",
"340 937 CURVE SMOOTH",
"345 952 OFFCURVE",
"362 957 OFFCURVE",
"378 957 CURVE SMOOTH",
"402 957 OFFCURVE",
"413 943 OFFCURVE",
"413 926 CURVE SMOOTH",
"413 882 OFFCURVE",
"334 871 OFFCURVE",
"334 826 CURVE SMOOTH",
"334 800 OFFCURVE",
"352 779 OFFCURVE",
"396 779 CURVE"
);
}
);
width = 714;
}
);
leftKerningGroup = A;
note = Ahookabove;
rightKerningGroup = A;
unicode = 1EA2;
},
{
glyphname = Amacron;
lastChange = "2015-10-02 09:32:28 +0000";
layers = (
{
layerId = "F0EF4016-32DD-4ABE-928D-BF0CB1E4FAE8";
name = Light;
paths = (
{
closed = 1;
nodes = (
"212 0 LINE",
"212 22 LINE",
"195 22 LINE SMOOTH",
"170 22 OFFCURVE",
"133 37 OFFCURVE",
"144 66 CURVE SMOOTH",
"345 608 LINE",
"546 47 LINE SMOOTH",
"552 31 OFFCURVE",
"517 22 OFFCURVE",
"493 22 CURVE SMOOTH",
"478 22 LINE",
"478 0 LINE",
"709 0 LINE",
"709 22 LINE",
"692 22 LINE SMOOTH",
"668 22 OFFCURVE",
"637 35 OFFCURVE",
"628 57 CURVE SMOOTH",
"381 712 LINE",
"325 686 LINE",
"88 57 LINE SMOOTH",
"80 37 OFFCURVE",
"45 22 OFFCURVE",
"20 22 CURVE SMOOTH",
"5 22 LINE",
"5 0 LINE"
);
},
{
closed = 1;
nodes = (
"508 217 LINE",
"508 252 LINE",
"186 252 LINE",
"186 217 LINE"
);
},
{
closed = 1;
nodes = (
"514 784 LINE",
"514 819 LINE",
"201 819 LINE",
"201 784 LINE"
);
}
);
width = 714;
}
);
leftKerningGroup = A;
note = Amacron;
rightKerningGroup = A;
unicode = 0100;
},
{
glyphname = Aogonek;
lastChange = "2015-10-02 09:32:29 +0000";
layers = (
{
layerId = "F0EF4016-32DD-4ABE-928D-BF0CB1E4FAE8";
name = Light;
paths = (
{
closed = 1;
nodes = (
"212 0 LINE",
"212 22 LINE",
"195 22 LINE SMOOTH",
"170 22 OFFCURVE",
"133 37 OFFCURVE",
"144 66 CURVE SMOOTH",
"345 608 LINE",
"546 47 LINE SMOOTH",
"552 31 OFFCURVE",
"517 22 OFFCURVE",
"493 22 CURVE SMOOTH",
"478 22 LINE",
"478 0 LINE",
"709 0 LINE",
"709 22 LINE",
"692 22 LINE SMOOTH",
"668 22 OFFCURVE",
"637 35 OFFCURVE",
"628 57 CURVE SMOOTH",
"381 712 LINE",
"325 686 LINE",
"88 57 LINE SMOOTH",
"80 37 OFFCURVE",
"45 22 OFFCURVE",
"20 22 CURVE SMOOTH",
"5 22 LINE",
"5 0 LINE"
);
},
{
closed = 1;
nodes = (
"658 -186 OFFCURVE",
"681 -180 OFFCURVE",
"705 -167 CURVE",
"701 -148 LINE",
"685 -154 OFFCURVE",
"669 -157 OFFCURVE",
"656 -157 CURVE SMOOTH",
"624 -157 OFFCURVE",
"596 -142 OFFCURVE",
"596 -103 CURVE SMOOTH",
"596 -63 OFFCURVE",
"624 -24 OFFCURVE",
"668 3 CURVE",
"632 3 LINE",
"582 -21 OFFCURVE",
"546 -61 OFFCURVE",
"546 -109 CURVE SMOOTH",
"546 -141 OFFCURVE",
"565 -186 OFFCURVE",
"634 -186 CURVE SMOOTH"
);
},
{
closed = 1;
nodes = (
"508 217 LINE",
"508 252 LINE",
"186 252 LINE",
"186 217 LINE"
);
}
);
width = 714;
}
);
leftKerningGroup = A;
note = Aogonek;
rightKerningGroup = A;
unicode = 0104;
},
{
glyphname = Aring;
lastChange = "2015-10-02 09:32:29 +0000";
layers = (
{
layerId = "F0EF4016-32DD-4ABE-928D-BF0CB1E4FAE8";
name = Light;
paths = (
{
closed = 1;
nodes = (
"212 0 LINE",
"212 22 LINE",
"195 22 LINE SMOOTH",
"170 22 OFFCURVE",
"133 37 OFFCURVE",
"144 66 CURVE SMOOTH",
"345 608 LINE",
"546 47 LINE SMOOTH",
"552 31 OFFCURVE",
"517 22 OFFCURVE",
"493 22 CURVE SMOOTH",
"478 22 LINE",
"478 0 LINE",
"709 0 LINE",
"709 22 LINE",
"692 22 LINE SMOOTH",
"668 22 OFFCURVE",
"637 35 OFFCURVE",
"628 57 CURVE SMOOTH",
"381 712 LINE",
"325 686 LINE",
"88 57 LINE SMOOTH",
"80 37 OFFCURVE",
"45 22 OFFCURVE",
"20 22 CURVE SMOOTH",
"5 22 LINE",
"5 0 LINE"
);
},
{
closed = 1;
nodes = (
"508 217 LINE",
"508 252 LINE",
"186 252 LINE",
"186 217 LINE"
);
},
{
closed = 1;
nodes = (
"408 757 OFFCURVE",
"445 791 OFFCURVE",
"445 841 CURVE SMOOTH",
"445 891 OFFCURVE",
"408 925 OFFCURVE",
"357 925 CURVE SMOOTH",
"305 925 OFFCURVE",
"268 891 OFFCURVE",
"268 841 CURVE SMOOTH",
"268 791 OFFCURVE",
"305 757 OFFCURVE",
"357 757 CURVE SMOOTH"
);
},
{
closed = 1;
nodes = (
"326 787 OFFCURVE",
"304 808 OFFCURVE",
"304 841 CURVE SMOOTH",
"304 874 OFFCURVE",
"326 895 OFFCURVE",
"357 895 CURVE SMOOTH",
"387 895 OFFCURVE",
"410 874 OFFCURVE",
"410 841 CURVE SMOOTH",
"410 808 OFFCURVE",
"387 787 OFFCURVE",
"357 787 CURVE SMOOTH"
);
}
);
width = 714;
}
);
leftKerningGroup = A;
note = Aring;
rightKerningGroup = A;
unicode = 00C5;
},
{
glyphname = Aringacute;
lastChange = "2015-10-02 09:32:28 +0000";
layers = (
{
layerId = "F0EF4016-32DD-4ABE-928D-BF0CB1E4FAE8";
name = Light;
paths = (
{
closed = 1;
nodes = (
"212 0 LINE",
"212 22 LINE",
"195 22 LINE SMOOTH",
"170 22 OFFCURVE",
"133 37 OFFCURVE",
"144 66 CURVE SMOOTH",
"345 608 LINE",
"546 47 LINE SMOOTH",
"552 31 OFFCURVE",
"517 22 OFFCURVE",
"493 22 CURVE SMOOTH",
"478 22 LINE",
"478 0 LINE",
"709 0 LINE",
"709 22 LINE",
"692 22 LINE SMOOTH",
"668 22 OFFCURVE",
"637 35 OFFCURVE",
"628 57 CURVE SMOOTH",
"381 712 LINE",
"325 686 LINE",
"88 57 LINE SMOOTH",
"80 37 OFFCURVE",
"45 22 OFFCURVE",
"20 22 CURVE SMOOTH",
"5 22 LINE",
"5 0 LINE"
);
},
{
closed = 1;
nodes = (
"508 217 LINE",
"508 252 LINE",
"186 252 LINE",
"186 217 LINE"
);
},
{
closed = 1;
nodes = (
"408 757 OFFCURVE",
"445 791 OFFCURVE",
"445 841 CURVE SMOOTH",
"445 891 OFFCURVE",
"408 925 OFFCURVE",
"357 925 CURVE SMOOTH",
"305 925 OFFCURVE",
"268 891 OFFCURVE",
"268 841 CURVE SMOOTH",
"268 791 OFFCURVE",
"305 757 OFFCURVE",
"357 757 CURVE SMOOTH"
);
},
{
closed = 1;
nodes = (
"326 787 OFFCURVE",
"304 808 OFFCURVE",
"304 841 CURVE SMOOTH",
"304 874 OFFCURVE",
"326 895 OFFCURVE",
"357 895 CURVE SMOOTH",
"387 895 OFFCURVE",
"410 874 OFFCURVE",
"410 841 CURVE SMOOTH",
"410 808 OFFCURVE",
"387 787 OFFCURVE",
"357 787 CURVE SMOOTH"
);
},
{
closed = 1;
nodes = (
"419 1046 LINE SMOOTH",
"437 1056 OFFCURVE",
"447 1068 OFFCURVE",
"447 1082 CURVE SMOOTH",
"447 1095 OFFCURVE",
"439 1107 OFFCURVE",
"422 1107 CURVE SMOOTH",
"405 1107 OFFCURVE",
"390 1094 OFFCURVE",
"382 1087 CURVE SMOOTH",
"269 987 LINE",
"283 967 LINE"
);
}
);
width = 714;
}
);
leftKerningGroup = A;
note = Aringacute;
rightKerningGroup = A;
unicode = 01FA;
},
{
glyphname = Atilde;
lastChange = "2015-10-02 09:32:29 +0000";
layers = (
{
layerId = "F0EF4016-32DD-4ABE-928D-BF0CB1E4FAE8";
name = Light;
paths = (
{
closed = 1;
nodes = (
"212 0 LINE",
"212 22 LINE",
"195 22 LINE SMOOTH",
"170 22 OFFCURVE",
"133 37 OFFCURVE",
"144 66 CURVE SMOOTH",
"345 608 LINE",
"546 47 LINE SMOOTH",
"552 31 OFFCURVE",
"517 22 OFFCURVE",
"493 22 CURVE SMOOTH",
"478 22 LINE",
"478 0 LINE",
"709 0 LINE",
"709 22 LINE",
"692 22 LINE SMOOTH",
"668 22 OFFCURVE",
"637 35 OFFCURVE",
"628 57 CURVE SMOOTH",
"381 712 LINE",
"325 686 LINE",
"88 57 LINE SMOOTH",
"80 37 OFFCURVE",
"45 22 OFFCURVE",
"20 22 CURVE SMOOTH",
"5 22 LINE",
"5 0 LINE"
);
},
{
closed = 1;
nodes = (
"508 217 LINE",
"508 252 LINE",
"186 252 LINE",
"186 217 LINE"
);
},
{
closed = 1;
nodes = (
"233 820 OFFCURVE",
"251 842 OFFCURVE",
"283 842 CURVE SMOOTH",
"330 842 OFFCURVE",
"378 786 OFFCURVE",
"426 786 CURVE SMOOTH",
"478 786 OFFCURVE",
"507 827 OFFCURVE",
"518 880 CURVE",
"499 890 LINE",
"485 850 OFFCURVE",
"469 827 OFFCURVE",
"436 827 CURVE SMOOTH",
"390 827 OFFCURVE",
"340 882 OFFCURVE",
"291 882 CURVE SMOOTH",
"243 882 OFFCURVE",
"211 845 OFFCURVE",
"201 792 CURVE",
"220 782 LINE"
);
}
);
width = 714;
}
);
leftKerningGroup = A;
note = Atilde;
rightKerningGroup = A;
unicode = 00C3;
},
{
glyphname = AE;
lastChange = "2015-10-02 09:32:28 +0000";
layers = (
{
layerId = "F0EF4016-32DD-4ABE-928D-BF0CB1E4FAE8";
name = Light;
paths = (
{
closed = 1;
nodes = (
"216 0 LINE",
"216 22 LINE",
"200 22 LINE SMOOTH",
"169 22 OFFCURVE",
"134 38 OFFCURVE",
"146 58 CURVE SMOOTH",
"241 217 LINE",
"498 217 LINE",
"498 57 LINE SMOOTH",
"498 32 OFFCURVE",
"473 22 OFFCURVE",
"444 22 CURVE SMOOTH",
"423 22 LINE",
"423 0 LINE",
"908 0 LINE",
"924 175 LINE",
"902 175 LINE",
"897 124 OFFCURVE",
"879 35 OFFCURVE",
"817 35 CURVE SMOOTH",
"574 35 LINE",
"574 352 LINE",
"744 352 LINE SMOOTH",
"788 352 OFFCURVE",
"792 304 OFFCURVE",
"796 253 CURVE",
"816 253 LINE",
"816 486 LINE",
"796 486 LINE",
"792 435 OFFCURVE",
"788 387 OFFCURVE",
"744 387 CURVE SMOOTH",
"574 387 LINE",
"574 665 LINE",
"805 665 LINE SMOOTH",
"875 665 OFFCURVE",
"884 574 OFFCURVE",
"886 533 CURVE",
"908 533 LINE",
"908 700 LINE",
"413 700 LINE",
"413 677 LINE",
"443 677 LINE SMOOTH",
"459 677 OFFCURVE",
"459 662 OFFCURVE",
"454 652 CURVE",
"111 88 LINE SMOOTH",
"92 57 OFFCURVE",
"73 25 OFFCURVE",
"25 22 CURVE",
"10 22 LINE",
"10 0 LINE"
);
},
{
closed = 1;
nodes = (
"498 639 LINE",
"498 252 LINE",
"261 252 LINE"
);
}
);
width = 961;
}
);
leftKerningGroup = A;
note = AE;
unicode = 00C6;
},
{
glyphname = AEacute;
lastChange = "2015-10-02 09:32:29 +0000";
layers = (
{
layerId = "F0EF4016-32DD-4ABE-928D-BF0CB1E4FAE8";
name = Light;
paths = (
{
closed = 1;
nodes = (
"216 0 LINE",
"216 22 LINE",
"200 22 LINE SMOOTH",
"169 22 OFFCURVE",
"134 38 OFFCURVE",
"146 58 CURVE SMOOTH",
"241 217 LINE",
"498 217 LINE",
"498 57 LINE SMOOTH",
"498 32 OFFCURVE",
"473 22 OFFCURVE",
"444 22 CURVE SMOOTH",
"423 22 LINE",
"423 0 LINE",
"908 0 LINE",
"924 175 LINE",
"902 175 LINE",
"897 124 OFFCURVE",
"879 35 OFFCURVE",
"817 35 CURVE SMOOTH",
"574 35 LINE",
"574 352 LINE",
"744 352 LINE SMOOTH",
"788 352 OFFCURVE",
"792 304 OFFCURVE",
"796 253 CURVE",
"816 253 LINE",
"816 486 LINE",
"796 486 LINE",
"792 435 OFFCURVE",
"788 387 OFFCURVE",
"744 387 CURVE SMOOTH",
"574 387 LINE",
"574 665 LINE",
"805 665 LINE SMOOTH",
"875 665 OFFCURVE",
"884 574 OFFCURVE",
"886 533 CURVE",
"908 533 LINE",
"908 700 LINE",
"413 700 LINE",
"413 677 LINE",
"443 677 LINE SMOOTH",
"459 677 OFFCURVE",
"459 662 OFFCURVE",
"454 652 CURVE",
"111 88 LINE SMOOTH",
"92 57 OFFCURVE",
"73 25 OFFCURVE",
"25 22 CURVE",
"10 22 LINE",
"10 0 LINE"
);
},
{
closed = 1;
nodes = (
"498 639 LINE",
"498 252 LINE",
"261 252 LINE"
);
},
{
closed = 1;
nodes = (
"766 863 LINE SMOOTH",
"784 873 OFFCURVE",
"794 885 OFFCURVE",
"794 899 CURVE SMOOTH",
"794 912 OFFCURVE",
"786 924 OFFCURVE",
"769 924 CURVE SMOOTH",
"752 924 OFFCURVE",
"737 911 OFFCURVE",
"729 904 CURVE SMOOTH",
"616 804 LINE",
"630 784 LINE"
);
}
);
width = 961;
}
);
leftKerningGroup = A;
note = AEacute;
unicode = 01FC;
},
{
glyphname = B;
lastChange = "2015-10-02 09:32:29 +0000";
layers = (
{
layerId = "F0EF4016-32DD-4ABE-928D-BF0CB1E4FAE8";
name = Light;
paths = (
{
closed = 1;
nodes = (
"342 0 LINE SMOOTH",
"483 0 OFFCURVE",
"560 68 OFFCURVE",
"560 188 CURVE SMOOTH",
"560 261 OFFCURVE",
"530 347 OFFCURVE",
"392 367 CURVE",
"392 368 OFFCURVE",
"392 370 OFFCURVE",
"392 370 CURVE",
"473 392 OFFCURVE",
"518 459 OFFCURVE",
"518 534 CURVE SMOOTH",
"518 642 OFFCURVE",
"445 700 OFFCURVE",
"313 700 CURVE SMOOTH",
"20 700 LINE",
"20 677 LINE",
"48 677 LINE SMOOTH",
"87 677 OFFCURVE",
"107 667 OFFCURVE",
"107 642 CURVE SMOOTH",
"107 57 LINE SMOOTH",
"107 32 OFFCURVE",
"87 22 OFFCURVE",
"48 22 CURVE SMOOTH",
"20 22 LINE",
"20 0 LINE"
);
},
{
closed = 1;
nodes = (
"183 349 LINE",
"296 349 LINE SMOOTH",
"428 349 OFFCURVE",
"487 296 OFFCURVE",
"487 191 CURVE SMOOTH",
"487 91 OFFCURVE",
"428 35 OFFCURVE",
"304 35 CURVE SMOOTH",
"183 35 LINE"
);
},
{
closed = 1;
nodes = (
"183 665 LINE",
"281 665 LINE SMOOTH",
"389 665 OFFCURVE",
"444 625 OFFCURVE",
"444 533 CURVE SMOOTH",
"444 445 OFFCURVE",
"385 383 OFFCURVE",
"293 383 CURVE SMOOTH",
"183 383 LINE"
);
}
);
width = 590;
}
);
note = B;
unicode = 0042;
},
{
glyphname = C;
lastChange = "2015-10-02 09:32:27 +0000";
layers = (
{
layerId = "F0EF4016-32DD-4ABE-928D-BF0CB1E4FAE8";
name = Light;
paths = (
{
closed = 1;
nodes = (
"500 -10 OFFCURVE",
"603 56 OFFCURVE",
"627 170 CURVE",
"594 170 LINE",
"562 66 OFFCURVE",
"461 25 OFFCURVE",
"378 25 CURVE SMOOTH",
"200 25 OFFCURVE",
"121 158 OFFCURVE",
"121 350 CURVE SMOOTH",
"121 543 OFFCURVE",
"211 674 OFFCURVE",
"387 674 CURVE SMOOTH",
"494 674 OFFCURVE",
"579 617 OFFCURVE",
"589 519 CURVE",
"613 519 LINE",
"613 705 LINE",
"582 705 LINE",
"582 662 LINE SMOOTH",
"582 650 OFFCURVE",
"578 645 OFFCURVE",
"573 645 CURVE SMOOTH",
"570 645 OFFCURVE",
"567 648 OFFCURVE",
"564 650 CURVE",
"535 671 OFFCURVE",
"470 710 OFFCURVE",
"374 710 CURVE SMOOTH",
"168 710 OFFCURVE",
"45 577 OFFCURVE",
"45 350 CURVE SMOOTH",
"45 122 OFFCURVE",
"159 -10 OFFCURVE",
"365 -10 CURVE SMOOTH"
);
}
);
width = 658;
}
);
leftKerningGroup = C;
note = C;
unicode = 0043;
},
{
glyphname = Cacute;
lastChange = "2015-10-02 09:32:29 +0000";
layers = (
{
layerId = "F0EF4016-32DD-4ABE-928D-BF0CB1E4FAE8";
name = Light;
paths = (
{
closed = 1;
nodes = (
"500 -10 OFFCURVE",
"603 56 OFFCURVE",
"627 170 CURVE",
"594 170 LINE",
"562 66 OFFCURVE",
"461 25 OFFCURVE",
"378 25 CURVE SMOOTH",
"200 25 OFFCURVE",
"121 158 OFFCURVE",
"121 350 CURVE SMOOTH",
"121 543 OFFCURVE",
"211 674 OFFCURVE",
"387 674 CURVE SMOOTH",
"494 674 OFFCURVE",
"579 617 OFFCURVE",
"589 519 CURVE",
"613 519 LINE",
"613 705 LINE",
"582 705 LINE",
"582 662 LINE SMOOTH",
"582 650 OFFCURVE",
"578 645 OFFCURVE",
"573 645 CURVE SMOOTH",
"570 645 OFFCURVE",
"567 648 OFFCURVE",
"564 650 CURVE",
"535 671 OFFCURVE",
"470 710 OFFCURVE",
"374 710 CURVE SMOOTH",
"168 710 OFFCURVE",
"45 577 OFFCURVE",
"45 350 CURVE SMOOTH",
"45 122 OFFCURVE",
"159 -10 OFFCURVE",
"365 -10 CURVE SMOOTH"
);
},
{
closed = 1;
nodes = (
"436 863 LINE SMOOTH",
"454 873 OFFCURVE",
"464 885 OFFCURVE",
"464 899 CURVE SMOOTH",
"464 912 OFFCURVE",
"456 924 OFFCURVE",
"439 924 CURVE SMOOTH",
"422 924 OFFCURVE",
"407 911 OFFCURVE",
"399 904 CURVE SMOOTH",
"286 804 LINE",
"300 784 LINE"
);
}
);
width = 658;
}
);
leftKerningGroup = C;
note = Cacute;
unicode = 0106;
},
{
glyphname = Ccaron;
lastChange = "2015-10-02 09:32:29 +0000";
layers = (
{
layerId = "F0EF4016-32DD-4ABE-928D-BF0CB1E4FAE8";
name = Light;
paths = (
{
closed = 1;
nodes = (
"500 -10 OFFCURVE",
"603 56 OFFCURVE",
"627 170 CURVE",
"594 170 LINE",
"562 66 OFFCURVE",
"461 25 OFFCURVE",
"378 25 CURVE SMOOTH",
"200 25 OFFCURVE",
"121 158 OFFCURVE",
"121 350 CURVE SMOOTH",
"121 543 OFFCURVE",
"211 674 OFFCURVE",
"387 674 CURVE SMOOTH",
"494 674 OFFCURVE",
"579 617 OFFCURVE",
"589 519 CURVE",
"613 519 LINE",
"613 705 LINE",
"582 705 LINE",
"582 662 LINE SMOOTH",
"582 650 OFFCURVE",
"578 645 OFFCURVE",
"573 645 CURVE SMOOTH",
"570 645 OFFCURVE",
"567 648 OFFCURVE",
"564 650 CURVE",
"535 671 OFFCURVE",
"470 710 OFFCURVE",
"374 710 CURVE SMOOTH",
"168 710 OFFCURVE",
"45 577 OFFCURVE",
"45 350 CURVE SMOOTH",
"45 122 OFFCURVE",
"159 -10 OFFCURVE",
"365 -10 CURVE SMOOTH"
);
},
{
closed = 1;
nodes = (
"387 784 LINE",
"504 902 LINE",
"486 921 LINE",
"385 839 LINE",
"378 834 OFFCURVE",
"371 830 OFFCURVE",
"366 830 CURVE SMOOTH",
"361 830 OFFCURVE",
"355 832 OFFCURVE",
"346 839 CURVE SMOOTH",
"245 921 LINE",
"228 902 LINE",
"344 784 LINE"
);
}
);
width = 658;
}
);
leftKerningGroup = C;
note = Ccaron;
unicode = 010C;
},
{
glyphname = Ccedilla;
lastChange = "2015-10-02 09:32:29 +0000";
layers = (
{
layerId = "F0EF4016-32DD-4ABE-928D-BF0CB1E4FAE8";
name = Light;
paths = (
{
closed = 1;
nodes = (
"500 -10 OFFCURVE",
"603 56 OFFCURVE",
"627 170 CURVE",
"594 170 LINE",
"562 66 OFFCURVE",
"461 25 OFFCURVE",
"378 25 CURVE SMOOTH",
"200 25 OFFCURVE",
"121 158 OFFCURVE",
"121 350 CURVE SMOOTH",
"121 543 OFFCURVE",
"211 674 OFFCURVE",
"387 674 CURVE SMOOTH",
"494 674 OFFCURVE",
"579 617 OFFCURVE",
"589 519 CURVE",
"613 519 LINE",
"613 705 LINE",
"582 705 LINE",
"582 662 LINE SMOOTH",
"582 650 OFFCURVE",
"578 645 OFFCURVE",
"573 645 CURVE SMOOTH",
"570 645 OFFCURVE",
"567 648 OFFCURVE",
"564 650 CURVE",
"535 671 OFFCURVE",
"470 710 OFFCURVE",
"374 710 CURVE SMOOTH",
"168 710 OFFCURVE",
"45 577 OFFCURVE",
"45 350 CURVE SMOOTH",
"45 122 OFFCURVE",
"159 -10 OFFCURVE",
"365 -10 CURVE SMOOTH"
);
},
{
closed = 1;
nodes = (
"396 -207 OFFCURVE",
"453 -184 OFFCURVE",
"453 -125 CURVE SMOOTH",
"453 -72 OFFCURVE",
"399 -61 OFFCURVE",
"354 -61 CURVE",
"388 7 LINE",
"350 7 LINE",
"308 -70 LINE",
"324 -90 LINE",
"350 -90 OFFCURVE",
"401 -90 OFFCURVE",
"401 -126 CURVE SMOOTH",
"401 -164 OFFCURVE",
"367 -177 OFFCURVE",
"324 -177 CURVE SMOOTH",
"312 -177 OFFCURVE",
"295 -177 OFFCURVE",
"284 -175 CURVE",
"277 -201 LINE",
"292 -205 OFFCURVE",
"306 -207 OFFCURVE",
"323 -207 CURVE SMOOTH"
);
}
);
width = 658;
}
);
leftKerningGroup = C;
note = Ccedilla;
unicode = 00C7;
},
{
glyphname = Ccircumflex;
lastChange = "2015-10-02 09:32:29 +0000";
layers = (
{
layerId = "F0EF4016-32DD-4ABE-928D-BF0CB1E4FAE8";
name = Light;
paths = (
{
closed = 1;
nodes = (
"500 -10 OFFCURVE",
"603 56 OFFCURVE",
"627 170 CURVE",
"594 170 LINE",
"562 66 OFFCURVE",
"461 25 OFFCURVE",
"378 25 CURVE SMOOTH",
"200 25 OFFCURVE",
"121 158 OFFCURVE",
"121 350 CURVE SMOOTH",
"121 543 OFFCURVE",
"211 674 OFFCURVE",
"387 674 CURVE SMOOTH",
"494 674 OFFCURVE",
"579 617 OFFCURVE",
"589 519 CURVE",
"613 519 LINE",
"613 705 LINE",
"582 705 LINE",
"582 662 LINE SMOOTH",
"582 650 OFFCURVE",
"578 645 OFFCURVE",
"573 645 CURVE SMOOTH",
"570 645 OFFCURVE",
"567 648 OFFCURVE",
"564 650 CURVE",
"535 671 OFFCURVE",
"470 710 OFFCURVE",
"374 710 CURVE SMOOTH",
"168 710 OFFCURVE",
"45 577 OFFCURVE",
"45 350 CURVE SMOOTH",
"45 122 OFFCURVE",
"159 -10 OFFCURVE",
"365 -10 CURVE SMOOTH"
);
},
{
closed = 1;
nodes = (
"348 866 LINE",
"355 871 OFFCURVE",
"363 875 OFFCURVE",
"368 875 CURVE SMOOTH",
"373 875 OFFCURVE",
"380 871 OFFCURVE",
"387 866 CURVE",
"488 784 LINE",
"506 803 LINE",
"389 921 LINE",
"346 921 LINE",
"230 803 LINE",
"247 784 LINE"
);
}
);
width = 658;
}
);
leftKerningGroup = C;
note = Ccircumflex;
unicode = 0108;
},
{
glyphname = Cdotaccent;
lastChange = "2015-10-02 09:32:28 +0000";
layers = (
{
layerId = "F0EF4016-32DD-4ABE-928D-BF0CB1E4FAE8";
name = Light;
paths = (
{
closed = 1;
nodes = (
"500 -10 OFFCURVE",
"603 56 OFFCURVE",
"627 170 CURVE",
"594 170 LINE",
"562 66 OFFCURVE",
"461 25 OFFCURVE",
"378 25 CURVE SMOOTH",
"200 25 OFFCURVE",
"121 158 OFFCURVE",
"121 350 CURVE SMOOTH",
"121 543 OFFCURVE",
"211 674 OFFCURVE",
"387 674 CURVE SMOOTH",
"494 674 OFFCURVE",
"579 617 OFFCURVE",
"589 519 CURVE",
"613 519 LINE",
"613 705 LINE",
"582 705 LINE",
"582 662 LINE SMOOTH",
"582 650 OFFCURVE",
"578 645 OFFCURVE",
"573 645 CURVE SMOOTH",
"570 645 OFFCURVE",
"567 648 OFFCURVE",
"564 650 CURVE",
"535 671 OFFCURVE",
"470 710 OFFCURVE",
"374 710 CURVE SMOOTH",
"168 710 OFFCURVE",
"45 577 OFFCURVE",
"45 350 CURVE SMOOTH",
"45 122 OFFCURVE",
"159 -10 OFFCURVE",
"365 -10 CURVE SMOOTH"
);
},
{
closed = 1;
nodes = (
"406 763 OFFCURVE",
"422 779 OFFCURVE",
"422 804 CURVE SMOOTH",
"422 829 OFFCURVE",
"406 845 OFFCURVE",
"382 845 CURVE SMOOTH",
"357 845 OFFCURVE",
"341 829 OFFCURVE",
"341 804 CURVE SMOOTH",
"341 779 OFFCURVE",
"357 763 OFFCURVE",
"382 763 CURVE SMOOTH"
);
}
);
width = 658;
}
);
leftKerningGroup = C;
note = Cdotaccent;
unicode = 010A;
},
{
glyphname = D;
lastChange = "2015-10-02 09:32:28 +0000";
layers = (
{
layerId = "F0EF4016-32DD-4ABE-928D-BF0CB1E4FAE8";
name = Light;
paths = (
{
closed = 1;
nodes = (
"323 0 LINE SMOOTH",
"526 0 OFFCURVE",
"628 123 OFFCURVE",
"628 350 CURVE SMOOTH",
"628 575 OFFCURVE",
"527 700 OFFCURVE",
"324 700 CURVE SMOOTH",
"19 700 LINE",
"19 677 LINE",
"48 677 LINE SMOOTH",
"86 677 OFFCURVE",
"107 667 OFFCURVE",
"107 642 CURVE SMOOTH",
"107 57 LINE SMOOTH",
"107 32 OFFCURVE",
"86 22 OFFCURVE",
"48 22 CURVE SMOOTH",
"19 22 LINE",
"19 0 LINE"
);
},
{
closed = 1;
nodes = (
"183 666 LINE",
"323 666 LINE SMOOTH",
"479 666 OFFCURVE",
"552 544 OFFCURVE",
"552 350 CURVE SMOOTH",
"552 155 OFFCURVE",
"478 33 OFFCURVE",
"321 33 CURVE SMOOTH",
"183 33 LINE"
);
}
);
width = 669;
}
);
note = D;
rightKerningGroup = D;
unicode = 0044;
},
{
glyphname = Eth;
lastChange = "2015-12-01 09:04:51 +0000";
layers = (
{
layerId = "F0EF4016-32DD-4ABE-928D-BF0CB1E4FAE8";
name = Light;
paths = (
{
closed = 1;
nodes = (
"323 0 LINE SMOOTH",
"526 0 OFFCURVE",
"628 123 OFFCURVE",
"628 350 CURVE SMOOTH",
"628 575 OFFCURVE",
"527 700 OFFCURVE",
"324 700 CURVE SMOOTH",
"19 700 LINE",
"19 677 LINE",
"48 677 LINE SMOOTH",
"86 677 OFFCURVE",
"107 667 OFFCURVE",
"107 642 CURVE SMOOTH",
"107 57 LINE SMOOTH",
"107 32 OFFCURVE",
"86 22 OFFCURVE",
"48 22 CURVE SMOOTH",
"19 22 LINE",
"19 0 LINE"
);
},
{
closed = 1;
nodes = (
"183 666 LINE",
"323 666 LINE SMOOTH",
"479 666 OFFCURVE",
"552 544 OFFCURVE",
"552 350 CURVE SMOOTH",
"552 155 OFFCURVE",
"478 33 OFFCURVE",
"321 33 CURVE SMOOTH",
"183 33 LINE"
);
},
{
closed = 1;
nodes = (
"399 334 LINE",
"399 372 LINE",
"30 372 LINE",
"30 334 LINE"
);
}
);
width = 669;
}
);
note = Eth;
rightKerningGroup = D;
unicode = 00D0;
},
{
glyphname = Dcaron;
lastChange = "2015-10-02 09:32:29 +0000";
layers = (
{
layerId = "F0EF4016-32DD-4ABE-928D-BF0CB1E4FAE8";
name = Light;
paths = (
{
closed = 1;
nodes = (
"323 0 LINE SMOOTH",
"526 0 OFFCURVE",
"628 123 OFFCURVE",
"628 350 CURVE SMOOTH",
"628 575 OFFCURVE",
"527 700 OFFCURVE",
"324 700 CURVE SMOOTH",
"19 700 LINE",
"19 677 LINE",
"48 677 LINE SMOOTH",
"86 677 OFFCURVE",
"107 667 OFFCURVE",
"107 642 CURVE SMOOTH",
"107 57 LINE SMOOTH",
"107 32 OFFCURVE",
"86 22 OFFCURVE",
"48 22 CURVE SMOOTH",
"19 22 LINE",
"19 0 LINE"
);
},
{
closed = 1;
nodes = (
"183 666 LINE",
"323 666 LINE SMOOTH",
"479 666 OFFCURVE",
"552 544 OFFCURVE",
"552 350 CURVE SMOOTH",
"552 155 OFFCURVE",
"478 33 OFFCURVE",
"321 33 CURVE SMOOTH",
"183 33 LINE"
);
},
{
closed = 1;
nodes = (
"345 805 LINE",
"462 923 LINE",
"444 942 LINE",
"343 860 LINE",
"336 855 OFFCURVE",
"329 851 OFFCURVE",
"324 851 CURVE SMOOTH",
"319 851 OFFCURVE",
"313 853 OFFCURVE",
"304 860 CURVE SMOOTH",
"203 942 LINE",
"186 923 LINE",
"302 805 LINE"
);
}
);
width = 669;
}
);
note = Dcaron;
rightKerningGroup = D;
unicode = 010E;
},
{
glyphname = Dcroat;
lastChange = "2015-12-01 09:04:55 +0000";
layers = (
{
layerId = "F0EF4016-32DD-4ABE-928D-BF0CB1E4FAE8";
name = Light;
paths = (
{
closed = 1;
nodes = (
"323 0 LINE SMOOTH",
"526 0 OFFCURVE",
"628 123 OFFCURVE",
"628 350 CURVE SMOOTH",
"628 575 OFFCURVE",
"527 700 OFFCURVE",
"324 700 CURVE SMOOTH",
"19 700 LINE",
"19 677 LINE",
"48 677 LINE SMOOTH",
"86 677 OFFCURVE",
"107 667 OFFCURVE",
"107 642 CURVE SMOOTH",
"107 57 LINE SMOOTH",
"107 32 OFFCURVE",
"86 22 OFFCURVE",
"48 22 CURVE SMOOTH",
"19 22 LINE",
"19 0 LINE"
);
},
{
closed = 1;
nodes = (
"183 666 LINE",
"323 666 LINE SMOOTH",
"479 666 OFFCURVE",
"552 544 OFFCURVE",
"552 350 CURVE SMOOTH",
"552 155 OFFCURVE",
"478 33 OFFCURVE",
"321 33 CURVE SMOOTH",
"183 33 LINE"
);
},
{
closed = 1;
nodes = (
"399 334 LINE",
"399 372 LINE",
"30 372 LINE",
"30 334 LINE"
);
}
);
width = 669;
}
);
note = Dcroat;
rightKerningGroup = D;
unicode = 0110;
},
{
glyphname = Ddotbelow;
lastChange = "2015-12-01 09:04:58 +0000";
layers = (
{
layerId = "F0EF4016-32DD-4ABE-928D-BF0CB1E4FAE8";
name = Light;
paths = (
{
closed = 1;
nodes = (
"323 0 LINE SMOOTH",
"526 0 OFFCURVE",
"628 123 OFFCURVE",
"628 350 CURVE SMOOTH",
"628 575 OFFCURVE",
"527 700 OFFCURVE",
"324 700 CURVE SMOOTH",
"19 700 LINE",
"19 677 LINE",
"48 677 LINE SMOOTH",
"86 677 OFFCURVE",
"107 667 OFFCURVE",
"107 642 CURVE SMOOTH",
"107 57 LINE SMOOTH",
"107 32 OFFCURVE",
"86 22 OFFCURVE",
"48 22 CURVE SMOOTH",
"19 22 LINE",
"19 0 LINE"
);
},
{
closed = 1;
nodes = (
"183 666 LINE",
"323 666 LINE SMOOTH",
"479 666 OFFCURVE",
"552 544 OFFCURVE",
"552 350 CURVE SMOOTH",
"552 155 OFFCURVE",
"478 33 OFFCURVE",
"321 33 CURVE SMOOTH",
"183 33 LINE"
);
},
{
closed = 1;
nodes = (
"275 -131 OFFCURVE",
"292 -147 OFFCURVE",
"316 -147 CURVE SMOOTH",
"341 -147 OFFCURVE",
"357 -131 OFFCURVE",
"357 -106 CURVE SMOOTH",
"357 -81 OFFCURVE",
"341 -64 OFFCURVE",
"316 -64 CURVE SMOOTH",
"292 -64 OFFCURVE",
"275 -81 OFFCURVE",
"275 -106 CURVE SMOOTH"
);
}
);
width = 669;
}
);
note = Ddotbelow;
rightKerningGroup = D;
unicode = 1E0C;
},
{
glyphname = Dlinebelow;
lastChange = "2015-12-01 09:05:02 +0000";
layers = (
{
layerId = "F0EF4016-32DD-4ABE-928D-BF0CB1E4FAE8";
name = Light;
paths = (
{
closed = 1;
nodes = (
"323 0 LINE SMOOTH",
"526 0 OFFCURVE",
"628 123 OFFCURVE",
"628 350 CURVE SMOOTH",
"628 575 OFFCURVE",
"527 700 OFFCURVE",
"324 700 CURVE SMOOTH",
"19 700 LINE",
"19 677 LINE",
"48 677 LINE SMOOTH",
"86 677 OFFCURVE",
"107 667 OFFCURVE",
"107 642 CURVE SMOOTH",
"107 57 LINE SMOOTH",
"107 32 OFFCURVE",
"86 22 OFFCURVE",
"48 22 CURVE SMOOTH",
"19 22 LINE",
"19 0 LINE"
);
},
{
closed = 1;
nodes = (
"183 666 LINE",
"323 666 LINE SMOOTH",
"479 666 OFFCURVE",
"552 544 OFFCURVE",
"552 350 CURVE SMOOTH",
"552 155 OFFCURVE",
"478 33 OFFCURVE",
"321 33 CURVE SMOOTH",
"183 33 LINE"
);
},
{
closed = 1;
nodes = (
"472 -106 LINE",
"472 -73 LINE",
"159 -73 LINE",
"159 -106 LINE"
);
}
);
width = 669;
}
);
note = Dlinebelow;
rightKerningGroup = D;
unicode = 1E0E;
},
{
glyphname = E;
lastChange = "2015-10-02 09:32:29 +0000";
layers = (
{
layerId = "F0EF4016-32DD-4ABE-928D-BF0CB1E4FAE8";
name = Light;
paths = (
{
closed = 1;
nodes = (
"537 0 LINE",
"553 175 LINE",
"531 175 LINE",
"526 124 OFFCURVE",
"508 35 OFFCURVE",
"446 35 CURVE SMOOTH",
"181 35 LINE",
"181 665 LINE",
"435 665 LINE SMOOTH",
"505 665 OFFCURVE",
"513 574 OFFCURVE",
"516 533 CURVE",
"538 533 LINE",
"538 700 LINE",
"17 700 LINE",
"17 677 LINE",
"45 677 LINE SMOOTH",
"84 677 OFFCURVE",
"105 667 OFFCURVE",
"105 642 CURVE SMOOTH",
"105 57 LINE SMOOTH",
"105 32 OFFCURVE",
"84 22 OFFCURVE",
"45 22 CURVE SMOOTH",
"17 22 LINE",
"17 0 LINE"
);
},
{
closed = 1;
nodes = (
"443 253 LINE",
"443 486 LINE",
"422 486 LINE",
"418 435 OFFCURVE",
"415 387 OFFCURVE",
"370 387 CURVE SMOOTH",
"151 387 LINE",
"151 352 LINE",
"370 352 LINE SMOOTH",
"415 352 OFFCURVE",
"418 304 OFFCURVE",
"422 253 CURVE"
);
}
);
width = 591;
}
);
note = E;
unicode = 0045;
},
{
glyphname = Eacute;
lastChange = "2015-10-02 09:32:28 +0000";
layers = (
{
layerId = "F0EF4016-32DD-4ABE-928D-BF0CB1E4FAE8";
name = Light;
paths = (
{
closed = 1;
nodes = (
"537 0 LINE",
"553 175 LINE",
"531 175 LINE",
"526 124 OFFCURVE",
"508 35 OFFCURVE",
"446 35 CURVE SMOOTH",
"181 35 LINE",
"181 665 LINE",
"435 665 LINE SMOOTH",
"505 665 OFFCURVE",
"513 574 OFFCURVE",
"516 533 CURVE",
"538 533 LINE",
"538 700 LINE",
"17 700 LINE",
"17 677 LINE",
"45 677 LINE SMOOTH",
"84 677 OFFCURVE",
"105 667 OFFCURVE",
"105 642 CURVE SMOOTH",
"105 57 LINE SMOOTH",
"105 32 OFFCURVE",
"84 22 OFFCURVE",
"45 22 CURVE SMOOTH",
"17 22 LINE",
"17 0 LINE"
);
},
{
closed = 1;
nodes = (
"443 253 LINE",
"443 486 LINE",
"422 486 LINE",
"418 435 OFFCURVE",
"415 387 OFFCURVE",
"370 387 CURVE SMOOTH",
"151 387 LINE",
"151 352 LINE",
"370 352 LINE SMOOTH",
"415 352 OFFCURVE",
"418 304 OFFCURVE",
"422 253 CURVE"
);
},
{
closed = 1;
nodes = (
"383 863 LINE SMOOTH",
"401 873 OFFCURVE",
"411 885 OFFCURVE",
"411 899 CURVE SMOOTH",
"411 912 OFFCURVE",
"403 924 OFFCURVE",
"386 924 CURVE SMOOTH",
"369 924 OFFCURVE",
"354 911 OFFCURVE",
"346 904 CURVE SMOOTH",
"233 804 LINE",
"247 784 LINE"
);
}
);
width = 591;
}
);
note = Eacute;
unicode = 00C9;
},
{
glyphname = Ebreve;
lastChange = "2015-10-02 09:32:29 +0000";
layers = (
{
layerId = "F0EF4016-32DD-4ABE-928D-BF0CB1E4FAE8";
name = Light;
paths = (
{
closed = 1;
nodes = (
"537 0 LINE",
"553 175 LINE",
"531 175 LINE",
"526 124 OFFCURVE",
"508 35 OFFCURVE",
"446 35 CURVE SMOOTH",
"181 35 LINE",
"181 665 LINE",
"435 665 LINE SMOOTH",
"505 665 OFFCURVE",
"513 574 OFFCURVE",
"516 533 CURVE",
"538 533 LINE",
"538 700 LINE",
"17 700 LINE",
"17 677 LINE",
"45 677 LINE SMOOTH",
"84 677 OFFCURVE",
"105 667 OFFCURVE",
"105 642 CURVE SMOOTH",
"105 57 LINE SMOOTH",
"105 32 OFFCURVE",
"84 22 OFFCURVE",
"45 22 CURVE SMOOTH",
"17 22 LINE",
"17 0 LINE"
);
},
{
closed = 1;
nodes = (
"443 253 LINE",
"443 486 LINE",
"422 486 LINE",
"418 435 OFFCURVE",
"415 387 OFFCURVE",
"370 387 CURVE SMOOTH",
"151 387 LINE",
"151 352 LINE",
"370 352 LINE SMOOTH",
"415 352 OFFCURVE",
"418 304 OFFCURVE",
"422 253 CURVE"
);
},
{
closed = 1;
nodes = (
"410 776 OFFCURVE",
"455 825 OFFCURVE",
"460 901 CURVE",
"429 901 LINE",
"422 835 OFFCURVE",
"376 815 OFFCURVE",
"320 815 CURVE SMOOTH",
"264 815 OFFCURVE",
"217 835 OFFCURVE",
"209 901 CURVE",
"179 901 LINE",
"183 823 OFFCURVE",
"229 776 OFFCURVE",
"320 776 CURVE SMOOTH"
);
}
);
width = 591;
}
);
note = Ebreve;
unicode = 0114;
},
{
glyphname = Ecaron;
lastChange = "2015-10-02 09:32:29 +0000";
layers = (
{
layerId = "F0EF4016-32DD-4ABE-928D-BF0CB1E4FAE8";
name = Light;
paths = (
{
closed = 1;
nodes = (
"537 0 LINE",
"553 175 LINE",
"531 175 LINE",
"526 124 OFFCURVE",
"508 35 OFFCURVE",
"446 35 CURVE SMOOTH",
"181 35 LINE",
"181 665 LINE",
"435 665 LINE SMOOTH",
"505 665 OFFCURVE",
"513 574 OFFCURVE",
"516 533 CURVE",
"538 533 LINE",
"538 700 LINE",
"17 700 LINE",
"17 677 LINE",
"45 677 LINE SMOOTH",
"84 677 OFFCURVE",
"105 667 OFFCURVE",
"105 642 CURVE SMOOTH",
"105 57 LINE SMOOTH",
"105 32 OFFCURVE",
"84 22 OFFCURVE",
"45 22 CURVE SMOOTH",
"17 22 LINE",
"17 0 LINE"
);
},
{
closed = 1;
nodes = (
"443 253 LINE",
"443 486 LINE",
"422 486 LINE",
"418 435 OFFCURVE",
"415 387 OFFCURVE",
"370 387 CURVE SMOOTH",
"151 387 LINE",
"151 352 LINE",
"370 352 LINE SMOOTH",
"415 352 OFFCURVE",
"418 304 OFFCURVE",
"422 253 CURVE"
);
},
{
closed = 1;
nodes = (
"340 784 LINE",
"457 902 LINE",
"439 921 LINE",
"338 839 LINE",
"331 834 OFFCURVE",
"324 830 OFFCURVE",
"319 830 CURVE SMOOTH",
"314 830 OFFCURVE",
"308 832 OFFCURVE",
"299 839 CURVE SMOOTH",
"198 921 LINE",
"181 902 LINE",
"297 784 LINE"
);
}
);
width = 591;
}
);
note = Ecaron;
unicode = 011A;
},
{
glyphname = Ecircumflex;
lastChange = "2015-10-02 09:32:29 +0000";
layers = (
{
layerId = "F0EF4016-32DD-4ABE-928D-BF0CB1E4FAE8";
name = Light;
paths = (
{
closed = 1;
nodes = (
"537 0 LINE",
"553 175 LINE",
"531 175 LINE",
"526 124 OFFCURVE",
"508 35 OFFCURVE",
"446 35 CURVE SMOOTH",
"181 35 LINE",
"181 665 LINE",
"435 665 LINE SMOOTH",
"505 665 OFFCURVE",
"513 574 OFFCURVE",
"516 533 CURVE",
"538 533 LINE",
"538 700 LINE",
"17 700 LINE",
"17 677 LINE",
"45 677 LINE SMOOTH",
"84 677 OFFCURVE",
"105 667 OFFCURVE",
"105 642 CURVE SMOOTH",
"105 57 LINE SMOOTH",
"105 32 OFFCURVE",
"84 22 OFFCURVE",
"45 22 CURVE SMOOTH",
"17 22 LINE",
"17 0 LINE"
);
},
{
closed = 1;
nodes = (
"443 253 LINE",
"443 486 LINE",
"422 486 LINE",
"418 435 OFFCURVE",
"415 387 OFFCURVE",
"370 387 CURVE SMOOTH",
"151 387 LINE",
"151 352 LINE",
"370 352 LINE SMOOTH",
"415 352 OFFCURVE",
"418 304 OFFCURVE",
"422 253 CURVE"
);
},
{
closed = 1;
nodes = (
"297 866 LINE",
"304 871 OFFCURVE",
"312 875 OFFCURVE",
"317 875 CURVE SMOOTH",
"322 875 OFFCURVE",
"329 871 OFFCURVE",
"336 866 CURVE",
"437 784 LINE",
"455 803 LINE",
"338 921 LINE",
"295 921 LINE",
"179 803 LINE",
"196 784 LINE"
);
}
);
width = 591;
}
);
note = Ecircumflex;
unicode = 00CA;
},
{
glyphname = Ecircumflexacute;
lastChange = "2015-10-02 09:32:29 +0000";
layers = (
{
layerId = "F0EF4016-32DD-4ABE-928D-BF0CB1E4FAE8";
name = Light;
paths = (
{
closed = 1;
nodes = (
"537 0 LINE",
"553 175 LINE",
"531 175 LINE",
"526 124 OFFCURVE",
"508 35 OFFCURVE",
"446 35 CURVE SMOOTH",
"181 35 LINE",
"181 665 LINE",
"435 665 LINE SMOOTH",
"505 665 OFFCURVE",
"513 574 OFFCURVE",
"516 533 CURVE",
"538 533 LINE",
"538 700 LINE",
"17 700 LINE",
"17 677 LINE",
"45 677 LINE SMOOTH",
"84 677 OFFCURVE",
"105 667 OFFCURVE",
"105 642 CURVE SMOOTH",
"105 57 LINE SMOOTH",
"105 32 OFFCURVE",
"84 22 OFFCURVE",
"45 22 CURVE SMOOTH",
"17 22 LINE",
"17 0 LINE"
);
},
{
closed = 1;
nodes = (
"443 253 LINE",
"443 486 LINE",
"422 486 LINE",
"418 435 OFFCURVE",
"415 387 OFFCURVE",
"370 387 CURVE SMOOTH",
"151 387 LINE",
"151 352 LINE",
"370 352 LINE SMOOTH",
"415 352 OFFCURVE",
"418 304 OFFCURVE",
"422 253 CURVE"
);
},
{
closed = 1;
nodes = (
"288 862 LINE",
"296 868 OFFCURVE",
"304 874 OFFCURVE",
"310 874 CURVE SMOOTH",
"315 874 OFFCURVE",
"322 870 OFFCURVE",
"329 865 CURVE",
"429 783 LINE",
"446 803 LINE",
"331 921 LINE",
"289 921 LINE",
"174 803 LINE",
"191 783 LINE"
);
},
{
closed = 1;
nodes = (
"540 957 LINE SMOOTH",
"559 967 OFFCURVE",
"570 981 OFFCURVE",
"570 993 CURVE SMOOTH",
"570 1006 OFFCURVE",
"560 1019 OFFCURVE",
"542 1019 CURVE SMOOTH",
"526 1019 OFFCURVE",
"511 1006 OFFCURVE",
"502 997 CURVE",
"403 906 LINE",
"418 888 LINE"
);
}
);
width = 591;
}
);
note = Ecircumflexacute;
unicode = 1EBE;
},
{
glyphname = Ecircumflexdotbelow;
lastChange = "2015-10-02 09:32:28 +0000";
layers = (
{
layerId = "F0EF4016-32DD-4ABE-928D-BF0CB1E4FAE8";
name = Light;
paths = (
{
closed = 1;
nodes = (
"537 0 LINE",
"553 175 LINE",
"531 175 LINE",
"526 124 OFFCURVE",
"508 35 OFFCURVE",
"446 35 CURVE SMOOTH",
"181 35 LINE",
"181 665 LINE",
"435 665 LINE SMOOTH",
"505 665 OFFCURVE",
"513 574 OFFCURVE",
"516 533 CURVE",
"538 533 LINE",
"538 700 LINE",
"17 700 LINE",
"17 677 LINE",
"45 677 LINE SMOOTH",
"84 677 OFFCURVE",
"105 667 OFFCURVE",
"105 642 CURVE SMOOTH",
"105 57 LINE SMOOTH",
"105 32 OFFCURVE",
"84 22 OFFCURVE",
"45 22 CURVE SMOOTH",
"17 22 LINE",
"17 0 LINE"
);
},
{
closed = 1;
nodes = (
"339 -147 OFFCURVE",
"355 -131 OFFCURVE",
"355 -106 CURVE SMOOTH",
"355 -81 OFFCURVE",
"339 -64 OFFCURVE",
"314 -64 CURVE SMOOTH",
"290 -64 OFFCURVE",
"273 -81 OFFCURVE",
"273 -106 CURVE SMOOTH",
"273 -131 OFFCURVE",
"290 -147 OFFCURVE",
"314 -147 CURVE SMOOTH"
);
},
{
closed = 1;
nodes = (
"443 253 LINE",
"443 486 LINE",
"422 486 LINE",
"418 435 OFFCURVE",
"415 387 OFFCURVE",
"370 387 CURVE SMOOTH",
"151 387 LINE",
"151 352 LINE",
"370 352 LINE SMOOTH",
"415 352 OFFCURVE",
"418 304 OFFCURVE",
"422 253 CURVE"
);
},
{
closed = 1;
nodes = (
"290 866 LINE",
"297 871 OFFCURVE",
"305 875 OFFCURVE",
"310 875 CURVE SMOOTH",
"315 875 OFFCURVE",
"322 871 OFFCURVE",
"329 866 CURVE",
"430 784 LINE",
"448 803 LINE",
"331 921 LINE",
"288 921 LINE",
"172 803 LINE",
"189 784 LINE"
);
}
);
width = 591;
}
);
note = Ecircumflexdotbelow;
unicode = 1EC6;
},
{
glyphname = Ecircumflexgrave;
lastChange = "2015-10-02 09:32:29 +0000";
layers = (
{
layerId = "F0EF4016-32DD-4ABE-928D-BF0CB1E4FAE8";
name = Light;
paths = (
{
closed = 1;
nodes = (
"537 0 LINE",
"553 175 LINE",
"531 175 LINE",
"526 124 OFFCURVE",
"508 35 OFFCURVE",
"446 35 CURVE SMOOTH",
"181 35 LINE",
"181 665 LINE",
"435 665 LINE SMOOTH",
"505 665 OFFCURVE",
"513 574 OFFCURVE",
"516 533 CURVE",
"538 533 LINE",
"538 700 LINE",
"17 700 LINE",
"17 677 LINE",
"45 677 LINE SMOOTH",
"84 677 OFFCURVE",
"105 667 OFFCURVE",
"105 642 CURVE SMOOTH",
"105 57 LINE SMOOTH",
"105 32 OFFCURVE",
"84 22 OFFCURVE",
"45 22 CURVE SMOOTH",
"17 22 LINE",
"17 0 LINE"
);
},
{
closed = 1;
nodes = (
"443 253 LINE",
"443 486 LINE",
"422 486 LINE",
"418 435 OFFCURVE",
"415 387 OFFCURVE",
"370 387 CURVE SMOOTH",
"151 387 LINE",
"151 352 LINE",
"370 352 LINE SMOOTH",
"415 352 OFFCURVE",
"418 304 OFFCURVE",
"422 253 CURVE"
);
},
{
closed = 1;
nodes = (
"225 906 LINE",
"126 997 LINE",
"117 1006 OFFCURVE",
"103 1019 OFFCURVE",
"86 1019 CURVE SMOOTH",
"69 1019 OFFCURVE",
"59 1006 OFFCURVE",
"59 993 CURVE SMOOTH",
"59 981 OFFCURVE",
"69 967 OFFCURVE",
"88 957 CURVE SMOOTH",
"211 888 LINE"
);
},
{
closed = 1;
nodes = (
"288 862 LINE",
"296 868 OFFCURVE",
"304 874 OFFCURVE",
"310 874 CURVE SMOOTH",
"315 874 OFFCURVE",
"322 870 OFFCURVE",
"329 865 CURVE",
"429 783 LINE",
"446 803 LINE",
"331 921 LINE",
"289 921 LINE",
"174 803 LINE",
"191 783 LINE"
);
}
);
width = 591;
}
);
note = Ecircumflexgrave;
unicode = 1EC0;
},
{
glyphname = Ecircumflexhookabove;
lastChange = "2015-10-02 09:32:28 +0000";
layers = (
{
layerId = "F0EF4016-32DD-4ABE-928D-BF0CB1E4FAE8";
name = Light;
paths = (
{
closed = 1;
nodes = (
"537 0 LINE",
"553 175 LINE",
"531 175 LINE",
"526 124 OFFCURVE",
"508 35 OFFCURVE",
"446 35 CURVE SMOOTH",
"181 35 LINE",
"181 665 LINE",
"435 665 LINE SMOOTH",
"505 665 OFFCURVE",
"513 574 OFFCURVE",
"516 533 CURVE",
"538 533 LINE",
"538 700 LINE",
"17 700 LINE",
"17 677 LINE",
"45 677 LINE SMOOTH",
"84 677 OFFCURVE",
"105 667 OFFCURVE",
"105 642 CURVE SMOOTH",
"105 57 LINE SMOOTH",
"105 32 OFFCURVE",
"84 22 OFFCURVE",
"45 22 CURVE SMOOTH",
"17 22 LINE",
"17 0 LINE"
);
},
{
closed = 1;
nodes = (
"443 253 LINE",
"443 486 LINE",
"422 486 LINE",
"418 435 OFFCURVE",
"415 387 OFFCURVE",
"370 387 CURVE SMOOTH",
"151 387 LINE",
"151 352 LINE",
"370 352 LINE SMOOTH",
"415 352 OFFCURVE",
"418 304 OFFCURVE",
"422 253 CURVE"
);
},
{
closed = 1;
nodes = (
"280 855 LINE",
"290 864 OFFCURVE",
"301 874 OFFCURVE",
"310 874 CURVE SMOOTH",
"315 874 OFFCURVE",
"322 870 OFFCURVE",
"329 865 CURVE",
"429 783 LINE",
"446 803 LINE",
"331 921 LINE",
"289 921 LINE",
"174 803 LINE",
"191 783 LINE"
);
},
{
closed = 1;
nodes = (
"474 890 LINE",
"456 896 OFFCURVE",
"446 900 OFFCURVE",
"446 917 CURVE SMOOTH",
"446 944 OFFCURVE",
"523 954 OFFCURVE",
"523 997 CURVE SMOOTH",
"523 1032 OFFCURVE",
"483 1048 OFFCURVE",
"443 1048 CURVE SMOOTH",
"414 1048 OFFCURVE",
"370 1038 OFFCURVE",
"370 1009 CURVE SMOOTH",
"370 997 OFFCURVE",
"380 989 OFFCURVE",
"390 989 CURVE SMOOTH",
"419 989 OFFCURVE",
"405 1026 OFFCURVE",
"447 1026 CURVE SMOOTH",
"465 1026 OFFCURVE",
"477 1014 OFFCURVE",
"477 1000 CURVE SMOOTH",
"477 962 OFFCURVE",
"406 954 OFFCURVE",
"406 916 CURVE SMOOTH",
"406 893 OFFCURVE",
"422 873 OFFCURVE",
"466 873 CURVE"
);
}
);
width = 591;
}
);
note = Ecircumflexhookabove;
unicode = 1EC2;
},
{
glyphname = Ecircumflextilde;
lastChange = "2015-10-02 09:32:29 +0000";
layers = (
{
layerId = "F0EF4016-32DD-4ABE-928D-BF0CB1E4FAE8";
name = Light;
paths = (
{
closed = 1;
nodes = (
"537 0 LINE",
"553 175 LINE",
"531 175 LINE",
"526 124 OFFCURVE",
"508 35 OFFCURVE",
"446 35 CURVE SMOOTH",
"181 35 LINE",
"181 665 LINE",
"435 665 LINE SMOOTH",
"505 665 OFFCURVE",
"513 574 OFFCURVE",
"516 533 CURVE",
"538 533 LINE",
"538 700 LINE",
"17 700 LINE",
"17 677 LINE",
"45 677 LINE SMOOTH",
"84 677 OFFCURVE",
"105 667 OFFCURVE",
"105 642 CURVE SMOOTH",
"105 57 LINE SMOOTH",
"105 32 OFFCURVE",
"84 22 OFFCURVE",
"45 22 CURVE SMOOTH",
"17 22 LINE",
"17 0 LINE"
);
},
{
closed = 1;
nodes = (
"443 253 LINE",
"443 486 LINE",
"422 486 LINE",
"418 435 OFFCURVE",
"415 387 OFFCURVE",
"370 387 CURVE SMOOTH",
"151 387 LINE",
"151 352 LINE",
"370 352 LINE SMOOTH",
"415 352 OFFCURVE",
"418 304 OFFCURVE",
"422 253 CURVE"
);
},
{
closed = 1;
nodes = (
"288 862 LINE",
"296 868 OFFCURVE",
"304 874 OFFCURVE",
"310 874 CURVE SMOOTH",
"315 874 OFFCURVE",
"322 870 OFFCURVE",
"329 865 CURVE",
"429 783 LINE",
"446 803 LINE",
"331 921 LINE",
"289 921 LINE",
"174 803 LINE",
"191 783 LINE"
);
},
{
closed = 1;
nodes = (
"190 988 OFFCURVE",
"208 1010 OFFCURVE",
"239 1010 CURVE SMOOTH",
"285 1010 OFFCURVE",
"331 954 OFFCURVE",
"378 954 CURVE SMOOTH",
"427 954 OFFCURVE",
"455 995 OFFCURVE",
"466 1048 CURVE",
"447 1058 LINE",
"435 1018 OFFCURVE",
"419 994 OFFCURVE",
"386 994 CURVE SMOOTH",
"342 994 OFFCURVE",
"294 1049 OFFCURVE",
"247 1049 CURVE SMOOTH",
"201 1049 OFFCURVE",
"169 1012 OFFCURVE",
"160 960 CURVE",
"178 949 LINE"
);
}
);
width = 591;
}
);
note = Ecircumflextilde;
unicode = 1EC4;
},
{
glyphname = Edieresis;
lastChange = "2015-10-02 09:32:29 +0000";
layers = (
{
layerId = "F0EF4016-32DD-4ABE-928D-BF0CB1E4FAE8";
name = Light;
paths = (
{
closed = 1;
nodes = (
"537 0 LINE",
"553 175 LINE",
"531 175 LINE",
"526 124 OFFCURVE",
"508 35 OFFCURVE",
"446 35 CURVE SMOOTH",
"181 35 LINE",
"181 665 LINE",
"435 665 LINE SMOOTH",
"505 665 OFFCURVE",
"513 574 OFFCURVE",
"516 533 CURVE",
"538 533 LINE",
"538 700 LINE",
"17 700 LINE",
"17 677 LINE",
"45 677 LINE SMOOTH",
"84 677 OFFCURVE",
"105 667 OFFCURVE",
"105 642 CURVE SMOOTH",
"105 57 LINE SMOOTH",
"105 32 OFFCURVE",
"84 22 OFFCURVE",
"45 22 CURVE SMOOTH",
"17 22 LINE",
"17 0 LINE"
);
},
{
closed = 1;
nodes = (
"443 253 LINE",
"443 486 LINE",
"422 486 LINE",
"418 435 OFFCURVE",
"415 387 OFFCURVE",
"370 387 CURVE SMOOTH",
"151 387 LINE",
"151 352 LINE",
"370 352 LINE SMOOTH",
"415 352 OFFCURVE",
"418 304 OFFCURVE",
"422 253 CURVE"
);
},
{
closed = 1;
nodes = (
"241 782 OFFCURVE",
"257 799 OFFCURVE",
"257 823 CURVE SMOOTH",
"257 848 OFFCURVE",
"241 865 OFFCURVE",
"216 865 CURVE SMOOTH",
"191 865 OFFCURVE",
"175 848 OFFCURVE",
"175 823 CURVE SMOOTH",
"175 799 OFFCURVE",
"191 782 OFFCURVE",
"216 782 CURVE SMOOTH"
);
},
{
closed = 1;
nodes = (
"450 782 OFFCURVE",
"466 799 OFFCURVE",
"466 823 CURVE SMOOTH",
"466 848 OFFCURVE",
"450 865 OFFCURVE",
"425 865 CURVE SMOOTH",
"400 865 OFFCURVE",
"384 848 OFFCURVE",
"384 823 CURVE SMOOTH",
"384 799 OFFCURVE",
"400 782 OFFCURVE",
"425 782 CURVE SMOOTH"
);
}
);
width = 591;
}
);
note = Edieresis;
unicode = 00CB;
},
{
glyphname = Edotaccent;
lastChange = "2015-10-02 09:32:29 +0000";
layers = (
{
layerId = "F0EF4016-32DD-4ABE-928D-BF0CB1E4FAE8";
name = Light;
paths = (
{
closed = 1;
nodes = (
"537 0 LINE",
"553 175 LINE",
"531 175 LINE",
"526 124 OFFCURVE",
"508 35 OFFCURVE",
"446 35 CURVE SMOOTH",
"181 35 LINE",
"181 665 LINE",
"435 665 LINE SMOOTH",
"505 665 OFFCURVE",
"513 574 OFFCURVE",
"516 533 CURVE",
"538 533 LINE",
"538 700 LINE",
"17 700 LINE",
"17 677 LINE",
"45 677 LINE SMOOTH",
"84 677 OFFCURVE",
"105 667 OFFCURVE",
"105 642 CURVE SMOOTH",
"105 57 LINE SMOOTH",
"105 32 OFFCURVE",
"84 22 OFFCURVE",
"45 22 CURVE SMOOTH",
"17 22 LINE",
"17 0 LINE"
);
},
{
closed = 1;
nodes = (
"443 253 LINE",
"443 486 LINE",
"422 486 LINE",
"418 435 OFFCURVE",
"415 387 OFFCURVE",
"370 387 CURVE SMOOTH",
"151 387 LINE",
"151 352 LINE",
"370 352 LINE SMOOTH",
"415 352 OFFCURVE",
"418 304 OFFCURVE",
"422 253 CURVE"
);
},
{
closed = 1;
nodes = (
"345 763 OFFCURVE",
"361 779 OFFCURVE",
"361 804 CURVE SMOOTH",
"361 829 OFFCURVE",
"345 845 OFFCURVE",
"321 845 CURVE SMOOTH",
"296 845 OFFCURVE",
"280 829 OFFCURVE",
"280 804 CURVE SMOOTH",
"280 779 OFFCURVE",
"296 763 OFFCURVE",
"321 763 CURVE SMOOTH"
);
}
);
width = 591;
}
);
note = Edotaccent;
unicode = 0116;
},
{
glyphname = Edotbelow;
lastChange = "2015-10-02 09:32:28 +0000";
layers = (
{
layerId = "F0EF4016-32DD-4ABE-928D-BF0CB1E4FAE8";
name = Light;
paths = (
{
closed = 1;
nodes = (
"537 0 LINE",
"553 175 LINE",
"531 175 LINE",
"526 124 OFFCURVE",
"508 35 OFFCURVE",
"446 35 CURVE SMOOTH",
"181 35 LINE",
"181 665 LINE",
"435 665 LINE SMOOTH",
"505 665 OFFCURVE",
"513 574 OFFCURVE",
"516 533 CURVE",
"538 533 LINE",
"538 700 LINE",
"17 700 LINE",
"17 677 LINE",
"45 677 LINE SMOOTH",
"84 677 OFFCURVE",
"105 667 OFFCURVE",
"105 642 CURVE SMOOTH",
"105 57 LINE SMOOTH",
"105 32 OFFCURVE",
"84 22 OFFCURVE",
"45 22 CURVE SMOOTH",
"17 22 LINE",
"17 0 LINE"
);
},
{
closed = 1;
nodes = (
"334 -147 OFFCURVE",
"350 -131 OFFCURVE",
"350 -106 CURVE SMOOTH",
"350 -81 OFFCURVE",
"334 -64 OFFCURVE",
"309 -64 CURVE SMOOTH",
"285 -64 OFFCURVE",
"268 -81 OFFCURVE",
"268 -106 CURVE SMOOTH",
"268 -131 OFFCURVE",
"285 -147 OFFCURVE",
"309 -147 CURVE SMOOTH"
);
},
{
closed = 1;
nodes = (
"443 253 LINE",
"443 486 LINE",
"422 486 LINE",
"418 435 OFFCURVE",
"415 387 OFFCURVE",
"370 387 CURVE SMOOTH",
"151 387 LINE",
"151 352 LINE",
"370 352 LINE SMOOTH",
"415 352 OFFCURVE",
"418 304 OFFCURVE",
"422 253 CURVE"
);
}
);
width = 591;
}
);
note = Edotbelow;
unicode = 1EB8;
},
{
glyphname = Egrave;
lastChange = "2015-10-02 09:32:28 +0000";
layers = (
{
layerId = "F0EF4016-32DD-4ABE-928D-BF0CB1E4FAE8";
name = Light;
paths = (
{
closed = 1;
nodes = (
"537 0 LINE",
"553 175 LINE",
"531 175 LINE",
"526 124 OFFCURVE",
"508 35 OFFCURVE",
"446 35 CURVE SMOOTH",
"181 35 LINE",
"181 665 LINE",
"435 665 LINE SMOOTH",
"505 665 OFFCURVE",
"513 574 OFFCURVE",
"516 533 CURVE",
"538 533 LINE",
"538 700 LINE",
"17 700 LINE",
"17 677 LINE",
"45 677 LINE SMOOTH",
"84 677 OFFCURVE",
"105 667 OFFCURVE",
"105 642 CURVE SMOOTH",
"105 57 LINE SMOOTH",
"105 32 OFFCURVE",
"84 22 OFFCURVE",
"45 22 CURVE SMOOTH",
"17 22 LINE",
"17 0 LINE"
);
},
{
closed = 1;
nodes = (
"443 253 LINE",
"443 486 LINE",
"422 486 LINE",
"418 435 OFFCURVE",
"415 387 OFFCURVE",
"370 387 CURVE SMOOTH",
"151 387 LINE",
"151 352 LINE",
"370 352 LINE SMOOTH",
"415 352 OFFCURVE",
"418 304 OFFCURVE",
"422 253 CURVE"
);
},
{
closed = 1;
nodes = (
"406 804 LINE",
"294 904 LINE SMOOTH",
"285 912 OFFCURVE",
"271 924 OFFCURVE",
"255 924 CURVE SMOOTH",
"242 924 OFFCURVE",
"229 914 OFFCURVE",
"229 899 CURVE SMOOTH",
"229 884 OFFCURVE",
"242 870 OFFCURVE",
"255 863 CURVE SMOOTH",
"392 784 LINE"
);
}
);
width = 591;
}
);
note = Egrave;
unicode = 00C8;
},
{
glyphname = Ehookabove;
lastChange = "2015-10-02 09:32:28 +0000";
layers = (
{
layerId = "F0EF4016-32DD-4ABE-928D-BF0CB1E4FAE8";
name = Light;
paths = (
{
closed = 1;
nodes = (
"537 0 LINE",
"553 175 LINE",
"531 175 LINE",
"526 124 OFFCURVE",
"508 35 OFFCURVE",
"446 35 CURVE SMOOTH",
"181 35 LINE",
"181 665 LINE",
"435 665 LINE SMOOTH",
"505 665 OFFCURVE",
"513 574 OFFCURVE",
"516 533 CURVE",
"538 533 LINE",
"538 700 LINE",
"17 700 LINE",
"17 677 LINE",
"45 677 LINE SMOOTH",
"84 677 OFFCURVE",
"105 667 OFFCURVE",
"105 642 CURVE SMOOTH",
"105 57 LINE SMOOTH",
"105 32 OFFCURVE",
"84 22 OFFCURVE",
"45 22 CURVE SMOOTH",
"17 22 LINE",
"17 0 LINE"
);
},
{
closed = 1;
nodes = (
"443 253 LINE",
"443 486 LINE",
"422 486 LINE",
"418 435 OFFCURVE",
"415 387 OFFCURVE",
"370 387 CURVE SMOOTH",
"151 387 LINE",
"151 352 LINE",
"370 352 LINE SMOOTH",
"415 352 OFFCURVE",
"418 304 OFFCURVE",
"422 253 CURVE"
);
},
{
closed = 1;
nodes = (
"351 797 LINE",
"332 803 OFFCURVE",
"321 808 OFFCURVE",
"321 826 CURVE SMOOTH",
"321 858 OFFCURVE",
"406 874 OFFCURVE",
"406 923 CURVE SMOOTH",
"406 963 OFFCURVE",
"371 983 OFFCURVE",
"323 983 CURVE SMOOTH",
"278 983 OFFCURVE",
"241 966 OFFCURVE",
"241 935 CURVE SMOOTH",
"241 919 OFFCURVE",
"248 912 OFFCURVE",
"261 912 CURVE SMOOTH",
"280 912 OFFCURVE",
"282 926 OFFCURVE",
"286 937 CURVE SMOOTH",
"291 952 OFFCURVE",
"308 957 OFFCURVE",
"324 957 CURVE SMOOTH",
"348 957 OFFCURVE",
"359 943 OFFCURVE",
"359 926 CURVE SMOOTH",
"359 882 OFFCURVE",
"280 871 OFFCURVE",
"280 826 CURVE SMOOTH",
"280 800 OFFCURVE",
"298 779 OFFCURVE",
"342 779 CURVE"
);
}
);
width = 591;
}
);
note = Ehookabove;
unicode = 1EBA;
},
{
glyphname = Emacron;
lastChange = "2015-10-02 09:32:29 +0000";
layers = (
{
layerId = "F0EF4016-32DD-4ABE-928D-BF0CB1E4FAE8";
name = Light;
paths = (
{
closed = 1;
nodes = (
"537 0 LINE",
"553 175 LINE",
"531 175 LINE",
"526 124 OFFCURVE",
"508 35 OFFCURVE",
"446 35 CURVE SMOOTH",
"181 35 LINE",
"181 665 LINE",
"435 665 LINE SMOOTH",
"505 665 OFFCURVE",
"513 574 OFFCURVE",
"516 533 CURVE",
"538 533 LINE",
"538 700 LINE",
"17 700 LINE",
"17 677 LINE",
"45 677 LINE SMOOTH",
"84 677 OFFCURVE",
"105 667 OFFCURVE",
"105 642 CURVE SMOOTH",
"105 57 LINE SMOOTH",
"105 32 OFFCURVE",
"84 22 OFFCURVE",
"45 22 CURVE SMOOTH",
"17 22 LINE",
"17 0 LINE"
);
},
{
closed = 1;
nodes = (
"443 253 LINE",
"443 486 LINE",
"422 486 LINE",
"418 435 OFFCURVE",
"415 387 OFFCURVE",
"370 387 CURVE SMOOTH",
"151 387 LINE",
"151 352 LINE",
"370 352 LINE SMOOTH",
"415 352 OFFCURVE",
"418 304 OFFCURVE",
"422 253 CURVE"
);
},
{
closed = 1;
nodes = (
"473 784 LINE",
"473 819 LINE",
"160 819 LINE",
"160 784 LINE"
);
}
);
width = 591;
}
);
note = Emacron;
unicode = 0112;
},
{
glyphname = Eogonek;
lastChange = "2015-10-02 09:32:29 +0000";
layers = (
{
layerId = "F0EF4016-32DD-4ABE-928D-BF0CB1E4FAE8";
name = Light;
paths = (
{
closed = 1;
nodes = (
"537 0 LINE",
"553 175 LINE",
"531 175 LINE",
"526 124 OFFCURVE",
"508 35 OFFCURVE",
"446 35 CURVE SMOOTH",
"181 35 LINE",
"181 665 LINE",
"435 665 LINE SMOOTH",
"505 665 OFFCURVE",
"513 574 OFFCURVE",
"516 533 CURVE",
"538 533 LINE",
"538 700 LINE",
"17 700 LINE",
"17 677 LINE",
"45 677 LINE SMOOTH",
"84 677 OFFCURVE",
"105 667 OFFCURVE",
"105 642 CURVE SMOOTH",
"105 57 LINE SMOOTH",
"105 32 OFFCURVE",
"84 22 OFFCURVE",
"45 22 CURVE SMOOTH",
"17 22 LINE",
"17 0 LINE"
);
},
{
closed = 1;
nodes = (
"480 -186 OFFCURVE",
"503 -180 OFFCURVE",
"527 -167 CURVE",
"523 -148 LINE",
"507 -154 OFFCURVE",
"491 -157 OFFCURVE",
"478 -157 CURVE SMOOTH",
"446 -157 OFFCURVE",
"418 -142 OFFCURVE",
"418 -103 CURVE SMOOTH",
"418 -63 OFFCURVE",
"446 -24 OFFCURVE",
"490 3 CURVE",
"454 3 LINE",
"404 -21 OFFCURVE",
"368 -61 OFFCURVE",
"368 -109 CURVE SMOOTH",
"368 -141 OFFCURVE",
"387 -186 OFFCURVE",
"456 -186 CURVE SMOOTH"
);
},
{
closed = 1;
nodes = (
"443 253 LINE",
"443 486 LINE",
"422 486 LINE",
"418 435 OFFCURVE",
"415 387 OFFCURVE",
"370 387 CURVE SMOOTH",
"151 387 LINE",
"151 352 LINE",
"370 352 LINE SMOOTH",
"415 352 OFFCURVE",
"418 304 OFFCURVE",
"422 253 CURVE"
);
}
);
width = 591;
}
);
note = Eogonek;
unicode = 0118;
},
{
glyphname = Etilde;
lastChange = "2015-10-02 09:32:29 +0000";
layers = (
{
layerId = "F0EF4016-32DD-4ABE-928D-BF0CB1E4FAE8";
name = Light;
paths = (
{
closed = 1;
nodes = (
"537 0 LINE",
"553 175 LINE",
"531 175 LINE",
"526 124 OFFCURVE",
"508 35 OFFCURVE",
"446 35 CURVE SMOOTH",
"181 35 LINE",
"181 665 LINE",
"435 665 LINE SMOOTH",
"505 665 OFFCURVE",
"513 574 OFFCURVE",
"516 533 CURVE",
"538 533 LINE",
"538 700 LINE",
"17 700 LINE",
"17 677 LINE",
"45 677 LINE SMOOTH",
"84 677 OFFCURVE",
"105 667 OFFCURVE",
"105 642 CURVE SMOOTH",
"105 57 LINE SMOOTH",
"105 32 OFFCURVE",
"84 22 OFFCURVE",
"45 22 CURVE SMOOTH",
"17 22 LINE",
"17 0 LINE"
);
},
{
closed = 1;
nodes = (
"443 253 LINE",
"443 486 LINE",
"422 486 LINE",
"418 435 OFFCURVE",
"415 387 OFFCURVE",
"370 387 CURVE SMOOTH",
"151 387 LINE",
"151 352 LINE",
"370 352 LINE SMOOTH",
"415 352 OFFCURVE",
"418 304 OFFCURVE",
"422 253 CURVE"
);
},
{
closed = 1;
nodes = (
"185 819 OFFCURVE",
"203 841 OFFCURVE",
"235 841 CURVE SMOOTH",
"282 841 OFFCURVE",
"330 785 OFFCURVE",
"378 785 CURVE SMOOTH",
"430 785 OFFCURVE",
"459 826 OFFCURVE",
"470 879 CURVE",
"451 889 LINE",
"437 849 OFFCURVE",
"421 826 OFFCURVE",
"388 826 CURVE SMOOTH",
"342 826 OFFCURVE",
"292 881 OFFCURVE",
"243 881 CURVE SMOOTH",
"195 881 OFFCURVE",
"163 844 OFFCURVE",
"153 791 CURVE",
"172 781 LINE"
);
}
);
width = 591;
}
);
note = Etilde;
unicode = 1EBC;
},
{
glyphname = F;
lastChange = "2015-10-02 09:32:28 +0000";
layers = (
{
layerId = "F0EF4016-32DD-4ABE-928D-BF0CB1E4FAE8";
name = Light;
paths = (
{
closed = 1;
nodes = (
"268 0 LINE",
"268 22 LINE",
"240 22 LINE SMOOTH",
"201 22 OFFCURVE",
"181 32 OFFCURVE",
"181 57 CURVE SMOOTH",
"181 665 LINE",
"435 665 LINE SMOOTH",
"505 665 OFFCURVE",
"513 574 OFFCURVE",
"516 533 CURVE",
"538 533 LINE",
"538 700 LINE",
"17 700 LINE",
"17 677 LINE",
"46 677 LINE SMOOTH",
"84 677 OFFCURVE",
"105 667 OFFCURVE",
"105 642 CURVE SMOOTH",
"105 57 LINE SMOOTH",
"105 32 OFFCURVE",
"84 22 OFFCURVE",
"46 22 CURVE SMOOTH",
"17 22 LINE",
"17 0 LINE"
);
},
{
closed = 1;
nodes = (
"425 227 LINE",
"425 460 LINE",
"404 460 LINE",
"400 409 OFFCURVE",
"397 361 OFFCURVE",
"352 361 CURVE SMOOTH",
"152 361 LINE",
"152 326 LINE",
"352 326 LINE SMOOTH",
"397 326 OFFCURVE",
"400 278 OFFCURVE",
"404 227 CURVE"
);
}
);
width = 559;
}
);
note = F;
unicode = 0046;
},
{
glyphname = G;
lastChange = "2015-10-02 09:32:27 +0000";
layers = (
{
layerId = "F0EF4016-32DD-4ABE-928D-BF0CB1E4FAE8";
name = Light;
paths = (
{
closed = 1;
nodes = (
"498 -10 OFFCURVE",
"571 24 OFFCURVE",
"630 70 CURVE",
"630 244 LINE SMOOTH",
"630 316 OFFCURVE",
"636 333 OFFCURVE",
"681 333 CURVE SMOOTH",
"689 333 LINE",
"689 351 LINE",
"460 351 LINE",
"460 331 LINE",
"518 330 OFFCURVE",
"557 321 OFFCURVE",
"557 281 CURVE SMOOTH",
"557 79 LINE",
"507 35 OFFCURVE",
"427 25 OFFCURVE",
"378 25 CURVE SMOOTH",
"200 25 OFFCURVE",
"121 158 OFFCURVE",
"121 350 CURVE SMOOTH",
"121 543 OFFCURVE",
"213 674 OFFCURVE",
"388 674 CURVE SMOOTH",
"495 674 OFFCURVE",
"581 617 OFFCURVE",
"592 519 CURVE",
"616 519 LINE",
"616 705 LINE",
"585 705 LINE",
"585 662 LINE SMOOTH",
"585 655 OFFCURVE",
"583 646 OFFCURVE",
"576 646 CURVE SMOOTH",
"572 646 OFFCURVE",
"567 648 OFFCURVE",
"565 650 CURVE",
"531 679 OFFCURVE",
"457 710 OFFCURVE",
"376 710 CURVE SMOOTH",
"169 710 OFFCURVE",
"45 577 OFFCURVE",
"45 350 CURVE SMOOTH",
"45 122 OFFCURVE",
"159 -10 OFFCURVE",
"365 -10 CURVE SMOOTH"
);
}
);
width = 698;
}
);
leftKerningGroup = G;
note = G;
unicode = 0047;
},
{
glyphname = Gbreve;
lastChange = "2015-10-02 09:32:29 +0000";
layers = (
{
layerId = "F0EF4016-32DD-4ABE-928D-BF0CB1E4FAE8";
name = Light;
paths = (
{
closed = 1;
nodes = (
"498 -10 OFFCURVE",
"571 24 OFFCURVE",
"630 70 CURVE",
"630 244 LINE SMOOTH",
"630 316 OFFCURVE",
"636 333 OFFCURVE",
"681 333 CURVE SMOOTH",
"689 333 LINE",
"689 351 LINE",
"460 351 LINE",
"460 331 LINE",
"518 330 OFFCURVE",
"557 321 OFFCURVE",
"557 281 CURVE SMOOTH",
"557 79 LINE",
"507 35 OFFCURVE",
"427 25 OFFCURVE",
"378 25 CURVE SMOOTH",
"200 25 OFFCURVE",
"121 158 OFFCURVE",
"121 350 CURVE SMOOTH",
"121 543 OFFCURVE",
"213 674 OFFCURVE",
"388 674 CURVE SMOOTH",
"495 674 OFFCURVE",
"581 617 OFFCURVE",
"592 519 CURVE",
"616 519 LINE",
"616 705 LINE",
"585 705 LINE",
"585 662 LINE SMOOTH",
"585 655 OFFCURVE",
"583 646 OFFCURVE",
"576 646 CURVE SMOOTH",
"572 646 OFFCURVE",
"567 648 OFFCURVE",
"565 650 CURVE",
"531 679 OFFCURVE",
"457 710 OFFCURVE",
"376 710 CURVE SMOOTH",
"169 710 OFFCURVE",
"45 577 OFFCURVE",
"45 350 CURVE SMOOTH",
"45 122 OFFCURVE",
"159 -10 OFFCURVE",
"365 -10 CURVE SMOOTH"
);
},
{
closed = 1;
nodes = (
"467 797 OFFCURVE",
"512 846 OFFCURVE",
"517 922 CURVE",
"486 922 LINE",
"479 856 OFFCURVE",
"433 836 OFFCURVE",
"377 836 CURVE SMOOTH",
"321 836 OFFCURVE",
"274 856 OFFCURVE",
"266 922 CURVE",
"236 922 LINE",
"240 844 OFFCURVE",
"286 797 OFFCURVE",
"377 797 CURVE SMOOTH"
);
}
);
width = 698;
}
);
leftKerningGroup = G;
note = Gbreve;
unicode = 011E;
},
{
glyphname = Gcaron;
lastChange = "2015-10-02 09:32:29 +0000";
layers = (
{
layerId = "F0EF4016-32DD-4ABE-928D-BF0CB1E4FAE8";
name = Light;
paths = (
{
closed = 1;
nodes = (
"498 -10 OFFCURVE",
"571 24 OFFCURVE",
"630 70 CURVE",
"630 244 LINE SMOOTH",
"630 316 OFFCURVE",
"636 333 OFFCURVE",
"681 333 CURVE SMOOTH",
"689 333 LINE",
"689 351 LINE",
"460 351 LINE",
"460 331 LINE",
"518 330 OFFCURVE",
"557 321 OFFCURVE",
"557 281 CURVE SMOOTH",
"557 79 LINE",
"507 35 OFFCURVE",
"427 25 OFFCURVE",
"378 25 CURVE SMOOTH",
"200 25 OFFCURVE",
"121 158 OFFCURVE",
"121 350 CURVE SMOOTH",
"121 543 OFFCURVE",
"213 674 OFFCURVE",
"388 674 CURVE SMOOTH",
"495 674 OFFCURVE",
"581 617 OFFCURVE",
"592 519 CURVE",
"616 519 LINE",
"616 705 LINE",
"585 705 LINE",
"585 662 LINE SMOOTH",
"585 655 OFFCURVE",
"583 646 OFFCURVE",
"576 646 CURVE SMOOTH",
"572 646 OFFCURVE",
"567 648 OFFCURVE",
"565 650 CURVE",
"531 679 OFFCURVE",
"457 710 OFFCURVE",
"376 710 CURVE SMOOTH",
"169 710 OFFCURVE",
"45 577 OFFCURVE",
"45 350 CURVE SMOOTH",
"45 122 OFFCURVE",
"159 -10 OFFCURVE",
"365 -10 CURVE SMOOTH"
);
},
{
closed = 1;
nodes = (
"412 784 LINE",
"529 902 LINE",
"511 921 LINE",
"410 839 LINE",
"403 834 OFFCURVE",
"396 830 OFFCURVE",
"391 830 CURVE SMOOTH",
"386 830 OFFCURVE",
"380 832 OFFCURVE",
"371 839 CURVE SMOOTH",
"270 921 LINE",
"253 902 LINE",
"369 784 LINE"
);
}
);
width = 698;
}
);
leftKerningGroup = G;
note = Gcaron;
unicode = 01E6;
},
{
glyphname = Gcircumflex;
lastChange = "2015-10-02 09:32:28 +0000";
layers = (
{
layerId = "F0EF4016-32DD-4ABE-928D-BF0CB1E4FAE8";
name = Light;
paths = (
{
closed = 1;
nodes = (
"498 -10 OFFCURVE",
"571 24 OFFCURVE",
"630 70 CURVE",
"630 244 LINE SMOOTH",
"630 316 OFFCURVE",
"636 333 OFFCURVE",
"681 333 CURVE SMOOTH",
"689 333 LINE",
"689 351 LINE",
"460 351 LINE",
"460 331 LINE",
"518 330 OFFCURVE",
"557 321 OFFCURVE",
"557 281 CURVE SMOOTH",
"557 79 LINE",
"507 35 OFFCURVE",
"427 25 OFFCURVE",
"378 25 CURVE SMOOTH",
"200 25 OFFCURVE",
"121 158 OFFCURVE",
"121 350 CURVE SMOOTH",
"121 543 OFFCURVE",
"213 674 OFFCURVE",
"388 674 CURVE SMOOTH",
"495 674 OFFCURVE",
"581 617 OFFCURVE",
"592 519 CURVE",
"616 519 LINE",
"616 705 LINE",
"585 705 LINE",
"585 662 LINE SMOOTH",
"585 655 OFFCURVE",
"583 646 OFFCURVE",
"576 646 CURVE SMOOTH",
"572 646 OFFCURVE",
"567 648 OFFCURVE",
"565 650 CURVE",
"531 679 OFFCURVE",
"457 710 OFFCURVE",
"376 710 CURVE SMOOTH",
"169 710 OFFCURVE",
"45 577 OFFCURVE",
"45 350 CURVE SMOOTH",
"45 122 OFFCURVE",
"159 -10 OFFCURVE",
"365 -10 CURVE SMOOTH"
);
},
{
closed = 1;
nodes = (
"360 887 LINE",
"367 892 OFFCURVE",
"375 896 OFFCURVE",
"380 896 CURVE SMOOTH",
"385 896 OFFCURVE",
"392 892 OFFCURVE",
"399 887 CURVE",
"500 805 LINE",
"518 824 LINE",
"401 942 LINE",
"358 942 LINE",
"242 824 LINE",
"259 805 LINE"
);
}
);
width = 698;
}
);
leftKerningGroup = G;
note = Gcircumflex;
unicode = 011C;
},
{
glyphname = Gcommaaccent;
lastChange = "2015-10-02 09:32:29 +0000";
layers = (
{
layerId = "F0EF4016-32DD-4ABE-928D-BF0CB1E4FAE8";
name = Light;
paths = (
{
closed = 1;
nodes = (
"498 -10 OFFCURVE",
"571 24 OFFCURVE",
"630 70 CURVE",
"630 244 LINE SMOOTH",
"630 316 OFFCURVE",
"636 333 OFFCURVE",
"681 333 CURVE SMOOTH",
"689 333 LINE",
"689 351 LINE",
"460 351 LINE",
"460 331 LINE",
"518 330 OFFCURVE",
"557 321 OFFCURVE",
"557 281 CURVE SMOOTH",
"557 79 LINE",
"507 35 OFFCURVE",
"427 25 OFFCURVE",
"378 25 CURVE SMOOTH",
"200 25 OFFCURVE",
"121 158 OFFCURVE",
"121 350 CURVE SMOOTH",
"121 543 OFFCURVE",
"213 674 OFFCURVE",
"388 674 CURVE SMOOTH",
"495 674 OFFCURVE",
"581 617 OFFCURVE",
"592 519 CURVE",
"616 519 LINE",
"616 705 LINE",
"585 705 LINE",
"585 662 LINE SMOOTH",
"585 655 OFFCURVE",
"583 646 OFFCURVE",
"576 646 CURVE SMOOTH",
"572 646 OFFCURVE",
"567 648 OFFCURVE",
"565 650 CURVE",
"531 679 OFFCURVE",
"457 710 OFFCURVE",
"376 710 CURVE SMOOTH",
"169 710 OFFCURVE",
"45 577 OFFCURVE",
"45 350 CURVE SMOOTH",
"45 122 OFFCURVE",
"159 -10 OFFCURVE",
"365 -10 CURVE SMOOTH"
);
},
{
closed = 1;
nodes = (
"393 -237 OFFCURVE",
"429 -182 OFFCURVE",
"429 -124 CURVE SMOOTH",
"429 -80 OFFCURVE",
"408 -65 OFFCURVE",
"384 -65 CURVE SMOOTH",
"359 -65 OFFCURVE",
"345 -82 OFFCURVE",
"345 -104 CURVE SMOOTH",
"345 -135 OFFCURVE",
"377 -140 OFFCURVE",
"377 -173 CURVE SMOOTH",
"377 -207 OFFCURVE",
"351 -238 OFFCURVE",
"326 -262 CURVE",
"340 -277 LINE"
);
}
);
width = 698;
}
);
leftKerningGroup = G;
note = Gcommaaccent;
unicode = 0122;
},
{
glyphname = Gdotaccent;
lastChange = "2015-10-02 09:32:29 +0000";
layers = (
{
layerId = "F0EF4016-32DD-4ABE-928D-BF0CB1E4FAE8";
name = Light;
paths = (
{
closed = 1;
nodes = (
"498 -10 OFFCURVE",
"571 24 OFFCURVE",
"630 70 CURVE",
"630 244 LINE SMOOTH",
"630 316 OFFCURVE",
"636 333 OFFCURVE",
"681 333 CURVE SMOOTH",
"689 333 LINE",
"689 351 LINE",
"460 351 LINE",
"460 331 LINE",
"518 330 OFFCURVE",
"557 321 OFFCURVE",
"557 281 CURVE SMOOTH",
"557 79 LINE",
"507 35 OFFCURVE",
"427 25 OFFCURVE",
"378 25 CURVE SMOOTH",
"200 25 OFFCURVE",
"121 158 OFFCURVE",
"121 350 CURVE SMOOTH",
"121 543 OFFCURVE",
"213 674 OFFCURVE",
"388 674 CURVE SMOOTH",
"495 674 OFFCURVE",
"581 617 OFFCURVE",
"592 519 CURVE",
"616 519 LINE",
"616 705 LINE",
"585 705 LINE",
"585 662 LINE SMOOTH",
"585 655 OFFCURVE",
"583 646 OFFCURVE",
"576 646 CURVE SMOOTH",
"572 646 OFFCURVE",
"567 648 OFFCURVE",
"565 650 CURVE",
"531 679 OFFCURVE",
"457 710 OFFCURVE",
"376 710 CURVE SMOOTH",
"169 710 OFFCURVE",
"45 577 OFFCURVE",
"45 350 CURVE SMOOTH",
"45 122 OFFCURVE",
"159 -10 OFFCURVE",
"365 -10 CURVE SMOOTH"
);
},
{
closed = 1;
nodes = (
"396 784 OFFCURVE",
"412 800 OFFCURVE",
"412 825 CURVE SMOOTH",
"412 850 OFFCURVE",
"396 866 OFFCURVE",
"372 866 CURVE SMOOTH",
"347 866 OFFCURVE",
"331 850 OFFCURVE",
"331 825 CURVE SMOOTH",
"331 800 OFFCURVE",
"347 784 OFFCURVE",
"372 784 CURVE SMOOTH"
);
}
);
width = 698;
}
);
leftKerningGroup = G;
note = Gdotaccent;
unicode = 0120;
},
{
glyphname = Gmacron;
lastChange = "2015-10-02 09:32:29 +0000";
layers = (
{
layerId = "F0EF4016-32DD-4ABE-928D-BF0CB1E4FAE8";
name = Light;
paths = (
{
closed = 1;
nodes = (
"498 -10 OFFCURVE",
"571 24 OFFCURVE",
"630 70 CURVE",
"630 244 LINE SMOOTH",
"630 316 OFFCURVE",
"636 333 OFFCURVE",
"681 333 CURVE SMOOTH",
"689 333 LINE",
"689 351 LINE",
"460 351 LINE",
"460 331 LINE",
"518 330 OFFCURVE",
"557 321 OFFCURVE",
"557 281 CURVE SMOOTH",
"557 79 LINE",
"507 35 OFFCURVE",
"427 25 OFFCURVE",
"378 25 CURVE SMOOTH",
"200 25 OFFCURVE",
"121 158 OFFCURVE",
"121 350 CURVE SMOOTH",
"121 543 OFFCURVE",
"213 674 OFFCURVE",
"388 674 CURVE SMOOTH",
"495 674 OFFCURVE",
"581 617 OFFCURVE",
"592 519 CURVE",
"616 519 LINE",
"616 705 LINE",
"585 705 LINE",
"585 662 LINE SMOOTH",
"585 655 OFFCURVE",
"583 646 OFFCURVE",
"576 646 CURVE SMOOTH",
"572 646 OFFCURVE",
"567 648 OFFCURVE",
"565 650 CURVE",
"531 679 OFFCURVE",
"457 710 OFFCURVE",
"376 710 CURVE SMOOTH",
"169 710 OFFCURVE",
"45 577 OFFCURVE",
"45 350 CURVE SMOOTH",
"45 122 OFFCURVE",
"159 -10 OFFCURVE",
"365 -10 CURVE SMOOTH"
);
},
{
closed = 1;
nodes = (
"527 789 LINE",
"527 824 LINE",
"214 824 LINE",
"214 789 LINE"
);
}
);
width = 698;
}
);
leftKerningGroup = G;
note = Gmacron;
unicode = 1E20;
},
{
glyphname = H;
lastChange = "2015-10-02 09:32:29 +0000";
layers = (
{
layerId = "F0EF4016-32DD-4ABE-928D-BF0CB1E4FAE8";
name = Light;
paths = (
{
closed = 1;
nodes = (
"732 0 LINE",
"732 22 LINE",
"704 22 LINE SMOOTH",
"665 22 OFFCURVE",
"645 32 OFFCURVE",
"645 57 CURVE SMOOTH",
"645 642 LINE SMOOTH",
"645 667 OFFCURVE",
"665 677 OFFCURVE",
"704 677 CURVE SMOOTH",
"732 677 LINE",
"732 700 LINE",
"481 700 LINE",
"481 677 LINE",
"509 677 LINE SMOOTH",
"548 677 OFFCURVE",
"569 667 OFFCURVE",
"569 642 CURVE SMOOTH",
"569 57 LINE SMOOTH",
"569 32 OFFCURVE",
"548 22 OFFCURVE",
"509 22 CURVE SMOOTH",
"481 22 LINE",
"481 0 LINE"
);
},
{
closed = 1;
nodes = (
"276 0 LINE",
"276 22 LINE",
"247 22 LINE SMOOTH",
"209 22 OFFCURVE",
"188 32 OFFCURVE",
"188 57 CURVE SMOOTH",
"188 642 LINE SMOOTH",
"188 667 OFFCURVE",
"209 677 OFFCURVE",
"247 677 CURVE SMOOTH",
"276 677 LINE",
"276 700 LINE",
"25 700 LINE",
"25 677 LINE",
"53 677 LINE SMOOTH",
"92 677 OFFCURVE",
"112 667 OFFCURVE",
"112 642 CURVE SMOOTH",
"112 57 LINE SMOOTH",
"112 32 OFFCURVE",
"92 22 OFFCURVE",
"53 22 CURVE SMOOTH",
"25 22 LINE",
"25 0 LINE"
);
},
{
closed = 1;
nodes = (
"605 354 LINE",
"605 389 LINE",
"150 389 LINE",
"150 354 LINE"
);
}
);
width = 757;
}
);
note = H;
unicode = 0048;
},
{
glyphname = Hbar;
lastChange = "2015-10-02 09:32:29 +0000";
layers = (
{
layerId = "F0EF4016-32DD-4ABE-928D-BF0CB1E4FAE8";
name = Light;
paths = (
{
closed = 1;
nodes = (
"732 0 LINE",
"732 22 LINE",
"704 22 LINE SMOOTH",
"665 22 OFFCURVE",
"645 32 OFFCURVE",
"645 57 CURVE SMOOTH",
"645 642 LINE SMOOTH",
"645 667 OFFCURVE",
"665 677 OFFCURVE",
"704 677 CURVE SMOOTH",
"732 677 LINE",
"732 700 LINE",
"481 700 LINE",
"481 677 LINE",
"509 677 LINE SMOOTH",
"548 677 OFFCURVE",
"569 667 OFFCURVE",
"569 642 CURVE SMOOTH",
"569 57 LINE SMOOTH",
"569 32 OFFCURVE",
"548 22 OFFCURVE",
"509 22 CURVE SMOOTH",
"481 22 LINE",
"481 0 LINE"
);
},
{
closed = 1;
nodes = (
"276 0 LINE",
"276 22 LINE",
"247 22 LINE SMOOTH",
"209 22 OFFCURVE",
"188 32 OFFCURVE",
"188 57 CURVE SMOOTH",
"188 642 LINE SMOOTH",
"188 667 OFFCURVE",
"209 677 OFFCURVE",
"247 677 CURVE SMOOTH",
"276 677 LINE",
"276 700 LINE",
"25 700 LINE",
"25 677 LINE",
"53 677 LINE SMOOTH",
"92 677 OFFCURVE",
"112 667 OFFCURVE",
"112 642 CURVE SMOOTH",
"112 57 LINE SMOOTH",
"112 32 OFFCURVE",
"92 22 OFFCURVE",
"53 22 CURVE SMOOTH",
"25 22 LINE",
"25 0 LINE"
);
},
{
closed = 1;
nodes = (
"605 354 LINE",
"605 389 LINE",
"150 389 LINE",
"150 354 LINE"
);
},
{
closed = 1;
nodes = (
"698 509 LINE",
"698 544 LINE",
"45 544 LINE",
"45 509 LINE"
);
}
);
width = 757;
}
);
note = Hbar;
unicode = 0126;
},
{
glyphname = Hbrevebelow;
lastChange = "2015-10-02 09:32:28 +0000";
layers = (
{
layerId = "F0EF4016-32DD-4ABE-928D-BF0CB1E4FAE8";
name = Light;
paths = (
{
closed = 1;
nodes = (
"732 0 LINE",
"732 22 LINE",
"704 22 LINE SMOOTH",
"665 22 OFFCURVE",
"645 32 OFFCURVE",
"645 57 CURVE SMOOTH",
"645 642 LINE SMOOTH",
"645 667 OFFCURVE",
"665 677 OFFCURVE",
"704 677 CURVE SMOOTH",
"732 677 LINE",
"732 700 LINE",
"481 700 LINE",
"481 677 LINE",
"509 677 LINE SMOOTH",
"548 677 OFFCURVE",
"569 667 OFFCURVE",
"569 642 CURVE SMOOTH",
"569 57 LINE SMOOTH",
"569 32 OFFCURVE",
"548 22 OFFCURVE",
"509 22 CURVE SMOOTH",
"481 22 LINE",
"481 0 LINE"
);
},
{
closed = 1;
nodes = (
"467 -177 OFFCURVE",
"512 -129 OFFCURVE",
"517 -53 CURVE",
"486 -53 LINE",
"479 -118 OFFCURVE",
"433 -138 OFFCURVE",
"377 -138 CURVE SMOOTH",
"321 -138 OFFCURVE",
"274 -118 OFFCURVE",
"266 -53 CURVE",
"236 -53 LINE",
"240 -130 OFFCURVE",
"286 -177 OFFCURVE",
"377 -177 CURVE SMOOTH"
);
},
{
closed = 1;
nodes = (
"276 0 LINE",
"276 22 LINE",
"247 22 LINE SMOOTH",
"209 22 OFFCURVE",
"188 32 OFFCURVE",
"188 57 CURVE SMOOTH",
"188 642 LINE SMOOTH",
"188 667 OFFCURVE",
"209 677 OFFCURVE",
"247 677 CURVE SMOOTH",
"276 677 LINE",
"276 700 LINE",
"25 700 LINE",
"25 677 LINE",
"53 677 LINE SMOOTH",
"92 677 OFFCURVE",
"112 667 OFFCURVE",
"112 642 CURVE SMOOTH",
"112 57 LINE SMOOTH",
"112 32 OFFCURVE",
"92 22 OFFCURVE",
"53 22 CURVE SMOOTH",
"25 22 LINE",
"25 0 LINE"
);
},
{
closed = 1;
nodes = (
"605 354 LINE",
"605 389 LINE",
"150 389 LINE",
"150 354 LINE"
);
}
);
width = 757;
}
);
note = Hbrevebelow;
unicode = 1E2A;
},
{
glyphname = Hcircumflex;
lastChange = "2015-10-02 09:32:28 +0000";
layers = (
{
layerId = "F0EF4016-32DD-4ABE-928D-BF0CB1E4FAE8";
name = Light;
paths = (
{
closed = 1;
nodes = (
"732 0 LINE",
"732 22 LINE",
"704 22 LINE SMOOTH",
"665 22 OFFCURVE",
"645 32 OFFCURVE",
"645 57 CURVE SMOOTH",
"645 642 LINE SMOOTH",
"645 667 OFFCURVE",
"665 677 OFFCURVE",
"704 677 CURVE SMOOTH",
"732 677 LINE",
"732 700 LINE",
"481 700 LINE",
"481 677 LINE",
"509 677 LINE SMOOTH",
"548 677 OFFCURVE",
"569 667 OFFCURVE",
"569 642 CURVE SMOOTH",
"569 57 LINE SMOOTH",
"569 32 OFFCURVE",
"548 22 OFFCURVE",
"509 22 CURVE SMOOTH",
"481 22 LINE",
"481 0 LINE"
);
},
{
closed = 1;
nodes = (
"276 0 LINE",
"276 22 LINE",
"247 22 LINE SMOOTH",
"209 22 OFFCURVE",
"188 32 OFFCURVE",
"188 57 CURVE SMOOTH",
"188 642 LINE SMOOTH",
"188 667 OFFCURVE",
"209 677 OFFCURVE",
"247 677 CURVE SMOOTH",
"276 677 LINE",
"276 700 LINE",
"25 700 LINE",
"25 677 LINE",
"53 677 LINE SMOOTH",
"92 677 OFFCURVE",
"112 667 OFFCURVE",
"112 642 CURVE SMOOTH",
"112 57 LINE SMOOTH",
"112 32 OFFCURVE",
"92 22 OFFCURVE",
"53 22 CURVE SMOOTH",
"25 22 LINE",
"25 0 LINE"
);
},
{
closed = 1;
nodes = (
"605 354 LINE",
"605 389 LINE",
"150 389 LINE",
"150 354 LINE"
);
},
{
closed = 1;
nodes = (
"358 866 LINE",
"365 871 OFFCURVE",
"373 875 OFFCURVE",
"378 875 CURVE SMOOTH",
"383 875 OFFCURVE",
"390 871 OFFCURVE",
"397 866 CURVE",
"498 784 LINE",
"516 803 LINE",
"399 921 LINE",
"356 921 LINE",
"240 803 LINE",
"257 784 LINE"
);
}
);
width = 757;
}
);
note = Hcircumflex;
unicode = 0124;
},
{
glyphname = Hdotbelow;
lastChange = "2015-10-02 09:32:28 +0000";
layers = (
{
layerId = "F0EF4016-32DD-4ABE-928D-BF0CB1E4FAE8";
name = Light;
paths = (
{
closed = 1;
nodes = (
"732 0 LINE",
"732 22 LINE",
"704 22 LINE SMOOTH",
"665 22 OFFCURVE",
"645 32 OFFCURVE",
"645 57 CURVE SMOOTH",
"645 642 LINE SMOOTH",
"645 667 OFFCURVE",
"665 677 OFFCURVE",
"704 677 CURVE SMOOTH",
"732 677 LINE",
"732 700 LINE",
"481 700 LINE",
"481 677 LINE",
"509 677 LINE SMOOTH",
"548 677 OFFCURVE",
"569 667 OFFCURVE",
"569 642 CURVE SMOOTH",
"569 57 LINE SMOOTH",
"569 32 OFFCURVE",
"548 22 OFFCURVE",
"509 22 CURVE SMOOTH",
"481 22 LINE",
"481 0 LINE"
);
},
{
closed = 1;
nodes = (
"402 -147 OFFCURVE",
"418 -131 OFFCURVE",
"418 -106 CURVE SMOOTH",
"418 -81 OFFCURVE",
"402 -64 OFFCURVE",
"377 -64 CURVE SMOOTH",
"353 -64 OFFCURVE",
"336 -81 OFFCURVE",
"336 -106 CURVE SMOOTH",
"336 -131 OFFCURVE",
"353 -147 OFFCURVE",
"377 -147 CURVE SMOOTH"
);
},
{
closed = 1;
nodes = (
"276 0 LINE",
"276 22 LINE",
"247 22 LINE SMOOTH",
"209 22 OFFCURVE",
"188 32 OFFCURVE",
"188 57 CURVE SMOOTH",
"188 642 LINE SMOOTH",
"188 667 OFFCURVE",
"209 677 OFFCURVE",
"247 677 CURVE SMOOTH",
"276 677 LINE",
"276 700 LINE",
"25 700 LINE",
"25 677 LINE",
"53 677 LINE SMOOTH",
"92 677 OFFCURVE",
"112 667 OFFCURVE",
"112 642 CURVE SMOOTH",
"112 57 LINE SMOOTH",
"112 32 OFFCURVE",
"92 22 OFFCURVE",
"53 22 CURVE SMOOTH",
"25 22 LINE",
"25 0 LINE"
);
},
{
closed = 1;
nodes = (
"605 354 LINE",
"605 389 LINE",
"150 389 LINE",
"150 354 LINE"
);
}
);
width = 757;
}
);
note = Hdotbelow;
unicode = 1E24;
},
{
glyphname = I;
lastChange = "2015-10-02 09:32:27 +0000";
layers = (
{
layerId = "F0EF4016-32DD-4ABE-928D-BF0CB1E4FAE8";
name = Light;
paths = (
{
closed = 1;
nodes = (
"279 0 LINE",
"279 22 LINE",
"251 22 LINE SMOOTH",
"212 22 OFFCURVE",
"192 32 OFFCURVE",
"192 57 CURVE SMOOTH",
"192 642 LINE SMOOTH",
"192 667 OFFCURVE",
"212 677 OFFCURVE",
"251 677 CURVE SMOOTH",
"279 677 LINE",
"279 700 LINE",
"28 700 LINE",
"28 677 LINE",
"57 677 LINE SMOOTH",
"95 677 OFFCURVE",
"116 667 OFFCURVE",
"116 642 CURVE SMOOTH",
"116 57 LINE SMOOTH",
"116 32 OFFCURVE",
"95 22 OFFCURVE",
"57 22 CURVE SMOOTH",
"28 22 LINE",
"28 0 LINE"
);
}
);
width = 307;
}
);
note = I;
unicode = 0049;
},
{
glyphname = IJ;
lastChange = "2015-10-02 09:32:28 +0000";
layers = (
{
layerId = "F0EF4016-32DD-4ABE-928D-BF0CB1E4FAE8";
name = Light;
paths = (
{
closed = 1;
nodes = (
"439 -114 OFFCURVE",
"519 -46 OFFCURVE",
"519 79 CURVE SMOOTH",
"519 642 LINE SMOOTH",
"519 667 OFFCURVE",
"540 677 OFFCURVE",
"578 677 CURVE SMOOTH",
"607 677 LINE",
"607 700 LINE",
"356 700 LINE",
"356 677 LINE",
"384 677 LINE SMOOTH",
"423 677 OFFCURVE",
"443 667 OFFCURVE",
"443 642 CURVE SMOOTH",
"443 79 LINE SMOOTH",
"443 -17 OFFCURVE",
"398 -80 OFFCURVE",
"317 -95 CURVE",
"321 -114 LINE"
);
},
{
closed = 1;
nodes = (
"279 0 LINE",
"279 22 LINE",
"251 22 LINE SMOOTH",
"212 22 OFFCURVE",
"192 32 OFFCURVE",
"192 57 CURVE SMOOTH",
"192 642 LINE SMOOTH",
"192 667 OFFCURVE",
"212 677 OFFCURVE",
"251 677 CURVE SMOOTH",
"279 677 LINE",
"279 700 LINE",
"28 700 LINE",
"28 677 LINE",
"57 677 LINE SMOOTH",
"95 677 OFFCURVE",
"116 667 OFFCURVE",
"116 642 CURVE SMOOTH",
"116 57 LINE SMOOTH",
"116 32 OFFCURVE",
"95 22 OFFCURVE",
"57 22 CURVE SMOOTH",
"28 22 LINE",
"28 0 LINE"
);
}
);
width = 635;
}
);
note = IJ;
rightKerningGroup = J;
unicode = 0132;
},
{
glyphname = Iacute;
lastChange = "2015-10-02 09:32:28 +0000";
layers = (
{
layerId = "F0EF4016-32DD-4ABE-928D-BF0CB1E4FAE8";
name = Light;
paths = (
{
closed = 1;
nodes = (
"279 0 LINE",
"279 22 LINE",
"251 22 LINE SMOOTH",
"212 22 OFFCURVE",
"192 32 OFFCURVE",
"192 57 CURVE SMOOTH",
"192 642 LINE SMOOTH",
"192 667 OFFCURVE",
"212 677 OFFCURVE",
"251 677 CURVE SMOOTH",
"279 677 LINE",
"279 700 LINE",
"28 700 LINE",
"28 677 LINE",
"57 677 LINE SMOOTH",
"95 677 OFFCURVE",
"116 667 OFFCURVE",
"116 642 CURVE SMOOTH",
"116 57 LINE SMOOTH",
"116 32 OFFCURVE",
"95 22 OFFCURVE",
"57 22 CURVE SMOOTH",
"28 22 LINE",
"28 0 LINE"
);
},
{
closed = 1;
nodes = (
"216 863 LINE SMOOTH",
"234 873 OFFCURVE",
"244 885 OFFCURVE",
"244 899 CURVE SMOOTH",
"244 912 OFFCURVE",
"236 924 OFFCURVE",
"219 924 CURVE SMOOTH",
"202 924 OFFCURVE",
"187 911 OFFCURVE",
"179 904 CURVE SMOOTH",
"66 804 LINE",
"80 784 LINE"
);
}
);
width = 307;
}
);
note = Iacute;
unicode = 00CD;
},
{
glyphname = Ibreve;
lastChange = "2015-10-02 09:32:29 +0000";
layers = (
{
layerId = "F0EF4016-32DD-4ABE-928D-BF0CB1E4FAE8";
name = Light;
paths = (
{
closed = 1;
nodes = (
"279 0 LINE",
"279 22 LINE",
"251 22 LINE SMOOTH",
"212 22 OFFCURVE",
"192 32 OFFCURVE",
"192 57 CURVE SMOOTH",
"192 642 LINE SMOOTH",
"192 667 OFFCURVE",
"212 677 OFFCURVE",
"251 677 CURVE SMOOTH",
"279 677 LINE",
"279 700 LINE",
"28 700 LINE",
"28 677 LINE",
"57 677 LINE SMOOTH",
"95 677 OFFCURVE",
"116 667 OFFCURVE",
"116 642 CURVE SMOOTH",
"116 57 LINE SMOOTH",
"116 32 OFFCURVE",
"95 22 OFFCURVE",
"57 22 CURVE SMOOTH",
"28 22 LINE",
"28 0 LINE"
);
},
{
closed = 1;
nodes = (
"243 776 OFFCURVE",
"288 825 OFFCURVE",
"293 901 CURVE",
"262 901 LINE",
"255 835 OFFCURVE",
"209 815 OFFCURVE",
"153 815 CURVE SMOOTH",
"97 815 OFFCURVE",
"50 835 OFFCURVE",
"42 901 CURVE",
"12 901 LINE",
"16 823 OFFCURVE",
"62 776 OFFCURVE",
"153 776 CURVE SMOOTH"
);
}
);
width = 307;
}
);
note = Ibreve;
unicode = 012C;
},
{
glyphname = Icaron;
lastChange = "2015-12-01 09:05:21 +0000";
layers = (
{
layerId = "F0EF4016-32DD-4ABE-928D-BF0CB1E4FAE8";
name = Light;
paths = (
{
closed = 1;
nodes = (
"279 0 LINE",
"279 22 LINE",
"251 22 LINE SMOOTH",
"212 22 OFFCURVE",
"192 32 OFFCURVE",
"192 57 CURVE SMOOTH",
"192 642 LINE SMOOTH",
"192 667 OFFCURVE",
"212 677 OFFCURVE",
"251 677 CURVE SMOOTH",
"279 677 LINE",
"279 700 LINE",
"28 700 LINE",
"28 677 LINE",
"57 677 LINE SMOOTH",
"95 677 OFFCURVE",
"116 667 OFFCURVE",
"116 642 CURVE SMOOTH",
"116 57 LINE SMOOTH",
"116 32 OFFCURVE",
"95 22 OFFCURVE",
"57 22 CURVE SMOOTH",
"28 22 LINE",
"28 0 LINE"
);
},
{
closed = 1;
nodes = (
"175 784 LINE",
"292 902 LINE",
"274 921 LINE",
"173 839 LINE",
"166 834 OFFCURVE",
"159 830 OFFCURVE",
"154 830 CURVE SMOOTH",
"149 830 OFFCURVE",
"143 832 OFFCURVE",
"134 839 CURVE SMOOTH",
"33 921 LINE",
"16 902 LINE",
"132 784 LINE"
);
}
);
width = 307;
}
);
note = Icaron;
unicode = 01CF;
},
{
glyphname = Icircumflex;
lastChange = "2015-10-02 09:32:29 +0000";
layers = (
{
layerId = "F0EF4016-32DD-4ABE-928D-BF0CB1E4FAE8";
name = Light;
paths = (
{
closed = 1;
nodes = (
"279 0 LINE",
"279 22 LINE",
"251 22 LINE SMOOTH",
"212 22 OFFCURVE",
"192 32 OFFCURVE",
"192 57 CURVE SMOOTH",
"192 642 LINE SMOOTH",
"192 667 OFFCURVE",
"212 677 OFFCURVE",
"251 677 CURVE SMOOTH",
"279 677 LINE",
"279 700 LINE",
"28 700 LINE",
"28 677 LINE",
"57 677 LINE SMOOTH",
"95 677 OFFCURVE",
"116 667 OFFCURVE",
"116 642 CURVE SMOOTH",
"116 57 LINE SMOOTH",
"116 32 OFFCURVE",
"95 22 OFFCURVE",
"57 22 CURVE SMOOTH",
"28 22 LINE",
"28 0 LINE"
);
},
{
closed = 1;
nodes = (
"133 866 LINE",
"140 871 OFFCURVE",
"148 875 OFFCURVE",
"153 875 CURVE SMOOTH",
"158 875 OFFCURVE",
"165 871 OFFCURVE",
"172 866 CURVE",
"273 784 LINE",
"291 803 LINE",
"174 921 LINE",
"131 921 LINE",
"15 803 LINE",
"32 784 LINE"
);
}
);
width = 307;
}
);
note = Icircumflex;
unicode = 00CE;
},
{
glyphname = Idieresis;
lastChange = "2015-10-02 09:32:29 +0000";
layers = (
{
layerId = "F0EF4016-32DD-4ABE-928D-BF0CB1E4FAE8";
name = Light;
paths = (
{
closed = 1;
nodes = (
"279 0 LINE",
"279 22 LINE",
"251 22 LINE SMOOTH",
"212 22 OFFCURVE",
"192 32 OFFCURVE",
"192 57 CURVE SMOOTH",
"192 642 LINE SMOOTH",
"192 667 OFFCURVE",
"212 677 OFFCURVE",
"251 677 CURVE SMOOTH",
"279 677 LINE",
"279 700 LINE",
"28 700 LINE",
"28 677 LINE",
"57 677 LINE SMOOTH",
"95 677 OFFCURVE",
"116 667 OFFCURVE",
"116 642 CURVE SMOOTH",
"116 57 LINE SMOOTH",
"116 32 OFFCURVE",
"95 22 OFFCURVE",
"57 22 CURVE SMOOTH",
"28 22 LINE",
"28 0 LINE"
);
},
{
closed = 1;
nodes = (
"73 782 OFFCURVE",
"89 799 OFFCURVE",
"89 823 CURVE SMOOTH",
"89 848 OFFCURVE",
"73 865 OFFCURVE",
"48 865 CURVE SMOOTH",
"23 865 OFFCURVE",
"7 848 OFFCURVE",
"7 823 CURVE SMOOTH",
"7 799 OFFCURVE",
"23 782 OFFCURVE",
"48 782 CURVE SMOOTH"
);
},
{
closed = 1;
nodes = (
"282 782 OFFCURVE",
"298 799 OFFCURVE",
"298 823 CURVE SMOOTH",
"298 848 OFFCURVE",
"282 865 OFFCURVE",
"257 865 CURVE SMOOTH",
"232 865 OFFCURVE",
"216 848 OFFCURVE",
"216 823 CURVE SMOOTH",
"216 799 OFFCURVE",
"232 782 OFFCURVE",
"257 782 CURVE SMOOTH"
);
}
);
width = 307;
}
);
note = Idieresis;
unicode = 00CF;
},
{
glyphname = Idotaccent;
lastChange = "2015-10-02 09:32:29 +0000";
layers = (
{
layerId = "F0EF4016-32DD-4ABE-928D-BF0CB1E4FAE8";
name = Light;
paths = (
{
closed = 1;
nodes = (
"279 0 LINE",
"279 22 LINE",
"251 22 LINE SMOOTH",
"212 22 OFFCURVE",
"192 32 OFFCURVE",
"192 57 CURVE SMOOTH",
"192 642 LINE SMOOTH",
"192 667 OFFCURVE",
"212 677 OFFCURVE",
"251 677 CURVE SMOOTH",
"279 677 LINE",
"279 700 LINE",
"28 700 LINE",
"28 677 LINE",
"57 677 LINE SMOOTH",
"95 677 OFFCURVE",
"116 667 OFFCURVE",
"116 642 CURVE SMOOTH",
"116 57 LINE SMOOTH",
"116 32 OFFCURVE",
"95 22 OFFCURVE",
"57 22 CURVE SMOOTH",
"28 22 LINE",
"28 0 LINE"
);
},
{
closed = 1;
nodes = (
"178 763 OFFCURVE",
"194 779 OFFCURVE",
"194 804 CURVE SMOOTH",
"194 829 OFFCURVE",
"178 845 OFFCURVE",
"154 845 CURVE SMOOTH",
"129 845 OFFCURVE",
"113 829 OFFCURVE",
"113 804 CURVE SMOOTH",
"113 779 OFFCURVE",
"129 763 OFFCURVE",
"154 763 CURVE SMOOTH"
);
}
);
width = 307;
}
);
note = Idotaccent;
unicode = 0130;
},
{
glyphname = Idotbelow;
lastChange = "2015-12-01 09:05:26 +0000";
layers = (
{
layerId = "F0EF4016-32DD-4ABE-928D-BF0CB1E4FAE8";
name = Light;
paths = (
{
closed = 1;
nodes = (
"279 0 LINE",
"279 22 LINE",
"251 22 LINE SMOOTH",
"212 22 OFFCURVE",
"192 32 OFFCURVE",
"192 57 CURVE SMOOTH",
"192 642 LINE SMOOTH",
"192 667 OFFCURVE",
"212 677 OFFCURVE",
"251 677 CURVE SMOOTH",
"279 677 LINE",
"279 700 LINE",
"28 700 LINE",
"28 677 LINE",
"57 677 LINE SMOOTH",
"95 677 OFFCURVE",
"116 667 OFFCURVE",
"116 642 CURVE SMOOTH",
"116 57 LINE SMOOTH",
"116 32 OFFCURVE",
"95 22 OFFCURVE",
"57 22 CURVE SMOOTH",
"28 22 LINE",
"28 0 LINE"
);
},
{
closed = 1;
nodes = (
"178 -147 OFFCURVE",
"194 -131 OFFCURVE",
"194 -106 CURVE SMOOTH",
"194 -81 OFFCURVE",
"178 -64 OFFCURVE",
"153 -64 CURVE SMOOTH",
"129 -64 OFFCURVE",
"112 -81 OFFCURVE",
"112 -106 CURVE SMOOTH",
"112 -131 OFFCURVE",
"129 -147 OFFCURVE",
"153 -147 CURVE SMOOTH"
);
}
);
width = 307;
}
);
note = Idotbelow;
unicode = 1ECA;
},
{
glyphname = Igrave;
lastChange = "2015-10-02 09:32:28 +0000";
layers = (
{
layerId = "F0EF4016-32DD-4ABE-928D-BF0CB1E4FAE8";
name = Light;
paths = (
{
closed = 1;
nodes = (
"279 0 LINE",
"279 22 LINE",
"251 22 LINE SMOOTH",
"212 22 OFFCURVE",
"192 32 OFFCURVE",
"192 57 CURVE SMOOTH",
"192 642 LINE SMOOTH",
"192 667 OFFCURVE",
"212 677 OFFCURVE",
"251 677 CURVE SMOOTH",
"279 677 LINE",
"279 700 LINE",
"28 700 LINE",
"28 677 LINE",
"57 677 LINE SMOOTH",
"95 677 OFFCURVE",
"116 667 OFFCURVE",
"116 642 CURVE SMOOTH",
"116 57 LINE SMOOTH",
"116 32 OFFCURVE",
"95 22 OFFCURVE",
"57 22 CURVE SMOOTH",
"28 22 LINE",
"28 0 LINE"
);
},
{
closed = 1;
nodes = (
"242 804 LINE",
"130 904 LINE SMOOTH",
"121 912 OFFCURVE",
"107 924 OFFCURVE",
"91 924 CURVE SMOOTH",
"78 924 OFFCURVE",
"65 914 OFFCURVE",
"65 899 CURVE SMOOTH",
"65 884 OFFCURVE",
"78 870 OFFCURVE",
"91 863 CURVE SMOOTH",
"228 784 LINE"
);
}
);
width = 307;
}
);
note = Igrave;
unicode = 00CC;
},
{
glyphname = Ihookabove;
lastChange = "2015-12-01 09:05:30 +0000";
layers = (
{
layerId = "F0EF4016-32DD-4ABE-928D-BF0CB1E4FAE8";
name = Light;
paths = (
{
closed = 1;
nodes = (
"279 0 LINE",
"279 22 LINE",
"251 22 LINE SMOOTH",
"212 22 OFFCURVE",
"192 32 OFFCURVE",
"192 57 CURVE SMOOTH",
"192 642 LINE SMOOTH",
"192 667 OFFCURVE",
"212 677 OFFCURVE",
"251 677 CURVE SMOOTH",
"279 677 LINE",
"279 700 LINE",
"28 700 LINE",
"28 677 LINE",
"57 677 LINE SMOOTH",
"95 677 OFFCURVE",
"116 667 OFFCURVE",
"116 642 CURVE SMOOTH",
"116 57 LINE SMOOTH",
"116 32 OFFCURVE",
"95 22 OFFCURVE",
"57 22 CURVE SMOOTH",
"28 22 LINE",
"28 0 LINE"
);
},
{
closed = 1;
nodes = (
"194 797 LINE",
"175 803 OFFCURVE",
"164 808 OFFCURVE",
"164 826 CURVE SMOOTH",
"164 858 OFFCURVE",
"249 874 OFFCURVE",
"249 923 CURVE SMOOTH",
"249 963 OFFCURVE",
"214 983 OFFCURVE",
"166 983 CURVE SMOOTH",
"121 983 OFFCURVE",
"84 966 OFFCURVE",
"84 935 CURVE SMOOTH",
"84 919 OFFCURVE",
"91 912 OFFCURVE",
"104 912 CURVE SMOOTH",
"123 912 OFFCURVE",
"125 926 OFFCURVE",
"129 937 CURVE SMOOTH",
"134 952 OFFCURVE",
"151 957 OFFCURVE",
"167 957 CURVE SMOOTH",
"191 957 OFFCURVE",
"202 943 OFFCURVE",
"202 926 CURVE SMOOTH",
"202 882 OFFCURVE",
"123 871 OFFCURVE",
"123 826 CURVE SMOOTH",
"123 800 OFFCURVE",
"141 779 OFFCURVE",
"185 779 CURVE"
);
}
);
width = 307;
}
);
note = Ihookabove;
unicode = 1EC8;
},
{
glyphname = Imacron;
lastChange = "2015-10-02 09:32:28 +0000";
layers = (
{
layerId = "F0EF4016-32DD-4ABE-928D-BF0CB1E4FAE8";
name = Light;
paths = (
{
closed = 1;
nodes = (
"279 0 LINE",
"279 22 LINE",
"251 22 LINE SMOOTH",
"212 22 OFFCURVE",
"192 32 OFFCURVE",
"192 57 CURVE SMOOTH",
"192 642 LINE SMOOTH",
"192 667 OFFCURVE",
"212 677 OFFCURVE",
"251 677 CURVE SMOOTH",
"279 677 LINE",
"279 700 LINE",
"28 700 LINE",
"28 677 LINE",
"57 677 LINE SMOOTH",
"95 677 OFFCURVE",
"116 667 OFFCURVE",
"116 642 CURVE SMOOTH",
"116 57 LINE SMOOTH",
"116 32 OFFCURVE",
"95 22 OFFCURVE",
"57 22 CURVE SMOOTH",
"28 22 LINE",
"28 0 LINE"
);
},
{
closed = 1;
nodes = (
"338 786 LINE",
"338 824 LINE",
"-31 824 LINE",
"-31 786 LINE"
);
}
);
width = 307;
}
);
note = Imacron;
unicode = 012A;
},
{
glyphname = Iogonek;
lastChange = "2015-10-02 09:32:29 +0000";
layers = (
{
layerId = "F0EF4016-32DD-4ABE-928D-BF0CB1E4FAE8";
name = Light;
paths = (
{
closed = 1;
nodes = (
"279 0 LINE",
"279 22 LINE",
"251 22 LINE SMOOTH",
"212 22 OFFCURVE",
"192 32 OFFCURVE",
"192 57 CURVE SMOOTH",
"192 642 LINE SMOOTH",
"192 667 OFFCURVE",
"212 677 OFFCURVE",
"251 677 CURVE SMOOTH",
"279 677 LINE",
"279 700 LINE",
"28 700 LINE",
"28 677 LINE",
"57 677 LINE SMOOTH",
"95 677 OFFCURVE",
"116 667 OFFCURVE",
"116 642 CURVE SMOOTH",
"116 57 LINE SMOOTH",
"116 32 OFFCURVE",
"95 22 OFFCURVE",
"57 22 CURVE SMOOTH",
"28 22 LINE",
"28 0 LINE"
);
},
{
closed = 1;
nodes = (
"224 -186 OFFCURVE",
"247 -180 OFFCURVE",
"271 -167 CURVE",
"267 -148 LINE",
"251 -154 OFFCURVE",
"235 -157 OFFCURVE",
"222 -157 CURVE SMOOTH",
"190 -157 OFFCURVE",
"162 -142 OFFCURVE",
"162 -103 CURVE SMOOTH",
"162 -63 OFFCURVE",
"190 -24 OFFCURVE",
"234 3 CURVE",
"198 3 LINE",
"148 -21 OFFCURVE",
"112 -61 OFFCURVE",
"112 -109 CURVE SMOOTH",
"112 -141 OFFCURVE",
"131 -186 OFFCURVE",
"200 -186 CURVE SMOOTH"
);
}
);
width = 307;
}
);
note = Iogonek;
unicode = 012E;
},
{
glyphname = Itilde;
lastChange = "2015-10-02 09:32:28 +0000";
layers = (
{
layerId = "F0EF4016-32DD-4ABE-928D-BF0CB1E4FAE8";
name = Light;
paths = (
{
closed = 1;
nodes = (
"279 0 LINE",
"279 22 LINE",
"251 22 LINE SMOOTH",
"212 22 OFFCURVE",
"192 32 OFFCURVE",
"192 57 CURVE SMOOTH",
"192 642 LINE SMOOTH",
"192 667 OFFCURVE",
"212 677 OFFCURVE",
"251 677 CURVE SMOOTH",
"279 677 LINE",
"279 700 LINE",
"28 700 LINE",
"28 677 LINE",
"57 677 LINE SMOOTH",
"95 677 OFFCURVE",
"116 667 OFFCURVE",
"116 642 CURVE SMOOTH",
"116 57 LINE SMOOTH",
"116 32 OFFCURVE",
"95 22 OFFCURVE",
"57 22 CURVE SMOOTH",
"28 22 LINE",
"28 0 LINE"
);
},
{
closed = 1;
nodes = (
"26 820 OFFCURVE",
"44 842 OFFCURVE",
"76 842 CURVE SMOOTH",
"123 842 OFFCURVE",
"171 786 OFFCURVE",
"219 786 CURVE SMOOTH",
"271 786 OFFCURVE",
"300 827 OFFCURVE",
"311 880 CURVE",
"292 890 LINE",
"278 850 OFFCURVE",
"262 827 OFFCURVE",
"229 827 CURVE SMOOTH",
"183 827 OFFCURVE",
"133 882 OFFCURVE",
"84 882 CURVE SMOOTH",
"36 882 OFFCURVE",
"4 845 OFFCURVE",
"-6 792 CURVE",
"13 782 LINE"
);
}
);
width = 307;
}
);
note = Itilde;
unicode = 0128;
},
{
glyphname = J;
lastChange = "2015-10-02 09:32:27 +0000";
layers = (
{
layerId = "F0EF4016-32DD-4ABE-928D-BF0CB1E4FAE8";
name = Light;
paths = (
{
closed = 1;
nodes = (
"153 -114 OFFCURVE",
"233 -46 OFFCURVE",
"233 79 CURVE SMOOTH",
"233 642 LINE SMOOTH",
"233 667 OFFCURVE",
"254 677 OFFCURVE",
"292 677 CURVE SMOOTH",
"321 677 LINE",
"321 700 LINE",
"70 700 LINE",
"70 677 LINE",
"98 677 LINE SMOOTH",
"137 677 OFFCURVE",
"157 667 OFFCURVE",
"157 642 CURVE SMOOTH",
"157 79 LINE SMOOTH",
"157 -17 OFFCURVE",
"112 -80 OFFCURVE",
"31 -95 CURVE",
"35 -114 LINE"
);
}
);
width = 349;
}
);
leftKerningGroup = J;
note = J;
rightKerningGroup = J;
unicode = 004A;
},
{
glyphname = Jcircumflex;
lastChange = "2015-10-02 09:32:29 +0000";
layers = (
{
layerId = "F0EF4016-32DD-4ABE-928D-BF0CB1E4FAE8";
name = Light;
paths = (
{
closed = 1;
nodes = (
"153 -114 OFFCURVE",
"233 -46 OFFCURVE",
"233 79 CURVE SMOOTH",
"233 642 LINE SMOOTH",
"233 667 OFFCURVE",
"254 677 OFFCURVE",
"292 677 CURVE SMOOTH",
"321 677 LINE",
"321 700 LINE",
"70 700 LINE",
"70 677 LINE",
"98 677 LINE SMOOTH",
"137 677 OFFCURVE",
"157 667 OFFCURVE",
"157 642 CURVE SMOOTH",
"157 79 LINE SMOOTH",
"157 -17 OFFCURVE",
"112 -80 OFFCURVE",
"31 -95 CURVE",
"35 -114 LINE"
);
},
{
closed = 1;
nodes = (
"175 887 LINE",
"182 892 OFFCURVE",
"190 896 OFFCURVE",
"195 896 CURVE SMOOTH",
"200 896 OFFCURVE",
"207 892 OFFCURVE",
"214 887 CURVE",
"315 805 LINE",
"333 824 LINE",
"216 942 LINE",
"173 942 LINE",
"57 824 LINE",
"74 805 LINE"
);
}
);
width = 349;
}
);
leftKerningGroup = J;
note = Jcircumflex;
rightKerningGroup = J;
unicode = 0134;
},
{
glyphname = K;
lastChange = "2015-10-02 09:32:29 +0000";
layers = (
{
layerId = "F0EF4016-32DD-4ABE-928D-BF0CB1E4FAE8";
name = Light;
paths = (
{
closed = 1;
nodes = (
"657 0 LINE",
"657 22 LINE",
"628 22 LINE SMOOTH",
"592 22 OFFCURVE",
"572 43 OFFCURVE",
"553 62 CURVE SMOOTH",
"238 380 LINE",
"188 335 LINE",
"519 0 LINE"
);
},
{
closed = 1;
nodes = (
"276 0 LINE",
"276 22 LINE",
"247 22 LINE SMOOTH",
"209 22 OFFCURVE",
"188 32 OFFCURVE",
"188 57 CURVE SMOOTH",
"188 642 LINE SMOOTH",
"188 667 OFFCURVE",
"209 677 OFFCURVE",
"247 677 CURVE SMOOTH",
"276 677 LINE",
"276 700 LINE",
"25 700 LINE",
"25 677 LINE",
"53 677 LINE SMOOTH",
"92 677 OFFCURVE",
"112 667 OFFCURVE",
"112 642 CURVE SMOOTH",
"112 57 LINE SMOOTH",
"112 32 OFFCURVE",
"92 22 OFFCURVE",
"53 22 CURVE SMOOTH",
"25 22 LINE",
"25 0 LINE"
);
},
{
closed = 1;
nodes = (
"549 652 LINE SMOOTH",
"564 665 OFFCURVE",
"578 677 OFFCURVE",
"608 677 CURVE SMOOTH",
"626 677 LINE",
"626 700 LINE",
"437 700 LINE",
"437 677 LINE",
"452 677 LINE SMOOTH",
"478 677 OFFCURVE",
"491 671 OFFCURVE",
"491 658 CURVE SMOOTH",
"491 654 OFFCURVE",
"489 650 OFFCURVE",
"485 645 CURVE",
"188 385 LINE",
"188 331 LINE"
);
}
);
width = 674;
}
);
note = K;
rightKerningGroup = K;
unicode = 004B;
},
{
glyphname = Kcommaaccent;
lastChange = "2015-10-02 09:32:29 +0000";
layers = (
{
layerId = "F0EF4016-32DD-4ABE-928D-BF0CB1E4FAE8";
name = Light;
paths = (
{
closed = 1;
nodes = (
"657 0 LINE",
"657 22 LINE",
"628 22 LINE SMOOTH",
"592 22 OFFCURVE",
"572 43 OFFCURVE",
"553 62 CURVE SMOOTH",
"238 380 LINE",
"188 335 LINE",
"519 0 LINE"
);
},
{
closed = 1;
nodes = (
"374 -237 OFFCURVE",
"410 -182 OFFCURVE",
"410 -124 CURVE SMOOTH",
"410 -80 OFFCURVE",
"389 -65 OFFCURVE",
"365 -65 CURVE SMOOTH",
"340 -65 OFFCURVE",
"326 -82 OFFCURVE",
"326 -104 CURVE SMOOTH",
"326 -135 OFFCURVE",
"358 -140 OFFCURVE",
"358 -173 CURVE SMOOTH",
"358 -207 OFFCURVE",
"332 -238 OFFCURVE",
"307 -262 CURVE",
"321 -277 LINE"
);
},
{
closed = 1;
nodes = (
"276 0 LINE",
"276 22 LINE",
"247 22 LINE SMOOTH",
"209 22 OFFCURVE",
"188 32 OFFCURVE",
"188 57 CURVE SMOOTH",
"188 642 LINE SMOOTH",
"188 667 OFFCURVE",
"209 677 OFFCURVE",
"247 677 CURVE SMOOTH",
"276 677 LINE",
"276 700 LINE",
"25 700 LINE",
"25 677 LINE",
"53 677 LINE SMOOTH",
"92 677 OFFCURVE",
"112 667 OFFCURVE",
"112 642 CURVE SMOOTH",
"112 57 LINE SMOOTH",
"112 32 OFFCURVE",
"92 22 OFFCURVE",
"53 22 CURVE SMOOTH",
"25 22 LINE",
"25 0 LINE"
);
},
{
closed = 1;
nodes = (
"549 652 LINE SMOOTH",
"564 665 OFFCURVE",
"578 677 OFFCURVE",
"608 677 CURVE SMOOTH",
"626 677 LINE",
"626 700 LINE",
"437 700 LINE",
"437 677 LINE",
"452 677 LINE SMOOTH",
"478 677 OFFCURVE",
"491 671 OFFCURVE",
"491 658 CURVE SMOOTH",
"491 654 OFFCURVE",
"489 650 OFFCURVE",
"485 645 CURVE",
"188 385 LINE",
"188 331 LINE"
);
}
);
width = 674;
}
);
note = Kcommaaccent;
rightKerningGroup = K;
unicode = 0136;
},
{
glyphname = L;
lastChange = "2015-10-02 09:32:27 +0000";
layers = (
{
layerId = "F0EF4016-32DD-4ABE-928D-BF0CB1E4FAE8";
name = Light;
paths = (
{
closed = 1;
nodes = (
"537 0 LINE",
"553 179 LINE",
"530 179 LINE",
"526 137 OFFCURVE",
"505 35 OFFCURVE",
"444 35 CURVE SMOOTH",
"250 35 LINE SMOOTH",
"212 35 OFFCURVE",
"190 46 OFFCURVE",
"190 73 CURVE SMOOTH",
"190 642 LINE SMOOTH",
"190 667 OFFCURVE",
"210 677 OFFCURVE",
"249 677 CURVE SMOOTH",
"277 677 LINE",
"277 700 LINE",
"26 700 LINE",
"26 677 LINE",
"54 677 LINE SMOOTH",
"93 677 OFFCURVE",
"114 667 OFFCURVE",
"114 642 CURVE SMOOTH",
"114 57 LINE SMOOTH",
"114 32 OFFCURVE",
"93 22 OFFCURVE",
"54 22 CURVE SMOOTH",
"26 22 LINE",
"26 0 LINE"
);
}
);
width = 573;
}
);
note = L;
rightKerningGroup = L;
unicode = 004C;
},
{
glyphname = Lacute;
lastChange = "2015-10-02 09:32:29 +0000";
layers = (
{
layerId = "F0EF4016-32DD-4ABE-928D-BF0CB1E4FAE8";
name = Light;
paths = (
{
closed = 1;
nodes = (
"537 0 LINE",
"553 179 LINE",
"530 179 LINE",
"526 137 OFFCURVE",
"505 35 OFFCURVE",
"444 35 CURVE SMOOTH",
"250 35 LINE SMOOTH",
"212 35 OFFCURVE",
"190 46 OFFCURVE",
"190 73 CURVE SMOOTH",
"190 642 LINE SMOOTH",
"190 667 OFFCURVE",
"210 677 OFFCURVE",
"249 677 CURVE SMOOTH",
"277 677 LINE",
"277 700 LINE",
"26 700 LINE",
"26 677 LINE",
"54 677 LINE SMOOTH",
"93 677 OFFCURVE",
"114 667 OFFCURVE",
"114 642 CURVE SMOOTH",
"114 57 LINE SMOOTH",
"114 32 OFFCURVE",
"93 22 OFFCURVE",
"54 22 CURVE SMOOTH",
"26 22 LINE",
"26 0 LINE"
);
},
{
closed = 1;
nodes = (
"267 863 LINE SMOOTH",
"285 873 OFFCURVE",
"295 885 OFFCURVE",
"295 899 CURVE SMOOTH",
"295 912 OFFCURVE",
"287 924 OFFCURVE",
"270 924 CURVE SMOOTH",
"253 924 OFFCURVE",
"238 911 OFFCURVE",
"230 904 CURVE SMOOTH",
"117 804 LINE",
"131 784 LINE"
);
}
);
width = 573;
}
);
note = Lacute;
rightKerningGroup = L;
unicode = 0139;
},
{
glyphname = Lcaron;
lastChange = "2015-10-02 09:32:28 +0000";
layers = (
{
layerId = "F0EF4016-32DD-4ABE-928D-BF0CB1E4FAE8";
name = Light;
paths = (
{
closed = 1;
nodes = (
"537 0 LINE",
"553 179 LINE",
"530 179 LINE",
"526 137 OFFCURVE",
"505 35 OFFCURVE",
"444 35 CURVE SMOOTH",
"250 35 LINE SMOOTH",
"212 35 OFFCURVE",
"190 46 OFFCURVE",
"190 73 CURVE SMOOTH",
"190 642 LINE SMOOTH",
"190 667 OFFCURVE",
"210 677 OFFCURVE",
"249 677 CURVE SMOOTH",
"277 677 LINE",
"277 700 LINE",
"26 700 LINE",
"26 677 LINE",
"54 677 LINE SMOOTH",
"93 677 OFFCURVE",
"114 667 OFFCURVE",
"114 642 CURVE SMOOTH",
"114 57 LINE SMOOTH",
"114 32 OFFCURVE",
"93 22 OFFCURVE",
"54 22 CURVE SMOOTH",
"26 22 LINE",
"26 0 LINE"
);
},
{
closed = 1;
nodes = (
"421 534 OFFCURVE",
"457 590 OFFCURVE",
"457 648 CURVE SMOOTH",
"457 691 OFFCURVE",
"436 706 OFFCURVE",
"412 706 CURVE SMOOTH",
"387 706 OFFCURVE",
"373 689 OFFCURVE",
"373 667 CURVE SMOOTH",
"373 636 OFFCURVE",
"405 631 OFFCURVE",
"405 599 CURVE SMOOTH",
"405 565 OFFCURVE",
"379 533 OFFCURVE",
"354 509 CURVE",
"368 495 LINE"
);
}
);
width = 573;
}
);
note = Lcaron;
rightKerningGroup = L;
unicode = 013D;
},
{
glyphname = Lcommaaccent;
lastChange = "2015-10-02 09:32:28 +0000";
layers = (
{
layerId = "F0EF4016-32DD-4ABE-928D-BF0CB1E4FAE8";
name = Light;
paths = (
{
closed = 1;
nodes = (
"537 0 LINE",
"553 179 LINE",
"530 179 LINE",
"526 137 OFFCURVE",
"505 35 OFFCURVE",
"444 35 CURVE SMOOTH",
"250 35 LINE SMOOTH",
"212 35 OFFCURVE",
"190 46 OFFCURVE",
"190 73 CURVE SMOOTH",
"190 642 LINE SMOOTH",
"190 667 OFFCURVE",
"210 677 OFFCURVE",
"249 677 CURVE SMOOTH",
"277 677 LINE",
"277 700 LINE",
"26 700 LINE",
"26 677 LINE",
"54 677 LINE SMOOTH",
"93 677 OFFCURVE",
"114 667 OFFCURVE",
"114 642 CURVE SMOOTH",
"114 57 LINE SMOOTH",
"114 32 OFFCURVE",
"93 22 OFFCURVE",
"54 22 CURVE SMOOTH",
"26 22 LINE",
"26 0 LINE"
);
},
{
closed = 1;
nodes = (
"297 -237 OFFCURVE",
"333 -182 OFFCURVE",
"333 -124 CURVE SMOOTH",
"333 -80 OFFCURVE",
"312 -65 OFFCURVE",
"288 -65 CURVE SMOOTH",
"263 -65 OFFCURVE",
"249 -82 OFFCURVE",
"249 -104 CURVE SMOOTH",
"249 -135 OFFCURVE",
"281 -140 OFFCURVE",
"281 -173 CURVE SMOOTH",
"281 -207 OFFCURVE",
"255 -238 OFFCURVE",
"230 -262 CURVE",
"244 -277 LINE"
);
}
);
width = 573;
}
);
note = Lcommaaccent;
rightKerningGroup = L;
unicode = 013B;
},
{
glyphname = Ldot;
lastChange = "2015-10-02 09:32:29 +0000";
layers = (
{
layerId = "F0EF4016-32DD-4ABE-928D-BF0CB1E4FAE8";
name = Light;
paths = (
{
closed = 1;
nodes = (
"537 0 LINE",
"553 179 LINE",
"530 179 LINE",
"526 137 OFFCURVE",
"505 35 OFFCURVE",
"444 35 CURVE SMOOTH",
"250 35 LINE SMOOTH",
"212 35 OFFCURVE",
"190 46 OFFCURVE",
"190 73 CURVE SMOOTH",
"190 642 LINE SMOOTH",
"190 667 OFFCURVE",
"210 677 OFFCURVE",
"249 677 CURVE SMOOTH",
"277 677 LINE",
"277 700 LINE",
"26 700 LINE",
"26 677 LINE",
"54 677 LINE SMOOTH",
"93 677 OFFCURVE",
"114 667 OFFCURVE",
"114 642 CURVE SMOOTH",
"114 57 LINE SMOOTH",
"114 32 OFFCURVE",
"93 22 OFFCURVE",
"54 22 CURVE SMOOTH",
"26 22 LINE",
"26 0 LINE"
);
},
{
closed = 1;
nodes = (
"387 311 OFFCURVE",
"403 328 OFFCURVE",
"403 353 CURVE SMOOTH",
"403 377 OFFCURVE",
"387 394 OFFCURVE",
"362 394 CURVE SMOOTH",
"338 394 OFFCURVE",
"322 377 OFFCURVE",
"322 353 CURVE SMOOTH",
"322 328 OFFCURVE",
"338 311 OFFCURVE",
"362 311 CURVE SMOOTH"
);
}
);
width = 573;
}
);
note = Ldot;
rightKerningGroup = L;
unicode = 013F;
},
{
glyphname = Ldotbelow;
lastChange = "2015-10-02 09:32:28 +0000";
layers = (
{
layerId = "F0EF4016-32DD-4ABE-928D-BF0CB1E4FAE8";
name = Light;
paths = (
{
closed = 1;
nodes = (
"537 0 LINE",
"553 179 LINE",
"530 179 LINE",
"526 137 OFFCURVE",
"505 35 OFFCURVE",
"444 35 CURVE SMOOTH",
"250 35 LINE SMOOTH",
"212 35 OFFCURVE",
"190 46 OFFCURVE",
"190 73 CURVE SMOOTH",
"190 642 LINE SMOOTH",
"190 667 OFFCURVE",
"210 677 OFFCURVE",
"249 677 CURVE SMOOTH",
"277 677 LINE",
"277 700 LINE",
"26 700 LINE",
"26 677 LINE",
"54 677 LINE SMOOTH",
"93 677 OFFCURVE",
"114 667 OFFCURVE",
"114 642 CURVE SMOOTH",
"114 57 LINE SMOOTH",
"114 32 OFFCURVE",
"93 22 OFFCURVE",
"54 22 CURVE SMOOTH",
"26 22 LINE",
"26 0 LINE"
);
},
{
closed = 1;
nodes = (
"340 -142 OFFCURVE",
"356 -125 OFFCURVE",
"356 -101 CURVE SMOOTH",
"356 -76 OFFCURVE",
"340 -59 OFFCURVE",
"315 -59 CURVE SMOOTH",
"291 -59 OFFCURVE",
"274 -76 OFFCURVE",
"274 -101 CURVE SMOOTH",
"274 -125 OFFCURVE",
"291 -142 OFFCURVE",
"315 -142 CURVE SMOOTH"
);
}
);
width = 573;
}
);
note = Ldotbelow;
rightKerningGroup = L;
unicode = 1E36;
},
{
glyphname = Ldotbelowmacron;
lastChange = "2015-10-02 09:32:29 +0000";
layers = (
{
layerId = "F0EF4016-32DD-4ABE-928D-BF0CB1E4FAE8";
name = Light;
paths = (
{
closed = 1;
nodes = (
"537 0 LINE",
"553 179 LINE",
"530 179 LINE",
"526 137 OFFCURVE",
"505 35 OFFCURVE",
"444 35 CURVE SMOOTH",
"250 35 LINE SMOOTH",
"212 35 OFFCURVE",
"190 46 OFFCURVE",
"190 73 CURVE SMOOTH",
"190 642 LINE SMOOTH",
"190 667 OFFCURVE",
"210 677 OFFCURVE",
"249 677 CURVE SMOOTH",
"277 677 LINE",
"277 700 LINE",
"26 700 LINE",
"26 677 LINE",
"54 677 LINE SMOOTH",
"93 677 OFFCURVE",
"114 667 OFFCURVE",
"114 642 CURVE SMOOTH",
"114 57 LINE SMOOTH",
"114 32 OFFCURVE",
"93 22 OFFCURVE",
"54 22 CURVE SMOOTH",
"26 22 LINE",
"26 0 LINE"
);
},
{
closed = 1;
nodes = (
"340 -142 OFFCURVE",
"356 -125 OFFCURVE",
"356 -101 CURVE SMOOTH",
"356 -76 OFFCURVE",
"340 -59 OFFCURVE",
"315 -59 CURVE SMOOTH",
"291 -59 OFFCURVE",
"274 -76 OFFCURVE",
"274 -101 CURVE SMOOTH",
"274 -125 OFFCURVE",
"291 -142 OFFCURVE",
"315 -142 CURVE SMOOTH"
);
},
{
closed = 1;
nodes = (
"326 782 LINE",
"326 817 LINE",
"13 817 LINE",
"13 782 LINE"
);
}
);
width = 573;
}
);
note = Ldotbelowmacron;
rightKerningGroup = L;
unicode = 1E38;
},
{
glyphname = Llinebelow;
lastChange = "2015-10-02 09:32:29 +0000";
layers = (
{
layerId = "F0EF4016-32DD-4ABE-928D-BF0CB1E4FAE8";
name = Light;
paths = (
{
closed = 1;
nodes = (
"537 0 LINE",
"553 179 LINE",
"530 179 LINE",
"526 137 OFFCURVE",
"505 35 OFFCURVE",
"444 35 CURVE SMOOTH",
"250 35 LINE SMOOTH",
"212 35 OFFCURVE",
"190 46 OFFCURVE",
"190 73 CURVE SMOOTH",
"190 642 LINE SMOOTH",
"190 667 OFFCURVE",
"210 677 OFFCURVE",
"249 677 CURVE SMOOTH",
"277 677 LINE",
"277 700 LINE",
"26 700 LINE",
"26 677 LINE",
"54 677 LINE SMOOTH",
"93 677 OFFCURVE",
"114 667 OFFCURVE",
"114 642 CURVE SMOOTH",
"114 57 LINE SMOOTH",
"114 32 OFFCURVE",
"93 22 OFFCURVE",
"54 22 CURVE SMOOTH",
"26 22 LINE",
"26 0 LINE"
);
},
{
closed = 1;
nodes = (
"445 -106 LINE",
"445 -73 LINE",
"132 -73 LINE",
"132 -106 LINE"
);
}
);
width = 573;
}
);
note = Llinebelow;
rightKerningGroup = L;
unicode = 1E3A;
},
{
glyphname = Lslash;
lastChange = "2015-10-02 09:32:28 +0000";
layers = (
{
layerId = "F0EF4016-32DD-4ABE-928D-BF0CB1E4FAE8";
name = Light;
paths = (
{
closed = 1;
nodes = (
"537 0 LINE",
"553 179 LINE",
"530 179 LINE",
"526 137 OFFCURVE",
"505 35 OFFCURVE",
"444 35 CURVE SMOOTH",
"250 35 LINE SMOOTH",
"212 35 OFFCURVE",
"190 46 OFFCURVE",
"190 73 CURVE SMOOTH",
"190 642 LINE SMOOTH",
"190 667 OFFCURVE",
"210 677 OFFCURVE",
"249 677 CURVE SMOOTH",
"277 677 LINE",
"277 700 LINE",
"26 700 LINE",
"26 677 LINE",
"54 677 LINE SMOOTH",
"93 677 OFFCURVE",
"114 667 OFFCURVE",
"114 642 CURVE SMOOTH",
"114 57 LINE SMOOTH",
"114 32 OFFCURVE",
"93 22 OFFCURVE",
"54 22 CURVE SMOOTH",
"26 22 LINE",
"26 0 LINE"
);
},
{
closed = 1;
nodes = (
"404 383 LINE",
"404 427 LINE",
"31 291 LINE",
"31 247 LINE"
);
}
);
width = 573;
}
);
note = Lslash;
rightKerningGroup = L;
unicode = 0141;
},
{
glyphname = M;
lastChange = "2015-10-02 09:32:27 +0000";
layers = (
{
layerId = "F0EF4016-32DD-4ABE-928D-BF0CB1E4FAE8";
name = Light;
paths = (
{
closed = 1;
nodes = (
"244 0 LINE",
"244 22 LINE",
"215 22 LINE SMOOTH",
"177 22 OFFCURVE",
"156 32 OFFCURVE",
"156 57 CURVE SMOOTH",
"156 628 LINE",
"402 77 LINE",
"448 77 LINE",
"696 627 LINE",
"696 57 LINE SMOOTH",
"696 32 OFFCURVE",
"675 22 OFFCURVE",
"636 22 CURVE SMOOTH",
"608 22 LINE",
"608 0 LINE",
"859 0 LINE",
"859 22 LINE",
"831 22 LINE SMOOTH",
"792 22 OFFCURVE",
"772 32 OFFCURVE",
"772 57 CURVE SMOOTH",
"772 642 LINE SMOOTH",
"772 667 OFFCURVE",
"792 677 OFFCURVE",
"831 677 CURVE SMOOTH",
"859 677 LINE",
"859 700 LINE",
"681 700 LINE",
"438 151 LINE",
"197 700 LINE",
"25 700 LINE",
"25 677 LINE",
"53 677 LINE SMOOTH",
"92 677 OFFCURVE",
"112 667 OFFCURVE",
"112 642 CURVE SMOOTH",
"112 57 LINE SMOOTH",
"112 32 OFFCURVE",
"92 22 OFFCURVE",
"53 22 CURVE SMOOTH",
"25 22 LINE",
"25 0 LINE"
);
}
);
width = 884;
}
);
note = M;
unicode = 004D;
},
{
glyphname = Mdotbelow;
lastChange = "2015-10-02 09:32:28 +0000";
layers = (
{
layerId = "F0EF4016-32DD-4ABE-928D-BF0CB1E4FAE8";
name = Light;
paths = (
{
closed = 1;
nodes = (
"244 0 LINE",
"244 22 LINE",
"215 22 LINE SMOOTH",
"177 22 OFFCURVE",
"156 32 OFFCURVE",
"156 57 CURVE SMOOTH",
"156 628 LINE",
"402 77 LINE",
"448 77 LINE",
"696 627 LINE",
"696 57 LINE SMOOTH",
"696 32 OFFCURVE",
"675 22 OFFCURVE",
"636 22 CURVE SMOOTH",
"608 22 LINE",
"608 0 LINE",
"859 0 LINE",
"859 22 LINE",
"831 22 LINE SMOOTH",
"792 22 OFFCURVE",
"772 32 OFFCURVE",
"772 57 CURVE SMOOTH",
"772 642 LINE SMOOTH",
"772 667 OFFCURVE",
"792 677 OFFCURVE",
"831 677 CURVE SMOOTH",
"859 677 LINE",
"859 700 LINE",
"681 700 LINE",
"438 151 LINE",
"197 700 LINE",
"25 700 LINE",
"25 677 LINE",
"53 677 LINE SMOOTH",
"92 677 OFFCURVE",
"112 667 OFFCURVE",
"112 642 CURVE SMOOTH",
"112 57 LINE SMOOTH",
"112 32 OFFCURVE",
"92 22 OFFCURVE",
"53 22 CURVE SMOOTH",
"25 22 LINE",
"25 0 LINE"
);
},
{
closed = 1;
nodes = (
"466 -147 OFFCURVE",
"482 -131 OFFCURVE",
"482 -106 CURVE SMOOTH",
"482 -81 OFFCURVE",
"466 -64 OFFCURVE",
"441 -64 CURVE SMOOTH",
"417 -64 OFFCURVE",
"400 -81 OFFCURVE",
"400 -106 CURVE SMOOTH",
"400 -131 OFFCURVE",
"417 -147 OFFCURVE",
"441 -147 CURVE SMOOTH"
);
}
);
width = 884;
}
);
note = Mdotbelow;
unicode = 1E42;
},
{
glyphname = N;
lastChange = "2015-10-02 09:32:27 +0000";
layers = (
{
layerId = "F0EF4016-32DD-4ABE-928D-BF0CB1E4FAE8";
name = Light;
paths = (
{
closed = 1;
nodes = (
"244 0 LINE",
"244 22 LINE",
"215 22 LINE SMOOTH",
"177 22 OFFCURVE",
"156 32 OFFCURVE",
"156 57 CURVE SMOOTH",
"156 655 LINE",
"584 0 LINE",
"633 0 LINE",
"633 642 LINE SMOOTH",
"633 667 OFFCURVE",
"654 677 OFFCURVE",
"692 677 CURVE SMOOTH",
"721 677 LINE",
"721 700 LINE",
"502 700 LINE",
"502 677 LINE",
"530 677 LINE SMOOTH",
"569 677 OFFCURVE",
"589 667 OFFCURVE",
"589 642 CURVE SMOOTH",
"589 101 LINE",
"201 700 LINE",
"25 700 LINE",
"25 677 LINE",
"53 677 LINE SMOOTH",
"92 677 OFFCURVE",
"112 667 OFFCURVE",
"112 642 CURVE SMOOTH",
"112 57 LINE SMOOTH",
"112 32 OFFCURVE",
"92 22 OFFCURVE",
"53 22 CURVE SMOOTH",
"25 22 LINE",
"25 0 LINE"
);
}
);
width = 746;
}
);
note = N;
unicode = 004E;
},
{
glyphname = Nacute;
lastChange = "2015-10-02 09:32:29 +0000";
layers = (
{
layerId = "F0EF4016-32DD-4ABE-928D-BF0CB1E4FAE8";
name = Light;
paths = (
{
closed = 1;
nodes = (
"244 0 LINE",
"244 22 LINE",
"215 22 LINE SMOOTH",
"177 22 OFFCURVE",
"156 32 OFFCURVE",
"156 57 CURVE SMOOTH",
"156 655 LINE",
"584 0 LINE",
"633 0 LINE",
"633 642 LINE SMOOTH",
"633 667 OFFCURVE",
"654 677 OFFCURVE",
"692 677 CURVE SMOOTH",
"721 677 LINE",
"721 700 LINE",
"502 700 LINE",
"502 677 LINE",
"530 677 LINE SMOOTH",
"569 677 OFFCURVE",
"589 667 OFFCURVE",
"589 642 CURVE SMOOTH",
"589 101 LINE",
"201 700 LINE",
"25 700 LINE",
"25 677 LINE",
"53 677 LINE SMOOTH",
"92 677 OFFCURVE",
"112 667 OFFCURVE",
"112 642 CURVE SMOOTH",
"112 57 LINE SMOOTH",
"112 32 OFFCURVE",
"92 22 OFFCURVE",
"53 22 CURVE SMOOTH",
"25 22 LINE",
"25 0 LINE"
);
},
{
closed = 1;
nodes = (
"448 863 LINE SMOOTH",
"466 873 OFFCURVE",
"476 885 OFFCURVE",
"476 899 CURVE SMOOTH",
"476 912 OFFCURVE",
"468 924 OFFCURVE",
"451 924 CURVE SMOOTH",
"434 924 OFFCURVE",
"419 911 OFFCURVE",
"411 904 CURVE SMOOTH",
"298 804 LINE",
"312 784 LINE"
);
}
);
width = 746;
}
);
note = Nacute;
unicode = 0143;
},
{
glyphname = Ncaron;
lastChange = "2015-10-02 09:32:28 +0000";
layers = (
{
layerId = "F0EF4016-32DD-4ABE-928D-BF0CB1E4FAE8";
name = Light;
paths = (
{
closed = 1;
nodes = (
"244 0 LINE",
"244 22 LINE",
"215 22 LINE SMOOTH",
"177 22 OFFCURVE",
"156 32 OFFCURVE",
"156 57 CURVE SMOOTH",
"156 655 LINE",
"584 0 LINE",
"633 0 LINE",
"633 642 LINE SMOOTH",
"633 667 OFFCURVE",
"654 677 OFFCURVE",
"692 677 CURVE SMOOTH",
"721 677 LINE",
"721 700 LINE",
"502 700 LINE",
"502 677 LINE",
"530 677 LINE SMOOTH",
"569 677 OFFCURVE",
"589 667 OFFCURVE",
"589 642 CURVE SMOOTH",
"589 101 LINE",
"201 700 LINE",
"25 700 LINE",
"25 677 LINE",
"53 677 LINE SMOOTH",
"92 677 OFFCURVE",
"112 667 OFFCURVE",
"112 642 CURVE SMOOTH",
"112 57 LINE SMOOTH",
"112 32 OFFCURVE",
"92 22 OFFCURVE",
"53 22 CURVE SMOOTH",
"25 22 LINE",
"25 0 LINE"
);
},
{
closed = 1;
nodes = (
"396 784 LINE",
"513 902 LINE",
"495 921 LINE",
"394 839 LINE",
"387 834 OFFCURVE",
"380 830 OFFCURVE",
"375 830 CURVE SMOOTH",
"370 830 OFFCURVE",
"364 832 OFFCURVE",
"355 839 CURVE SMOOTH",
"254 921 LINE",
"237 902 LINE",
"353 784 LINE"
);
}
);
width = 746;
}
);
note = Ncaron;
unicode = 0147;
},
{
glyphname = Ncommaaccent;
lastChange = "2015-10-02 09:32:29 +0000";
layers = (
{
layerId = "F0EF4016-32DD-4ABE-928D-BF0CB1E4FAE8";
name = Light;
paths = (
{
closed = 1;
nodes = (
"244 0 LINE",
"244 22 LINE",
"215 22 LINE SMOOTH",
"177 22 OFFCURVE",
"156 32 OFFCURVE",
"156 57 CURVE SMOOTH",
"156 655 LINE",
"584 0 LINE",
"633 0 LINE",
"633 642 LINE SMOOTH",
"633 667 OFFCURVE",
"654 677 OFFCURVE",
"692 677 CURVE SMOOTH",
"721 677 LINE",
"721 700 LINE",
"502 700 LINE",
"502 677 LINE",
"530 677 LINE SMOOTH",
"569 677 OFFCURVE",
"589 667 OFFCURVE",
"589 642 CURVE SMOOTH",
"589 101 LINE",
"201 700 LINE",
"25 700 LINE",
"25 677 LINE",
"53 677 LINE SMOOTH",
"92 677 OFFCURVE",
"112 667 OFFCURVE",
"112 642 CURVE SMOOTH",
"112 57 LINE SMOOTH",
"112 32 OFFCURVE",
"92 22 OFFCURVE",
"53 22 CURVE SMOOTH",
"25 22 LINE",
"25 0 LINE"
);
},
{
closed = 1;
nodes = (
"362 -237 OFFCURVE",
"398 -182 OFFCURVE",
"398 -124 CURVE SMOOTH",
"398 -80 OFFCURVE",
"377 -65 OFFCURVE",
"353 -65 CURVE SMOOTH",
"328 -65 OFFCURVE",
"314 -82 OFFCURVE",
"314 -104 CURVE SMOOTH",
"314 -135 OFFCURVE",
"346 -140 OFFCURVE",
"346 -173 CURVE SMOOTH",
"346 -207 OFFCURVE",
"320 -238 OFFCURVE",
"295 -262 CURVE",
"309 -277 LINE"
);
}
);
width = 746;
}
);
note = Ncommaaccent;
unicode = 0145;
},
{
glyphname = Ndotaccent;
lastChange = "2015-10-02 09:32:28 +0000";
layers = (
{
layerId = "F0EF4016-32DD-4ABE-928D-BF0CB1E4FAE8";
name = Light;
paths = (
{
closed = 1;
nodes = (
"244 0 LINE",
"244 22 LINE",
"215 22 LINE SMOOTH",
"177 22 OFFCURVE",
"156 32 OFFCURVE",
"156 57 CURVE SMOOTH",
"156 655 LINE",
"584 0 LINE",
"633 0 LINE",
"633 642 LINE SMOOTH",
"633 667 OFFCURVE",
"654 677 OFFCURVE",
"692 677 CURVE SMOOTH",
"721 677 LINE",
"721 700 LINE",
"502 700 LINE",
"502 677 LINE",
"530 677 LINE SMOOTH",
"569 677 OFFCURVE",
"589 667 OFFCURVE",
"589 642 CURVE SMOOTH",
"589 101 LINE",
"201 700 LINE",
"25 700 LINE",
"25 677 LINE",
"53 677 LINE SMOOTH",
"92 677 OFFCURVE",
"112 667 OFFCURVE",
"112 642 CURVE SMOOTH",
"112 57 LINE SMOOTH",
"112 32 OFFCURVE",
"92 22 OFFCURVE",
"53 22 CURVE SMOOTH",
"25 22 LINE",
"25 0 LINE"
);
},
{
closed = 1;
nodes = (
"396 763 OFFCURVE",
"412 779 OFFCURVE",
"412 804 CURVE SMOOTH",
"412 829 OFFCURVE",
"396 845 OFFCURVE",
"372 845 CURVE SMOOTH",
"347 845 OFFCURVE",
"331 829 OFFCURVE",
"331 804 CURVE SMOOTH",
"331 779 OFFCURVE",
"347 763 OFFCURVE",
"372 763 CURVE SMOOTH"
);
}
);
width = 746;
}
);
note = Ndotaccent;
unicode = 1E44;
},
{
glyphname = Ndotbelow;
lastChange = "2015-12-01 09:05:48 +0000";
layers = (
{
layerId = "F0EF4016-32DD-4ABE-928D-BF0CB1E4FAE8";
name = Light;
paths = (
{
closed = 1;
nodes = (
"244 0 LINE",
"244 22 LINE",
"215 22 LINE SMOOTH",
"177 22 OFFCURVE",
"156 32 OFFCURVE",
"156 57 CURVE SMOOTH",
"156 655 LINE",
"584 0 LINE",
"633 0 LINE",
"633 642 LINE SMOOTH",
"633 667 OFFCURVE",
"654 677 OFFCURVE",
"692 677 CURVE SMOOTH",
"721 677 LINE",
"721 700 LINE",
"502 700 LINE",
"502 677 LINE",
"530 677 LINE SMOOTH",
"569 677 OFFCURVE",
"589 667 OFFCURVE",
"589 642 CURVE SMOOTH",
"589 101 LINE",
"201 700 LINE",
"25 700 LINE",
"25 677 LINE",
"53 677 LINE SMOOTH",
"92 677 OFFCURVE",
"112 667 OFFCURVE",
"112 642 CURVE SMOOTH",
"112 57 LINE SMOOTH",
"112 32 OFFCURVE",
"92 22 OFFCURVE",
"53 22 CURVE SMOOTH",
"25 22 LINE",
"25 0 LINE"
);
},
{
closed = 1;
nodes = (
"409 -147 OFFCURVE",
"425 -131 OFFCURVE",
"425 -106 CURVE SMOOTH",
"425 -81 OFFCURVE",
"409 -64 OFFCURVE",
"384 -64 CURVE SMOOTH",
"360 -64 OFFCURVE",
"343 -81 OFFCURVE",
"343 -106 CURVE SMOOTH",
"343 -131 OFFCURVE",
"360 -147 OFFCURVE",
"384 -147 CURVE SMOOTH"
);
}
);
width = 746;
}
);
note = uni1E46;
unicode = 1E46;
},
{
glyphname = Eng;
lastChange = "2015-10-02 09:32:28 +0000";
layers = (
{
layerId = "F0EF4016-32DD-4ABE-928D-BF0CB1E4FAE8";
name = Light;
paths = (
{
closed = 1;
nodes = (
"594 -246 OFFCURVE",
"633 -165 OFFCURVE",
"633 -29 CURVE SMOOTH",
"633 642 LINE SMOOTH",
"633 667 OFFCURVE",
"654 677 OFFCURVE",
"692 677 CURVE SMOOTH",
"721 677 LINE",
"721 700 LINE",
"502 700 LINE",
"502 677 LINE",
"530 677 LINE SMOOTH",
"569 677 OFFCURVE",
"589 667 OFFCURVE",
"589 642 CURVE SMOOTH",
"589 99 LINE",
"204 700 LINE",
"25 700 LINE",
"25 677 LINE",
"53 677 LINE SMOOTH",
"92 677 OFFCURVE",
"112 667 OFFCURVE",
"112 642 CURVE SMOOTH",
"112 57 LINE SMOOTH",
"112 32 OFFCURVE",
"94 22 OFFCURVE",
"53 22 CURVE SMOOTH",
"25 22 LINE",
"25 0 LINE",
"244 0 LINE",
"244 22 LINE",
"215 22 LINE SMOOTH",
"177 22 OFFCURVE",
"156 32 OFFCURVE",
"156 57 CURVE SMOOTH",
"156 659 LINE",
"583 0 LINE",
"583 -72 LINE SMOOTH",
"583 -167 OFFCURVE",
"513 -229 OFFCURVE",
"431 -235 CURVE",
"435 -257 LINE"
);
}
);
width = 746;
}
);
note = Eng;
unicode = 014A;
},
{
glyphname = Nlinebelow;
lastChange = "2015-10-02 09:32:29 +0000";
layers = (
{
layerId = "F0EF4016-32DD-4ABE-928D-BF0CB1E4FAE8";
name = Light;
paths = (
{
closed = 1;
nodes = (
"244 0 LINE",
"244 22 LINE",
"215 22 LINE SMOOTH",
"177 22 OFFCURVE",
"156 32 OFFCURVE",
"156 57 CURVE SMOOTH",
"156 655 LINE",
"584 0 LINE",
"633 0 LINE",
"633 642 LINE SMOOTH",
"633 667 OFFCURVE",
"654 677 OFFCURVE",
"692 677 CURVE SMOOTH",
"721 677 LINE",
"721 700 LINE",
"502 700 LINE",
"502 677 LINE",
"530 677 LINE SMOOTH",
"569 677 OFFCURVE",
"589 667 OFFCURVE",
"589 642 CURVE SMOOTH",
"589 101 LINE",
"201 700 LINE",
"25 700 LINE",
"25 677 LINE",
"53 677 LINE SMOOTH",
"92 677 OFFCURVE",
"112 667 OFFCURVE",
"112 642 CURVE SMOOTH",
"112 57 LINE SMOOTH",
"112 32 OFFCURVE",
"92 22 OFFCURVE",
"53 22 CURVE SMOOTH",
"25 22 LINE",
"25 0 LINE"
);
},
{
closed = 1;
nodes = (
"527 -106 LINE",
"527 -73 LINE",
"214 -73 LINE",
"214 -106 LINE"
);
}
);
width = 746;
}
);
note = Nlinebelow;
unicode = 1E48;
},
{
glyphname = Ntilde;
lastChange = "2015-10-02 09:32:28 +0000";
layers = (
{
layerId = "F0EF4016-32DD-4ABE-928D-BF0CB1E4FAE8";
name = Light;
paths = (
{
closed = 1;
nodes = (
"244 0 LINE",
"244 22 LINE",
"215 22 LINE SMOOTH",
"177 22 OFFCURVE",
"156 32 OFFCURVE",
"156 57 CURVE SMOOTH",
"156 655 LINE",
"584 0 LINE",
"633 0 LINE",
"633 642 LINE SMOOTH",
"633 667 OFFCURVE",
"654 677 OFFCURVE",
"692 677 CURVE SMOOTH",
"721 677 LINE",
"721 700 LINE",
"502 700 LINE",
"502 677 LINE",
"530 677 LINE SMOOTH",
"569 677 OFFCURVE",
"589 667 OFFCURVE",
"589 642 CURVE SMOOTH",
"589 101 LINE",
"201 700 LINE",
"25 700 LINE",
"25 677 LINE",
"53 677 LINE SMOOTH",
"92 677 OFFCURVE",
"112 667 OFFCURVE",
"112 642 CURVE SMOOTH",
"112 57 LINE SMOOTH",
"112 32 OFFCURVE",
"92 22 OFFCURVE",
"53 22 CURVE SMOOTH",
"25 22 LINE",
"25 0 LINE"
);
},
{
closed = 1;
nodes = (
"255 820 OFFCURVE",
"273 842 OFFCURVE",
"305 842 CURVE SMOOTH",
"352 842 OFFCURVE",
"400 786 OFFCURVE",
"448 786 CURVE SMOOTH",
"500 786 OFFCURVE",
"529 827 OFFCURVE",
"540 880 CURVE",
"521 890 LINE",
"507 850 OFFCURVE",
"491 827 OFFCURVE",
"458 827 CURVE SMOOTH",
"412 827 OFFCURVE",
"362 882 OFFCURVE",
"313 882 CURVE SMOOTH",
"265 882 OFFCURVE",
"233 845 OFFCURVE",
"223 792 CURVE",
"242 782 LINE"
);
}
);
width = 746;
}
);
note = Ntilde;
unicode = 00D1;
},
{
glyphname = O;
lastChange = "2015-10-02 09:32:29 +0000";
layers = (
{
layerId = "F0EF4016-32DD-4ABE-928D-BF0CB1E4FAE8";
name = Light;
paths = (
{
closed = 1;
nodes = (
"583 -10 OFFCURVE",
"701 122 OFFCURVE",
"701 350 CURVE SMOOTH",
"701 577 OFFCURVE",
"583 710 OFFCURVE",
"370 710 CURVE SMOOTH",
"156 710 OFFCURVE",
"38 577 OFFCURVE",
"38 350 CURVE SMOOTH",
"38 122 OFFCURVE",
"156 -10 OFFCURVE",
"370 -10 CURVE SMOOTH"
);
},
{
closed = 1;
nodes = (
"197 26 OFFCURVE",
"114 157 OFFCURVE",
"114 350 CURVE SMOOTH",
"114 543 OFFCURVE",
"197 674 OFFCURVE",
"369 674 CURVE SMOOTH",
"543 674 OFFCURVE",
"625 543 OFFCURVE",
"625 350 CURVE SMOOTH",
"625 157 OFFCURVE",
"543 26 OFFCURVE",
"369 26 CURVE SMOOTH"
);
}
);
width = 739;
}
);
leftKerningGroup = O;
note = O;
rightKerningGroup = O;
unicode = 004F;
},
{
glyphname = Oacute;
lastChange = "2015-10-02 09:32:29 +0000";
layers = (
{
layerId = "F0EF4016-32DD-4ABE-928D-BF0CB1E4FAE8";
name = Light;
paths = (
{
closed = 1;
nodes = (
"583 -10 OFFCURVE",
"701 122 OFFCURVE",
"701 350 CURVE SMOOTH",
"701 577 OFFCURVE",
"583 710 OFFCURVE",
"370 710 CURVE SMOOTH",
"156 710 OFFCURVE",
"38 577 OFFCURVE",
"38 350 CURVE SMOOTH",
"38 122 OFFCURVE",
"156 -10 OFFCURVE",
"370 -10 CURVE SMOOTH"
);
},
{
closed = 1;
nodes = (
"197 26 OFFCURVE",
"114 157 OFFCURVE",
"114 350 CURVE SMOOTH",
"114 543 OFFCURVE",
"197 674 OFFCURVE",
"369 674 CURVE SMOOTH",
"543 674 OFFCURVE",
"625 543 OFFCURVE",
"625 350 CURVE SMOOTH",
"625 157 OFFCURVE",
"543 26 OFFCURVE",
"369 26 CURVE SMOOTH"
);
},
{
closed = 1;
nodes = (
"431 863 LINE SMOOTH",
"449 873 OFFCURVE",
"459 885 OFFCURVE",
"459 899 CURVE SMOOTH",
"459 912 OFFCURVE",
"451 924 OFFCURVE",
"434 924 CURVE SMOOTH",
"417 924 OFFCURVE",
"402 911 OFFCURVE",
"394 904 CURVE SMOOTH",
"281 804 LINE",
"295 784 LINE"
);
}
);
width = 739;
}
);
leftKerningGroup = O;
note = Oacute;
rightKerningGroup = O;
unicode = 00D3;
},
{
glyphname = Obreve;
lastChange = "2015-10-02 09:32:29 +0000";
layers = (
{
layerId = "F0EF4016-32DD-4ABE-928D-BF0CB1E4FAE8";
name = Light;
paths = (
{
closed = 1;
nodes = (
"583 -10 OFFCURVE",
"701 122 OFFCURVE",
"701 350 CURVE SMOOTH",
"701 577 OFFCURVE",
"583 710 OFFCURVE",
"370 710 CURVE SMOOTH",
"156 710 OFFCURVE",
"38 577 OFFCURVE",
"38 350 CURVE SMOOTH",
"38 122 OFFCURVE",
"156 -10 OFFCURVE",
"370 -10 CURVE SMOOTH"
);
},
{
closed = 1;
nodes = (
"197 26 OFFCURVE",
"114 157 OFFCURVE",
"114 350 CURVE SMOOTH",
"114 543 OFFCURVE",
"197 674 OFFCURVE",
"369 674 CURVE SMOOTH",
"543 674 OFFCURVE",
"625 543 OFFCURVE",
"625 350 CURVE SMOOTH",
"625 157 OFFCURVE",
"543 26 OFFCURVE",
"369 26 CURVE SMOOTH"
);
},
{
closed = 1;
nodes = (
"460 774 OFFCURVE",
"505 823 OFFCURVE",
"510 899 CURVE",
"479 899 LINE",
"472 833 OFFCURVE",
"426 813 OFFCURVE",
"370 813 CURVE SMOOTH",
"314 813 OFFCURVE",
"267 833 OFFCURVE",
"259 899 CURVE",
"229 899 LINE",
"233 821 OFFCURVE",
"279 774 OFFCURVE",
"370 774 CURVE SMOOTH"
);
}
);
width = 739;
}
);
leftKerningGroup = O;
note = Obreve;
rightKerningGroup = O;
unicode = 014E;
},
{
glyphname = Ocaron;
lastChange = "2015-10-02 09:32:29 +0000";
layers = (
{
layerId = "F0EF4016-32DD-4ABE-928D-BF0CB1E4FAE8";
name = Light;
paths = (
{
closed = 1;
nodes = (
"583 -10 OFFCURVE",
"701 122 OFFCURVE",
"701 350 CURVE SMOOTH",
"701 577 OFFCURVE",
"583 710 OFFCURVE",
"370 710 CURVE SMOOTH",
"156 710 OFFCURVE",
"38 577 OFFCURVE",
"38 350 CURVE SMOOTH",
"38 122 OFFCURVE",
"156 -10 OFFCURVE",
"370 -10 CURVE SMOOTH"
);
},
{
closed = 1;
nodes = (
"197 26 OFFCURVE",
"114 157 OFFCURVE",
"114 350 CURVE SMOOTH",
"114 543 OFFCURVE",
"197 674 OFFCURVE",
"369 674 CURVE SMOOTH",
"543 674 OFFCURVE",
"625 543 OFFCURVE",
"625 350 CURVE SMOOTH",
"625 157 OFFCURVE",
"543 26 OFFCURVE",
"369 26 CURVE SMOOTH"
);
},
{
closed = 1;
nodes = (
"391 784 LINE",
"508 902 LINE",
"490 921 LINE",
"389 839 LINE",
"382 834 OFFCURVE",
"375 830 OFFCURVE",
"370 830 CURVE SMOOTH",
"365 830 OFFCURVE",
"359 832 OFFCURVE",
"350 839 CURVE SMOOTH",
"249 921 LINE",
"232 902 LINE",
"348 784 LINE"
);
}
);
width = 739;
}
);
leftKerningGroup = O;
note = Ocaron;
rightKerningGroup = O;
unicode = 01D1;
},
{
glyphname = Ocircumflex;
lastChange = "2015-10-02 09:32:29 +0000";
layers = (
{
layerId = "F0EF4016-32DD-4ABE-928D-BF0CB1E4FAE8";
name = Light;
paths = (
{
closed = 1;
nodes = (
"583 -10 OFFCURVE",
"701 122 OFFCURVE",
"701 350 CURVE SMOOTH",
"701 577 OFFCURVE",
"583 710 OFFCURVE",
"370 710 CURVE SMOOTH",
"156 710 OFFCURVE",
"38 577 OFFCURVE",
"38 350 CURVE SMOOTH",
"38 122 OFFCURVE",
"156 -10 OFFCURVE",
"370 -10 CURVE SMOOTH"
);
},
{
closed = 1;
nodes = (
"197 26 OFFCURVE",
"114 157 OFFCURVE",
"114 350 CURVE SMOOTH",
"114 543 OFFCURVE",
"197 674 OFFCURVE",
"369 674 CURVE SMOOTH",
"543 674 OFFCURVE",
"625 543 OFFCURVE",
"625 350 CURVE SMOOTH",
"625 157 OFFCURVE",
"543 26 OFFCURVE",
"369 26 CURVE SMOOTH"
);
},
{
closed = 1;
nodes = (
"350 866 LINE",
"357 871 OFFCURVE",
"365 875 OFFCURVE",
"370 875 CURVE SMOOTH",
"375 875 OFFCURVE",
"382 871 OFFCURVE",
"389 866 CURVE",
"490 784 LINE",
"508 803 LINE",
"391 921 LINE",
"348 921 LINE",
"232 803 LINE",
"249 784 LINE"
);
}
);
width = 739;
}
);
leftKerningGroup = O;
note = Ocircumflex;
rightKerningGroup = O;
unicode = 00D4;
},
{
glyphname = Ocircumflexacute;
lastChange = "2015-10-02 09:32:28 +0000";
layers = (
{
layerId = "F0EF4016-32DD-4ABE-928D-BF0CB1E4FAE8";
name = Light;
paths = (
{
closed = 1;
nodes = (
"583 -10 OFFCURVE",
"701 122 OFFCURVE",
"701 350 CURVE SMOOTH",
"701 577 OFFCURVE",
"583 710 OFFCURVE",
"370 710 CURVE SMOOTH",
"156 710 OFFCURVE",
"38 577 OFFCURVE",
"38 350 CURVE SMOOTH",
"38 122 OFFCURVE",
"156 -10 OFFCURVE",
"370 -10 CURVE SMOOTH"
);
},
{
closed = 1;
nodes = (
"197 26 OFFCURVE",
"114 157 OFFCURVE",
"114 350 CURVE SMOOTH",
"114 543 OFFCURVE",
"197 674 OFFCURVE",
"369 674 CURVE SMOOTH",
"543 674 OFFCURVE",
"625 543 OFFCURVE",
"625 350 CURVE SMOOTH",
"625 157 OFFCURVE",
"543 26 OFFCURVE",
"369 26 CURVE SMOOTH"
);
},
{
closed = 1;
nodes = (
"347 861 LINE",
"355 867 OFFCURVE",
"363 873 OFFCURVE",
"369 873 CURVE SMOOTH",
"374 873 OFFCURVE",
"381 869 OFFCURVE",
"388 864 CURVE",
"488 782 LINE",
"505 802 LINE",
"390 920 LINE",
"348 920 LINE",
"233 802 LINE",
"250 782 LINE"
);
},
{
closed = 1;
nodes = (
"599 956 LINE SMOOTH",
"618 966 OFFCURVE",
"629 980 OFFCURVE",
"629 992 CURVE SMOOTH",
"629 1005 OFFCURVE",
"619 1018 OFFCURVE",
"601 1018 CURVE SMOOTH",
"585 1018 OFFCURVE",
"570 1005 OFFCURVE",
"561 996 CURVE",
"462 905 LINE",
"477 887 LINE"
);
}
);
width = 739;
}
);
leftKerningGroup = O;
note = Ocircumflexacute;
rightKerningGroup = O;
unicode = 1ED0;
},
{
glyphname = Ocircumflexdotbelow;
lastChange = "2015-12-01 09:05:56 +0000";
layers = (
{
layerId = "F0EF4016-32DD-4ABE-928D-BF0CB1E4FAE8";
name = Light;
paths = (
{
closed = 1;
nodes = (
"583 -10 OFFCURVE",
"701 122 OFFCURVE",
"701 350 CURVE SMOOTH",
"701 577 OFFCURVE",
"583 710 OFFCURVE",
"370 710 CURVE SMOOTH",
"156 710 OFFCURVE",
"38 577 OFFCURVE",
"38 350 CURVE SMOOTH",
"38 122 OFFCURVE",
"156 -10 OFFCURVE",
"370 -10 CURVE SMOOTH"
);
},
{
closed = 1;
nodes = (
"197 26 OFFCURVE",
"114 157 OFFCURVE",
"114 350 CURVE SMOOTH",
"114 543 OFFCURVE",
"197 674 OFFCURVE",
"369 674 CURVE SMOOTH",
"543 674 OFFCURVE",
"625 543 OFFCURVE",
"625 350 CURVE SMOOTH",
"625 157 OFFCURVE",
"543 26 OFFCURVE",
"369 26 CURVE SMOOTH"
);
},
{
closed = 1;
nodes = (
"350 866 LINE",
"357 871 OFFCURVE",
"365 875 OFFCURVE",
"370 875 CURVE SMOOTH",
"375 875 OFFCURVE",
"382 871 OFFCURVE",
"389 866 CURVE",
"490 784 LINE",
"508 803 LINE",
"391 921 LINE",
"348 921 LINE",
"232 803 LINE",
"249 784 LINE"
);
},
{
closed = 1;
nodes = (
"389 -147 OFFCURVE",
"405 -131 OFFCURVE",
"405 -106 CURVE SMOOTH",
"405 -81 OFFCURVE",
"389 -64 OFFCURVE",
"364 -64 CURVE SMOOTH",
"340 -64 OFFCURVE",
"323 -81 OFFCURVE",
"323 -106 CURVE SMOOTH",
"323 -131 OFFCURVE",
"340 -147 OFFCURVE",
"364 -147 CURVE SMOOTH"
);
}
);
width = 739;
}
);
leftKerningGroup = O;
note = Ocircumflexdotbelow;
rightKerningGroup = O;
unicode = 1ED8;
},
{
glyphname = Ocircumflexgrave;
lastChange = "2015-10-02 09:32:28 +0000";
layers = (
{
layerId = "F0EF4016-32DD-4ABE-928D-BF0CB1E4FAE8";
name = Light;
paths = (
{
closed = 1;
nodes = (
"583 -10 OFFCURVE",
"701 122 OFFCURVE",
"701 350 CURVE SMOOTH",
"701 577 OFFCURVE",
"583 710 OFFCURVE",
"370 710 CURVE SMOOTH",
"156 710 OFFCURVE",
"38 577 OFFCURVE",
"38 350 CURVE SMOOTH",
"38 122 OFFCURVE",
"156 -10 OFFCURVE",
"370 -10 CURVE SMOOTH"
);
},
{
closed = 1;
nodes = (
"197 26 OFFCURVE",
"114 157 OFFCURVE",
"114 350 CURVE SMOOTH",
"114 543 OFFCURVE",
"197 674 OFFCURVE",
"369 674 CURVE SMOOTH",
"543 674 OFFCURVE",
"625 543 OFFCURVE",
"625 350 CURVE SMOOTH",
"625 157 OFFCURVE",
"543 26 OFFCURVE",
"369 26 CURVE SMOOTH"
);
},
{
closed = 1;
nodes = (
"284 905 LINE",
"185 996 LINE",
"176 1005 OFFCURVE",
"162 1018 OFFCURVE",
"145 1018 CURVE SMOOTH",
"128 1018 OFFCURVE",
"118 1005 OFFCURVE",
"118 992 CURVE SMOOTH",
"118 980 OFFCURVE",
"128 966 OFFCURVE",
"147 956 CURVE SMOOTH",
"270 887 LINE"
);
},
{
closed = 1;
nodes = (
"347 861 LINE",
"355 867 OFFCURVE",
"363 873 OFFCURVE",
"369 873 CURVE SMOOTH",
"374 873 OFFCURVE",
"381 869 OFFCURVE",
"388 864 CURVE",
"488 782 LINE",
"505 802 LINE",
"390 920 LINE",
"348 920 LINE",
"233 802 LINE",
"250 782 LINE"
);
}
);
width = 739;
}
);
leftKerningGroup = O;
note = Ocircumflexgrave;
rightKerningGroup = O;
unicode = 1ED2;
},
{
glyphname = Ocircumflexhookabove;
lastChange = "2015-10-02 09:32:29 +0000";
layers = (
{
layerId = "F0EF4016-32DD-4ABE-928D-BF0CB1E4FAE8";
name = Light;
paths = (
{
closed = 1;
nodes = (
"583 -10 OFFCURVE",
"701 122 OFFCURVE",
"701 350 CURVE SMOOTH",
"701 577 OFFCURVE",
"583 710 OFFCURVE",
"370 710 CURVE SMOOTH",
"156 710 OFFCURVE",
"38 577 OFFCURVE",
"38 350 CURVE SMOOTH",
"38 122 OFFCURVE",
"156 -10 OFFCURVE",
"370 -10 CURVE SMOOTH"
);
},
{
closed = 1;
nodes = (
"197 26 OFFCURVE",
"114 157 OFFCURVE",
"114 350 CURVE SMOOTH",
"114 543 OFFCURVE",
"197 674 OFFCURVE",
"369 674 CURVE SMOOTH",
"543 674 OFFCURVE",
"625 543 OFFCURVE",
"625 350 CURVE SMOOTH",
"625 157 OFFCURVE",
"543 26 OFFCURVE",
"369 26 CURVE SMOOTH"
);
},
{
closed = 1;
nodes = (
"339 855 LINE",
"349 864 OFFCURVE",
"360 874 OFFCURVE",
"369 874 CURVE SMOOTH",
"374 874 OFFCURVE",
"381 870 OFFCURVE",
"388 865 CURVE",
"488 783 LINE",
"505 803 LINE",
"390 921 LINE",
"348 921 LINE",
"233 803 LINE",
"250 783 LINE"
);
},
{
closed = 1;
nodes = (
"533 890 LINE",
"515 896 OFFCURVE",
"505 900 OFFCURVE",
"505 917 CURVE SMOOTH",
"505 944 OFFCURVE",
"582 954 OFFCURVE",
"582 997 CURVE SMOOTH",
"582 1032 OFFCURVE",
"542 1048 OFFCURVE",
"502 1048 CURVE SMOOTH",
"473 1048 OFFCURVE",
"429 1038 OFFCURVE",
"429 1009 CURVE SMOOTH",
"429 997 OFFCURVE",
"439 989 OFFCURVE",
"449 989 CURVE SMOOTH",
"478 989 OFFCURVE",
"464 1026 OFFCURVE",
"506 1026 CURVE SMOOTH",
"524 1026 OFFCURVE",
"536 1014 OFFCURVE",
"536 1000 CURVE SMOOTH",
"536 962 OFFCURVE",
"465 954 OFFCURVE",
"465 916 CURVE SMOOTH",
"465 893 OFFCURVE",
"481 873 OFFCURVE",
"525 873 CURVE"
);
}
);
width = 739;
}
);
leftKerningGroup = O;
note = Ocircumflexhookabove;
rightKerningGroup = O;
unicode = 1ED4;
},
{
glyphname = Ocircumflextilde;
lastChange = "2015-10-02 09:32:28 +0000";
layers = (
{
layerId = "F0EF4016-32DD-4ABE-928D-BF0CB1E4FAE8";
name = Light;
paths = (
{
closed = 1;
nodes = (
"583 -10 OFFCURVE",
"701 122 OFFCURVE",
"701 350 CURVE SMOOTH",
"701 577 OFFCURVE",
"583 710 OFFCURVE",
"370 710 CURVE SMOOTH",
"156 710 OFFCURVE",
"38 577 OFFCURVE",
"38 350 CURVE SMOOTH",
"38 122 OFFCURVE",
"156 -10 OFFCURVE",
"370 -10 CURVE SMOOTH"
);
},
{
closed = 1;
nodes = (
"197 26 OFFCURVE",
"114 157 OFFCURVE",
"114 350 CURVE SMOOTH",
"114 543 OFFCURVE",
"197 674 OFFCURVE",
"369 674 CURVE SMOOTH",
"543 674 OFFCURVE",
"625 543 OFFCURVE",
"625 350 CURVE SMOOTH",
"625 157 OFFCURVE",
"543 26 OFFCURVE",
"369 26 CURVE SMOOTH"
);
},
{
closed = 1;
nodes = (
"347 862 LINE",
"355 868 OFFCURVE",
"363 874 OFFCURVE",
"369 874 CURVE SMOOTH",
"374 874 OFFCURVE",
"381 870 OFFCURVE",
"388 865 CURVE",
"488 783 LINE",
"505 803 LINE",
"390 921 LINE",
"348 921 LINE",
"233 803 LINE",
"250 783 LINE"
);
},
{
closed = 1;
nodes = (
"249 988 OFFCURVE",
"267 1010 OFFCURVE",
"298 1010 CURVE SMOOTH",
"344 1010 OFFCURVE",
"390 954 OFFCURVE",
"437 954 CURVE SMOOTH",
"486 954 OFFCURVE",
"514 995 OFFCURVE",
"525 1048 CURVE",
"506 1058 LINE",
"494 1018 OFFCURVE",
"478 994 OFFCURVE",
"445 994 CURVE SMOOTH",
"401 994 OFFCURVE",
"353 1049 OFFCURVE",
"306 1049 CURVE SMOOTH",
"260 1049 OFFCURVE",
"228 1012 OFFCURVE",
"219 960 CURVE",
"237 949 LINE"
);
}
);
width = 739;
}
);
leftKerningGroup = O;
note = Ocircumflextilde;
rightKerningGroup = O;
unicode = 1ED6;
},
{
glyphname = Odieresis;
lastChange = "2015-10-02 09:32:29 +0000";
layers = (
{
layerId = "F0EF4016-32DD-4ABE-928D-BF0CB1E4FAE8";
name = Light;
paths = (
{
closed = 1;
nodes = (
"583 -10 OFFCURVE",
"701 122 OFFCURVE",
"701 350 CURVE SMOOTH",
"701 577 OFFCURVE",
"583 710 OFFCURVE",
"370 710 CURVE SMOOTH",
"156 710 OFFCURVE",
"38 577 OFFCURVE",
"38 350 CURVE SMOOTH",
"38 122 OFFCURVE",
"156 -10 OFFCURVE",
"370 -10 CURVE SMOOTH"
);
},
{
closed = 1;
nodes = (
"197 26 OFFCURVE",
"114 157 OFFCURVE",
"114 350 CURVE SMOOTH",
"114 543 OFFCURVE",
"197 674 OFFCURVE",
"369 674 CURVE SMOOTH",
"543 674 OFFCURVE",
"625 543 OFFCURVE",
"625 350 CURVE SMOOTH",
"625 157 OFFCURVE",
"543 26 OFFCURVE",
"369 26 CURVE SMOOTH"
);
},
{
closed = 1;
nodes = (
"290 782 OFFCURVE",
"306 799 OFFCURVE",
"306 823 CURVE SMOOTH",
"306 848 OFFCURVE",
"290 865 OFFCURVE",
"265 865 CURVE SMOOTH",
"240 865 OFFCURVE",
"224 848 OFFCURVE",
"224 823 CURVE SMOOTH",
"224 799 OFFCURVE",
"240 782 OFFCURVE",
"265 782 CURVE SMOOTH"
);
},
{
closed = 1;
nodes = (
"499 782 OFFCURVE",
"515 799 OFFCURVE",
"515 823 CURVE SMOOTH",
"515 848 OFFCURVE",
"499 865 OFFCURVE",
"474 865 CURVE SMOOTH",
"449 865 OFFCURVE",
"433 848 OFFCURVE",
"433 823 CURVE SMOOTH",
"433 799 OFFCURVE",
"449 782 OFFCURVE",
"474 782 CURVE SMOOTH"
);
}
);
width = 739;
}
);
leftKerningGroup = O;
note = Odieresis;
rightKerningGroup = O;
unicode = 00D6;
},
{
glyphname = Odotbelow;
lastChange = "2015-12-01 09:06:00 +0000";
layers = (
{
layerId = "F0EF4016-32DD-4ABE-928D-BF0CB1E4FAE8";
name = Light;
paths = (
{
closed = 1;
nodes = (
"38 122 OFFCURVE",
"156 -10 OFFCURVE",
"370 -10 CURVE SMOOTH",
"583 -10 OFFCURVE",
"701 122 OFFCURVE",
"701 350 CURVE SMOOTH",
"701 577 OFFCURVE",
"583 710 OFFCURVE",
"370 710 CURVE SMOOTH",
"156 710 OFFCURVE",
"38 577 OFFCURVE",
"38 350 CURVE SMOOTH"
);
},
{
closed = 1;
nodes = (
"114 543 OFFCURVE",
"197 674 OFFCURVE",
"369 674 CURVE SMOOTH",
"543 674 OFFCURVE",
"625 543 OFFCURVE",
"625 350 CURVE SMOOTH",
"625 157 OFFCURVE",
"543 26 OFFCURVE",
"369 26 CURVE SMOOTH",
"197 26 OFFCURVE",
"114 157 OFFCURVE",
"114 350 CURVE SMOOTH"
);
},
{
closed = 1;
nodes = (
"328 -131 OFFCURVE",
"345 -147 OFFCURVE",
"369 -147 CURVE SMOOTH",
"394 -147 OFFCURVE",
"410 -131 OFFCURVE",
"410 -106 CURVE SMOOTH",
"410 -81 OFFCURVE",
"394 -64 OFFCURVE",
"369 -64 CURVE SMOOTH",
"345 -64 OFFCURVE",
"328 -81 OFFCURVE",
"328 -106 CURVE SMOOTH"
);
}
);
width = 739;
}
);
leftKerningGroup = O;
note = Odotbelow;
rightKerningGroup = O;
unicode = 1ECC;
},
{
glyphname = Ograve;
lastChange = "2015-10-02 09:32:29 +0000";
layers = (
{
layerId = "F0EF4016-32DD-4ABE-928D-BF0CB1E4FAE8";
name = Light;
paths = (
{
closed = 1;
nodes = (
"583 -10 OFFCURVE",
"701 122 OFFCURVE",
"701 350 CURVE SMOOTH",
"701 577 OFFCURVE",
"583 710 OFFCURVE",
"370 710 CURVE SMOOTH",
"156 710 OFFCURVE",
"38 577 OFFCURVE",
"38 350 CURVE SMOOTH",
"38 122 OFFCURVE",
"156 -10 OFFCURVE",
"370 -10 CURVE SMOOTH"
);
},
{
closed = 1;
nodes = (
"197 26 OFFCURVE",
"114 157 OFFCURVE",
"114 350 CURVE SMOOTH",
"114 543 OFFCURVE",
"197 674 OFFCURVE",
"369 674 CURVE SMOOTH",
"543 674 OFFCURVE",
"625 543 OFFCURVE",
"625 350 CURVE SMOOTH",
"625 157 OFFCURVE",
"543 26 OFFCURVE",
"369 26 CURVE SMOOTH"
);
},
{
closed = 1;
nodes = (
"441 804 LINE",
"329 904 LINE SMOOTH",
"320 912 OFFCURVE",
"306 924 OFFCURVE",
"290 924 CURVE SMOOTH",
"277 924 OFFCURVE",
"264 914 OFFCURVE",
"264 899 CURVE SMOOTH",
"264 884 OFFCURVE",
"277 870 OFFCURVE",
"290 863 CURVE SMOOTH",
"427 784 LINE"
);
}
);
width = 739;
}
);
leftKerningGroup = O;
note = Ograve;
rightKerningGroup = O;
unicode = 00D2;
},
{
glyphname = Ohookabove;
lastChange = "2015-10-02 09:32:29 +0000";
layers = (
{
layerId = "F0EF4016-32DD-4ABE-928D-BF0CB1E4FAE8";
name = Light;
paths = (
{
closed = 1;
nodes = (
"583 -10 OFFCURVE",
"701 122 OFFCURVE",
"701 350 CURVE SMOOTH",
"701 577 OFFCURVE",
"583 710 OFFCURVE",
"370 710 CURVE SMOOTH",
"156 710 OFFCURVE",
"38 577 OFFCURVE",
"38 350 CURVE SMOOTH",
"38 122 OFFCURVE",
"156 -10 OFFCURVE",
"370 -10 CURVE SMOOTH"
);
},
{
closed = 1;
nodes = (
"197 26 OFFCURVE",
"114 157 OFFCURVE",
"114 350 CURVE SMOOTH",
"114 543 OFFCURVE",
"197 674 OFFCURVE",
"369 674 CURVE SMOOTH",
"543 674 OFFCURVE",
"625 543 OFFCURVE",
"625 350 CURVE SMOOTH",
"625 157 OFFCURVE",
"543 26 OFFCURVE",
"369 26 CURVE SMOOTH"
);
},
{
closed = 1;
nodes = (
"395 797 LINE",
"376 803 OFFCURVE",
"365 808 OFFCURVE",
"365 826 CURVE SMOOTH",
"365 858 OFFCURVE",
"450 874 OFFCURVE",
"450 923 CURVE SMOOTH",
"450 963 OFFCURVE",
"415 983 OFFCURVE",
"367 983 CURVE SMOOTH",
"322 983 OFFCURVE",
"285 966 OFFCURVE",
"285 935 CURVE SMOOTH",
"285 919 OFFCURVE",
"292 912 OFFCURVE",
"305 912 CURVE SMOOTH",
"324 912 OFFCURVE",
"326 926 OFFCURVE",
"330 937 CURVE SMOOTH",
"335 952 OFFCURVE",
"352 957 OFFCURVE",
"368 957 CURVE SMOOTH",
"392 957 OFFCURVE",
"403 943 OFFCURVE",
"403 926 CURVE SMOOTH",
"403 882 OFFCURVE",
"324 871 OFFCURVE",
"324 826 CURVE SMOOTH",
"324 800 OFFCURVE",
"342 779 OFFCURVE",
"386 779 CURVE"
);
}
);
width = 739;
}
);
leftKerningGroup = O;
note = Ohookabove;
rightKerningGroup = O;
unicode = 1ECE;
},
{
glyphname = Ohorn;
lastChange = "2015-12-01 09:06:11 +0000";
layers = (
{
layerId = "F0EF4016-32DD-4ABE-928D-BF0CB1E4FAE8";
name = Light;
paths = (
{
closed = 1;
nodes = (
"583 -10 OFFCURVE",
"701 122 OFFCURVE",
"701 350 CURVE SMOOTH",
"701 577 OFFCURVE",
"583 710 OFFCURVE",
"370 710 CURVE SMOOTH",
"156 710 OFFCURVE",
"38 577 OFFCURVE",
"38 350 CURVE SMOOTH",
"38 122 OFFCURVE",
"156 -10 OFFCURVE",
"370 -10 CURVE SMOOTH"
);
},
{
closed = 1;
nodes = (
"197 26 OFFCURVE",
"114 157 OFFCURVE",
"114 350 CURVE SMOOTH",
"114 543 OFFCURVE",
"197 674 OFFCURVE",
"369 674 CURVE SMOOTH",
"543 674 OFFCURVE",
"625 543 OFFCURVE",
"625 350 CURVE SMOOTH",
"625 157 OFFCURVE",
"543 26 OFFCURVE",
"369 26 CURVE SMOOTH"
);
},
{
closed = 1;
nodes = (
"672 586 OFFCURVE",
"725 645 OFFCURVE",
"725 710 CURVE SMOOTH",
"725 753 OFFCURVE",
"701 769 OFFCURVE",
"678 769 CURVE SMOOTH",
"653 769 OFFCURVE",
"639 751 OFFCURVE",
"639 731 CURVE SMOOTH",
"639 699 OFFCURVE",
"670 695 OFFCURVE",
"670 662 CURVE SMOOTH",
"670 628 OFFCURVE",
"639 600 OFFCURVE",
"609 582 CURVE",
"609 559 LINE"
);
}
);
width = 743;
}
);
leftKerningGroup = O;
note = Ohorn;
rightKerningGroup = O;
unicode = 01A0;
},
{
glyphname = Ohornacute;
lastChange = "2015-10-02 09:32:29 +0000";
layers = (
{
layerId = "F0EF4016-32DD-4ABE-928D-BF0CB1E4FAE8";
name = Light;
paths = (
{
closed = 1;
nodes = (
"583 -10 OFFCURVE",
"701 122 OFFCURVE",
"701 350 CURVE SMOOTH",
"701 577 OFFCURVE",
"583 710 OFFCURVE",
"370 710 CURVE SMOOTH",
"156 710 OFFCURVE",
"38 577 OFFCURVE",
"38 350 CURVE SMOOTH",
"38 122 OFFCURVE",
"156 -10 OFFCURVE",
"370 -10 CURVE SMOOTH"
);
},
{
closed = 1;
nodes = (
"197 26 OFFCURVE",
"114 157 OFFCURVE",
"114 350 CURVE SMOOTH",
"114 543 OFFCURVE",
"197 674 OFFCURVE",
"369 674 CURVE SMOOTH",
"543 674 OFFCURVE",
"625 543 OFFCURVE",
"625 350 CURVE SMOOTH",
"625 157 OFFCURVE",
"543 26 OFFCURVE",
"369 26 CURVE SMOOTH"
);
},
{
closed = 1;
nodes = (
"413 862 LINE SMOOTH",
"431 872 OFFCURVE",
"441 884 OFFCURVE",
"441 898 CURVE SMOOTH",
"441 911 OFFCURVE",
"433 923 OFFCURVE",
"416 923 CURVE SMOOTH",
"399 923 OFFCURVE",
"384 910 OFFCURVE",
"376 903 CURVE SMOOTH",
"263 803 LINE",
"277 783 LINE"
);
},
{
closed = 1;
nodes = (
"672 586 OFFCURVE",
"725 645 OFFCURVE",
"725 710 CURVE SMOOTH",
"725 753 OFFCURVE",
"701 769 OFFCURVE",
"678 769 CURVE SMOOTH",
"653 769 OFFCURVE",
"639 751 OFFCURVE",
"639 731 CURVE SMOOTH",
"639 699 OFFCURVE",
"670 695 OFFCURVE",
"670 662 CURVE SMOOTH",
"670 628 OFFCURVE",
"639 600 OFFCURVE",
"609 582 CURVE",
"609 559 LINE"
);
}
);
width = 743;
}
);
leftKerningGroup = O;
note = Ohornacute;
rightKerningGroup = O;
unicode = 1EDA;
},
{
glyphname = Ohorndotbelow;
lastChange = "2015-12-01 09:06:17 +0000";
layers = (
{
layerId = "F0EF4016-32DD-4ABE-928D-BF0CB1E4FAE8";
name = Light;
paths = (
{
closed = 1;
nodes = (
"583 -10 OFFCURVE",
"701 122 OFFCURVE",
"701 350 CURVE SMOOTH",
"701 577 OFFCURVE",
"583 710 OFFCURVE",
"370 710 CURVE SMOOTH",
"156 710 OFFCURVE",
"38 577 OFFCURVE",
"38 350 CURVE SMOOTH",
"38 122 OFFCURVE",
"156 -10 OFFCURVE",
"370 -10 CURVE SMOOTH"
);
},
{
closed = 1;
nodes = (
"197 26 OFFCURVE",
"114 157 OFFCURVE",
"114 350 CURVE SMOOTH",
"114 543 OFFCURVE",
"197 674 OFFCURVE",
"369 674 CURVE SMOOTH",
"543 674 OFFCURVE",
"625 543 OFFCURVE",
"625 350 CURVE SMOOTH",
"625 157 OFFCURVE",
"543 26 OFFCURVE",
"369 26 CURVE SMOOTH"
);
},
{
closed = 1;
nodes = (
"672 586 OFFCURVE",
"725 645 OFFCURVE",
"725 710 CURVE SMOOTH",
"725 753 OFFCURVE",
"701 769 OFFCURVE",
"678 769 CURVE SMOOTH",
"653 769 OFFCURVE",
"639 751 OFFCURVE",
"639 731 CURVE SMOOTH",
"639 699 OFFCURVE",
"670 695 OFFCURVE",
"670 662 CURVE SMOOTH",
"670 628 OFFCURVE",
"639 600 OFFCURVE",
"609 582 CURVE",
"609 559 LINE"
);
},
{
closed = 1;
nodes = (
"379 -147 OFFCURVE",
"395 -131 OFFCURVE",
"395 -106 CURVE SMOOTH",
"395 -81 OFFCURVE",
"379 -64 OFFCURVE",
"354 -64 CURVE SMOOTH",
"330 -64 OFFCURVE",
"313 -81 OFFCURVE",
"313 -106 CURVE SMOOTH",
"313 -131 OFFCURVE",
"330 -147 OFFCURVE",
"354 -147 CURVE SMOOTH"
);
}
);
width = 743;
}
);
leftKerningGroup = O;
note = Ohorndotbelow;
rightKerningGroup = O;
unicode = 1EE2;
},
{
glyphname = Ohorngrave;
lastChange = "2015-10-02 09:32:29 +0000";
layers = (
{
layerId = "F0EF4016-32DD-4ABE-928D-BF0CB1E4FAE8";
name = Light;
paths = (
{
closed = 1;
nodes = (
"583 -10 OFFCURVE",
"701 122 OFFCURVE",
"701 350 CURVE SMOOTH",
"701 577 OFFCURVE",
"583 710 OFFCURVE",
"370 710 CURVE SMOOTH",
"156 710 OFFCURVE",
"38 577 OFFCURVE",
"38 350 CURVE SMOOTH",
"38 122 OFFCURVE",
"156 -10 OFFCURVE",
"370 -10 CURVE SMOOTH"
);
},
{
closed = 1;
nodes = (
"197 26 OFFCURVE",
"114 157 OFFCURVE",
"114 350 CURVE SMOOTH",
"114 543 OFFCURVE",
"197 674 OFFCURVE",
"369 674 CURVE SMOOTH",
"543 674 OFFCURVE",
"625 543 OFFCURVE",
"625 350 CURVE SMOOTH",
"625 157 OFFCURVE",
"543 26 OFFCURVE",
"369 26 CURVE SMOOTH"
);
},
{
closed = 1;
nodes = (
"444 810 LINE",
"332 910 LINE SMOOTH",
"323 918 OFFCURVE",
"309 930 OFFCURVE",
"293 930 CURVE SMOOTH",
"280 930 OFFCURVE",
"267 920 OFFCURVE",
"267 905 CURVE SMOOTH",
"267 890 OFFCURVE",
"280 876 OFFCURVE",
"293 869 CURVE SMOOTH",
"430 790 LINE"
);
},
{
closed = 1;
nodes = (
"672 586 OFFCURVE",
"725 645 OFFCURVE",
"725 710 CURVE SMOOTH",
"725 753 OFFCURVE",
"701 769 OFFCURVE",
"678 769 CURVE SMOOTH",
"653 769 OFFCURVE",
"639 751 OFFCURVE",
"639 731 CURVE SMOOTH",
"639 699 OFFCURVE",
"670 695 OFFCURVE",
"670 662 CURVE SMOOTH",
"670 628 OFFCURVE",
"639 600 OFFCURVE",
"609 582 CURVE",
"609 559 LINE"
);
}
);
width = 743;
}
);
leftKerningGroup = O;
note = Ohorngrave;
rightKerningGroup = O;
unicode = 1EDC;
},
{
glyphname = Ohornhookabove;
lastChange = "2015-10-02 09:32:28 +0000";
layers = (
{
layerId = "F0EF4016-32DD-4ABE-928D-BF0CB1E4FAE8";
name = Light;
paths = (
{
closed = 1;
nodes = (
"583 -10 OFFCURVE",
"701 122 OFFCURVE",
"701 350 CURVE SMOOTH",
"701 577 OFFCURVE",
"583 710 OFFCURVE",
"370 710 CURVE SMOOTH",
"156 710 OFFCURVE",
"38 577 OFFCURVE",
"38 350 CURVE SMOOTH",
"38 122 OFFCURVE",
"156 -10 OFFCURVE",
"370 -10 CURVE SMOOTH"
);
},
{
closed = 1;
nodes = (
"197 26 OFFCURVE",
"114 157 OFFCURVE",
"114 350 CURVE SMOOTH",
"114 543 OFFCURVE",
"197 674 OFFCURVE",
"369 674 CURVE SMOOTH",
"543 674 OFFCURVE",
"625 543 OFFCURVE",
"625 350 CURVE SMOOTH",
"625 157 OFFCURVE",
"543 26 OFFCURVE",
"369 26 CURVE SMOOTH"
);
},
{
closed = 1;
nodes = (
"402 804 LINE",
"383 810 OFFCURVE",
"372 815 OFFCURVE",
"372 833 CURVE SMOOTH",
"372 865 OFFCURVE",
"457 881 OFFCURVE",
"457 930 CURVE SMOOTH",
"457 970 OFFCURVE",
"422 990 OFFCURVE",
"374 990 CURVE SMOOTH",
"329 990 OFFCURVE",
"292 973 OFFCURVE",
"292 942 CURVE SMOOTH",
"292 926 OFFCURVE",
"299 919 OFFCURVE",
"312 919 CURVE SMOOTH",
"331 919 OFFCURVE",
"333 933 OFFCURVE",
"337 944 CURVE SMOOTH",
"342 959 OFFCURVE",
"359 964 OFFCURVE",
"375 964 CURVE SMOOTH",
"399 964 OFFCURVE",
"410 950 OFFCURVE",
"410 933 CURVE SMOOTH",
"410 889 OFFCURVE",
"331 878 OFFCURVE",
"331 833 CURVE SMOOTH",
"331 807 OFFCURVE",
"349 786 OFFCURVE",
"393 786 CURVE"
);
},
{
closed = 1;
nodes = (
"672 586 OFFCURVE",
"725 645 OFFCURVE",
"725 710 CURVE SMOOTH",
"725 753 OFFCURVE",
"701 769 OFFCURVE",
"678 769 CURVE SMOOTH",
"653 769 OFFCURVE",
"639 751 OFFCURVE",
"639 731 CURVE SMOOTH",
"639 699 OFFCURVE",
"670 695 OFFCURVE",
"670 662 CURVE SMOOTH",
"670 628 OFFCURVE",
"639 600 OFFCURVE",
"609 582 CURVE",
"609 559 LINE"
);
}
);
width = 743;
}
);
leftKerningGroup = O;
note = Ohornhookabove;
rightKerningGroup = O;
unicode = 1EDE;
},
{
glyphname = Ohorntilde;
lastChange = "2015-10-02 09:32:28 +0000";
layers = (
{
layerId = "F0EF4016-32DD-4ABE-928D-BF0CB1E4FAE8";
name = Light;
paths = (
{
closed = 1;
nodes = (
"583 -10 OFFCURVE",
"701 122 OFFCURVE",
"701 350 CURVE SMOOTH",
"701 577 OFFCURVE",
"583 710 OFFCURVE",
"370 710 CURVE SMOOTH",
"156 710 OFFCURVE",
"38 577 OFFCURVE",
"38 350 CURVE SMOOTH",
"38 122 OFFCURVE",
"156 -10 OFFCURVE",
"370 -10 CURVE SMOOTH"
);
},
{
closed = 1;
nodes = (
"197 26 OFFCURVE",
"114 157 OFFCURVE",
"114 350 CURVE SMOOTH",
"114 543 OFFCURVE",
"197 674 OFFCURVE",
"369 674 CURVE SMOOTH",
"543 674 OFFCURVE",
"625 543 OFFCURVE",
"625 350 CURVE SMOOTH",
"625 157 OFFCURVE",
"543 26 OFFCURVE",
"369 26 CURVE SMOOTH"
);
},
{
closed = 1;
nodes = (
"229 827 OFFCURVE",
"247 849 OFFCURVE",
"279 849 CURVE SMOOTH",
"326 849 OFFCURVE",
"374 793 OFFCURVE",
"422 793 CURVE SMOOTH",
"474 793 OFFCURVE",
"503 834 OFFCURVE",
"514 887 CURVE",
"495 897 LINE",
"481 857 OFFCURVE",
"465 834 OFFCURVE",
"432 834 CURVE SMOOTH",
"386 834 OFFCURVE",
"336 889 OFFCURVE",
"287 889 CURVE SMOOTH",
"239 889 OFFCURVE",
"207 852 OFFCURVE",
"197 799 CURVE",
"216 789 LINE"
);
},
{
closed = 1;
nodes = (
"672 586 OFFCURVE",
"725 645 OFFCURVE",
"725 710 CURVE SMOOTH",
"725 753 OFFCURVE",
"701 769 OFFCURVE",
"678 769 CURVE SMOOTH",
"653 769 OFFCURVE",
"639 751 OFFCURVE",
"639 731 CURVE SMOOTH",
"639 699 OFFCURVE",
"670 695 OFFCURVE",
"670 662 CURVE SMOOTH",
"670 628 OFFCURVE",
"639 600 OFFCURVE",
"609 582 CURVE",
"609 559 LINE"
);
}
);
width = 743;
}
);
leftKerningGroup = O;
note = Ohorntilde;
rightKerningGroup = O;
unicode = 1EE0;
},
{
glyphname = Ohungarumlaut;
lastChange = "2015-10-02 09:32:29 +0000";
layers = (
{
layerId = "F0EF4016-32DD-4ABE-928D-BF0CB1E4FAE8";
name = Light;
paths = (
{
closed = 1;
nodes = (
"583 -10 OFFCURVE",
"701 122 OFFCURVE",
"701 350 CURVE SMOOTH",
"701 577 OFFCURVE",
"583 710 OFFCURVE",
"370 710 CURVE SMOOTH",
"156 710 OFFCURVE",
"38 577 OFFCURVE",
"38 350 CURVE SMOOTH",
"38 122 OFFCURVE",
"156 -10 OFFCURVE",
"370 -10 CURVE SMOOTH"
);
},
{
closed = 1;
nodes = (
"197 26 OFFCURVE",
"114 157 OFFCURVE",
"114 350 CURVE SMOOTH",
"114 543 OFFCURVE",
"197 674 OFFCURVE",
"369 674 CURVE SMOOTH",
"543 674 OFFCURVE",
"625 543 OFFCURVE",
"625 350 CURVE SMOOTH",
"625 157 OFFCURVE",
"543 26 OFFCURVE",
"369 26 CURVE SMOOTH"
);
},
{
closed = 1;
nodes = (
"391 863 LINE SMOOTH",
"409 874 OFFCURVE",
"419 886 OFFCURVE",
"419 900 CURVE SMOOTH",
"419 912 OFFCURVE",
"411 924 OFFCURVE",
"394 924 CURVE SMOOTH",
"376 924 OFFCURVE",
"360 910 OFFCURVE",
"353 904 CURVE SMOOTH",
"241 804 LINE",
"255 784 LINE"
);
},
{
closed = 1;
nodes = (
"538 863 LINE SMOOTH",
"556 874 OFFCURVE",
"565 886 OFFCURVE",
"565 900 CURVE SMOOTH",
"565 912 OFFCURVE",
"556 924 OFFCURVE",
"539 924 CURVE SMOOTH",
"521 924 OFFCURVE",
"507 910 OFFCURVE",
"499 904 CURVE",
"388 804 LINE",
"402 784 LINE"
);
}
);
width = 739;
}
);
leftKerningGroup = O;
note = Ohungarumlaut;
rightKerningGroup = O;
unicode = 0150;
},
{
glyphname = Omacron;
lastChange = "2015-10-02 09:32:28 +0000";
layers = (
{
layerId = "F0EF4016-32DD-4ABE-928D-BF0CB1E4FAE8";
name = Light;
paths = (
{
closed = 1;
nodes = (
"583 -10 OFFCURVE",
"701 122 OFFCURVE",
"701 350 CURVE SMOOTH",
"701 577 OFFCURVE",
"583 710 OFFCURVE",
"370 710 CURVE SMOOTH",
"156 710 OFFCURVE",
"38 577 OFFCURVE",
"38 350 CURVE SMOOTH",
"38 122 OFFCURVE",
"156 -10 OFFCURVE",
"370 -10 CURVE SMOOTH"
);
},
{
closed = 1;
nodes = (
"197 26 OFFCURVE",
"114 157 OFFCURVE",
"114 350 CURVE SMOOTH",
"114 543 OFFCURVE",
"197 674 OFFCURVE",
"369 674 CURVE SMOOTH",
"543 674 OFFCURVE",
"625 543 OFFCURVE",
"625 350 CURVE SMOOTH",
"625 157 OFFCURVE",
"543 26 OFFCURVE",
"369 26 CURVE SMOOTH"
);
},
{
closed = 1;
nodes = (
"525 798 LINE",
"525 833 LINE",
"212 833 LINE",
"212 798 LINE"
);
}
);
width = 739;
}
);
leftKerningGroup = O;
note = Omacron;
rightKerningGroup = O;
unicode = 014C;
},
{
glyphname = Oslash;
lastChange = "2015-12-01 09:06:23 +0000";
layers = (
{
layerId = "F0EF4016-32DD-4ABE-928D-BF0CB1E4FAE8";
name = Light;
paths = (
{
closed = 1;
nodes = (
"583 -10 OFFCURVE",
"701 122 OFFCURVE",
"701 350 CURVE SMOOTH",
"701 577 OFFCURVE",
"583 710 OFFCURVE",
"370 710 CURVE SMOOTH",
"156 710 OFFCURVE",
"38 577 OFFCURVE",
"38 350 CURVE SMOOTH",
"38 122 OFFCURVE",
"156 -10 OFFCURVE",
"370 -10 CURVE SMOOTH"
);
},
{
closed = 1;
nodes = (
"197 26 OFFCURVE",
"114 157 OFFCURVE",
"114 350 CURVE SMOOTH",
"114 543 OFFCURVE",
"197 674 OFFCURVE",
"369 674 CURVE SMOOTH",
"543 674 OFFCURVE",
"625 543 OFFCURVE",
"625 350 CURVE SMOOTH",
"625 157 OFFCURVE",
"543 26 OFFCURVE",
"369 26 CURVE SMOOTH"
);
},
{
closed = 1;
nodes = (
"659 702 LINE",
"624 724 LINE",
"64 4 LINE",
"98 -18 LINE"
);
}
);
width = 739;
}
);
leftKerningGroup = O;
note = Oslash;
rightKerningGroup = O;
unicode = 00D8;
},
{
glyphname = Oslashacute;
lastChange = "2015-12-01 09:06:25 +0000";
layers = (
{
layerId = "F0EF4016-32DD-4ABE-928D-BF0CB1E4FAE8";
name = Light;
paths = (
{
closed = 1;
nodes = (
"583 -10 OFFCURVE",
"701 122 OFFCURVE",
"701 350 CURVE SMOOTH",
"701 577 OFFCURVE",
"583 710 OFFCURVE",
"370 710 CURVE SMOOTH",
"156 710 OFFCURVE",
"38 577 OFFCURVE",
"38 350 CURVE SMOOTH",
"38 122 OFFCURVE",
"156 -10 OFFCURVE",
"370 -10 CURVE SMOOTH"
);
},
{
closed = 1;
nodes = (
"197 26 OFFCURVE",
"114 157 OFFCURVE",
"114 350 CURVE SMOOTH",
"114 543 OFFCURVE",
"197 674 OFFCURVE",
"369 674 CURVE SMOOTH",
"543 674 OFFCURVE",
"625 543 OFFCURVE",
"625 350 CURVE SMOOTH",
"625 157 OFFCURVE",
"543 26 OFFCURVE",
"369 26 CURVE SMOOTH"
);
},
{
closed = 1;
nodes = (
"436 863 LINE SMOOTH",
"454 873 OFFCURVE",
"464 885 OFFCURVE",
"464 899 CURVE SMOOTH",
"464 912 OFFCURVE",
"456 924 OFFCURVE",
"439 924 CURVE SMOOTH",
"422 924 OFFCURVE",
"407 911 OFFCURVE",
"399 904 CURVE SMOOTH",
"286 804 LINE",
"300 784 LINE"
);
},
{
closed = 1;
nodes = (
"659 702 LINE",
"624 724 LINE",
"64 4 LINE",
"98 -18 LINE"
);
}
);
width = 739;
}
);
leftKerningGroup = O;
note = Oslashacute;
rightKerningGroup = O;
unicode = 01FE;
},
{
glyphname = Otilde;
lastChange = "2015-10-02 09:32:29 +0000";
layers = (
{
layerId = "F0EF4016-32DD-4ABE-928D-BF0CB1E4FAE8";
name = Light;
paths = (
{
closed = 1;
nodes = (
"583 -10 OFFCURVE",
"701 122 OFFCURVE",
"701 350 CURVE SMOOTH",
"701 577 OFFCURVE",
"583 710 OFFCURVE",
"370 710 CURVE SMOOTH",
"156 710 OFFCURVE",
"38 577 OFFCURVE",
"38 350 CURVE SMOOTH",
"38 122 OFFCURVE",
"156 -10 OFFCURVE",
"370 -10 CURVE SMOOTH"
);
},
{
closed = 1;
nodes = (
"197 26 OFFCURVE",
"114 157 OFFCURVE",
"114 350 CURVE SMOOTH",
"114 543 OFFCURVE",
"197 674 OFFCURVE",
"369 674 CURVE SMOOTH",
"543 674 OFFCURVE",
"625 543 OFFCURVE",
"625 350 CURVE SMOOTH",
"625 157 OFFCURVE",
"543 26 OFFCURVE",
"369 26 CURVE SMOOTH"
);
},
{
closed = 1;
nodes = (
"241 820 OFFCURVE",
"259 842 OFFCURVE",
"291 842 CURVE SMOOTH",
"338 842 OFFCURVE",
"386 786 OFFCURVE",
"434 786 CURVE SMOOTH",
"486 786 OFFCURVE",
"515 827 OFFCURVE",
"526 880 CURVE",
"507 890 LINE",
"493 850 OFFCURVE",
"477 827 OFFCURVE",
"444 827 CURVE SMOOTH",
"398 827 OFFCURVE",
"348 882 OFFCURVE",
"299 882 CURVE SMOOTH",
"251 882 OFFCURVE",
"219 845 OFFCURVE",
"209 792 CURVE",
"228 782 LINE"
);
}
);
width = 739;
}
);
leftKerningGroup = O;
note = Otilde;
rightKerningGroup = O;
unicode = 00D5;
},
{
glyphname = OE;
lastChange = "2015-10-02 09:32:29 +0000";
layers = (
{
layerId = "F0EF4016-32DD-4ABE-928D-BF0CB1E4FAE8";
name = Light;
paths = (
{
closed = 1;
nodes = (
"469 -10 OFFCURVE",
"547 27 OFFCURVE",
"599 90 CURVE",
"573 129 LINE",
"531 63 OFFCURVE",
"464 25 OFFCURVE",
"373 25 CURVE SMOOTH",
"200 25 OFFCURVE",
"114 157 OFFCURVE",
"114 350 CURVE SMOOTH",
"114 543 OFFCURVE",
"200 674 OFFCURVE",
"373 674 CURVE SMOOTH",
"463 674 OFFCURVE",
"530 636 OFFCURVE",
"572 571 CURVE",
"595 613 LINE",
"544 674 OFFCURVE",
"467 710 OFFCURVE",
"367 710 CURVE SMOOTH",
"160 710 OFFCURVE",
"38 577 OFFCURVE",
"38 350 CURVE SMOOTH",
"38 122 OFFCURVE",
"160 -10 OFFCURVE",
"367 -10 CURVE SMOOTH"
);
},
{
closed = 1;
nodes = (
"883 253 LINE",
"883 486 LINE",
"863 486 LINE",
"859 435 OFFCURVE",
"855 387 OFFCURVE",
"811 387 CURVE SMOOTH",
"614 387 LINE",
"614 352 LINE",
"811 352 LINE SMOOTH",
"855 352 OFFCURVE",
"859 304 OFFCURVE",
"863 253 CURVE"
);
},
{
closed = 1;
nodes = (
"969 0 LINE",
"985 175 LINE",
"963 175 LINE",
"957 124 OFFCURVE",
"939 35 OFFCURVE",
"877 35 CURVE SMOOTH",
"634 35 LINE",
"634 665 LINE",
"866 665 LINE SMOOTH",
"936 665 OFFCURVE",
"944 574 OFFCURVE",
"947 533 CURVE",
"969 533 LINE",
"969 700 LINE",
"558 700 LINE",
"558 0 LINE"
);
}
);
width = 1022;
}
);
note = OE;
unicode = 0152;
},
{
glyphname = P;
lastChange = "2015-10-02 09:32:28 +0000";
layers = (
{
layerId = "F0EF4016-32DD-4ABE-928D-BF0CB1E4FAE8";
name = Light;
paths = (
{
closed = 1;
nodes = (
"276 0 LINE",
"276 22 LINE",
"247 22 LINE SMOOTH",
"209 22 OFFCURVE",
"188 32 OFFCURVE",
"188 57 CURVE SMOOTH",
"188 276 LINE",
"353 276 LINE SMOOTH",
"508 276 OFFCURVE",
"563 365 OFFCURVE",
"563 488 CURVE SMOOTH",
"563 613 OFFCURVE",
"508 700 OFFCURVE",
"353 700 CURVE SMOOTH",
"25 700 LINE",
"25 677 LINE",
"53 677 LINE SMOOTH",
"92 677 OFFCURVE",
"112 667 OFFCURVE",
"112 642 CURVE SMOOTH",
"112 57 LINE SMOOTH",
"112 32 OFFCURVE",
"92 22 OFFCURVE",
"53 22 CURVE SMOOTH",
"25 22 LINE",
"25 0 LINE"
);
},
{
closed = 1;
nodes = (
"188 665 LINE",
"341 665 LINE SMOOTH",
"447 665 OFFCURVE",
"489 594 OFFCURVE",
"489 488 CURVE SMOOTH",
"489 383 OFFCURVE",
"447 311 OFFCURVE",
"341 311 CURVE SMOOTH",
"188 311 LINE"
);
}
);
width = 582;
}
);
note = P;
unicode = 0050;
},
{
glyphname = Thorn;
lastChange = "2015-10-02 09:32:29 +0000";
layers = (
{
layerId = "F0EF4016-32DD-4ABE-928D-BF0CB1E4FAE8";
name = Light;
paths = (
{
closed = 1;
nodes = (
"276 0 LINE",
"276 22 LINE",
"247 22 LINE SMOOTH",
"209 22 OFFCURVE",
"188 32 OFFCURVE",
"188 57 CURVE SMOOTH",
"188 163 LINE",
"353 163 LINE SMOOTH",
"508 163 OFFCURVE",
"563 252 OFFCURVE",
"563 375 CURVE SMOOTH",
"563 500 OFFCURVE",
"508 587 OFFCURVE",
"353 587 CURVE SMOOTH",
"188 587 LINE",
"188 700 LINE",
"25 700 LINE",
"25 677 LINE",
"53 677 LINE SMOOTH",
"92 677 OFFCURVE",
"112 667 OFFCURVE",
"112 642 CURVE SMOOTH",
"112 57 LINE SMOOTH",
"112 32 OFFCURVE",
"92 22 OFFCURVE",
"53 22 CURVE SMOOTH",
"25 22 LINE",
"25 0 LINE"
);
},
{
closed = 1;
nodes = (
"188 552 LINE",
"341 552 LINE SMOOTH",
"447 552 OFFCURVE",
"489 481 OFFCURVE",
"489 375 CURVE SMOOTH",
"489 270 OFFCURVE",
"447 198 OFFCURVE",
"341 198 CURVE SMOOTH",
"188 198 LINE"
);
}
);
width = 582;
}
);
note = Thorn;
unicode = 00DE;
},
{
glyphname = Q;
lastChange = "2015-12-01 09:13:32 +0000";
layers = (
{
layerId = "F0EF4016-32DD-4ABE-928D-BF0CB1E4FAE8";
name = Light;
paths = (
{
closed = 1;
nodes = (
"583 -10 OFFCURVE",
"701 122 OFFCURVE",
"701 350 CURVE SMOOTH",
"701 577 OFFCURVE",
"583 710 OFFCURVE",
"370 710 CURVE SMOOTH",
"156 710 OFFCURVE",
"38 577 OFFCURVE",
"38 350 CURVE SMOOTH",
"38 122 OFFCURVE",
"156 -10 OFFCURVE",
"370 -10 CURVE SMOOTH"
);
},
{
closed = 1;
nodes = (
"197 26 OFFCURVE",
"114 157 OFFCURVE",
"114 350 CURVE SMOOTH",
"114 543 OFFCURVE",
"197 674 OFFCURVE",
"369 674 CURVE SMOOTH",
"543 674 OFFCURVE",
"625 543 OFFCURVE",
"625 350 CURVE SMOOTH",
"625 157 OFFCURVE",
"543 26 OFFCURVE",
"369 26 CURVE SMOOTH"
);
},
{
closed = 1;
nodes = (
"628 -159 OFFCURVE",
"676 -107 OFFCURVE",
"682 -49 CURVE",
"683 -42 OFFCURVE",
"683 -33 OFFCURVE",
"683 -26 CURVE",
"664 -26 LINE",
"650 -77 OFFCURVE",
"617 -109 OFFCURVE",
"571 -109 CURVE SMOOTH",
"485 -109 OFFCURVE",
"405 -34 OFFCURVE",
"323 -34 CURVE SMOOTH",
"311 -34 LINE",
"333 -17 OFFCURVE",
"350 -9 OFFCURVE",
"370 -1 CURVE",
"370 3 LINE",
"326 3 LINE",
"267 -20 OFFCURVE",
"227 -50 OFFCURVE",
"191 -81 CURVE",
"199 -95 LINE",
"232 -73 OFFCURVE",
"266 -60 OFFCURVE",
"294 -60 CURVE SMOOTH",
"370 -60 OFFCURVE",
"443 -159 OFFCURVE",
"553 -159 CURVE SMOOTH"
);
}
);
width = 739;
}
);
leftKerningGroup = O;
note = Q;
rightKerningGroup = O;
unicode = 0051;
},
{
glyphname = R;
lastChange = "2015-12-01 09:13:35 +0000";
layers = (
{
layerId = "F0EF4016-32DD-4ABE-928D-BF0CB1E4FAE8";
name = Light;
paths = (
{
closed = 1;
nodes = (
"276 0 LINE",
"276 22 LINE",
"247 22 LINE SMOOTH",
"209 22 OFFCURVE",
"188 32 OFFCURVE",
"188 57 CURVE SMOOTH",
"188 292 LINE",
"348 292 LINE SMOOTH",
"503 292 OFFCURVE",
"560 373 OFFCURVE",
"560 496 CURVE SMOOTH",
"560 620 OFFCURVE",
"503 700 OFFCURVE",
"348 700 CURVE SMOOTH",
"25 700 LINE",
"25 677 LINE",
"53 677 LINE SMOOTH",
"92 677 OFFCURVE",
"112 667 OFFCURVE",
"112 642 CURVE SMOOTH",
"112 57 LINE SMOOTH",
"112 32 OFFCURVE",
"92 22 OFFCURVE",
"53 22 CURVE SMOOTH",
"25 22 LINE",
"25 0 LINE"
);
},
{
closed = 1;
nodes = (
"188 665 LINE",
"336 665 LINE SMOOTH",
"442 665 OFFCURVE",
"486 602 OFFCURVE",
"486 496 CURVE SMOOTH",
"486 391 OFFCURVE",
"442 327 OFFCURVE",
"336 327 CURVE SMOOTH",
"188 327 LINE"
);
},
{
closed = 1;
nodes = (
"613 0 LINE",
"613 22 LINE",
"537 23 OFFCURVE",
"516 100 OFFCURVE",
"495 174 CURVE SMOOTH",
"480 228 OFFCURVE",
"465 284 OFFCURVE",
"416 305 CURVE",
"351 305 LINE",
"351 301 LINE",
"405 268 OFFCURVE",
"414 177 OFFCURVE",
"435 103 CURVE SMOOTH",
"453 41 OFFCURVE",
"485 0 OFFCURVE",
"546 0 CURVE SMOOTH"
);
}
);
width = 649;
}
);
note = R;
rightKerningGroup = R;
unicode = 0052;
},
{
glyphname = Racute;
lastChange = "2015-12-01 09:14:02 +0000";
layers = (
{
layerId = "F0EF4016-32DD-4ABE-928D-BF0CB1E4FAE8";
name = Light;
paths = (
{
closed = 1;
nodes = (
"276 0 LINE",
"276 22 LINE",
"247 22 LINE SMOOTH",
"209 22 OFFCURVE",
"188 32 OFFCURVE",
"188 57 CURVE SMOOTH",
"188 292 LINE",
"348 292 LINE SMOOTH",
"503 292 OFFCURVE",
"560 373 OFFCURVE",
"560 496 CURVE SMOOTH",
"560 620 OFFCURVE",
"503 700 OFFCURVE",
"348 700 CURVE SMOOTH",
"25 700 LINE",
"25 677 LINE",
"53 677 LINE SMOOTH",
"92 677 OFFCURVE",
"112 667 OFFCURVE",
"112 642 CURVE SMOOTH",
"112 57 LINE SMOOTH",
"112 32 OFFCURVE",
"92 22 OFFCURVE",
"53 22 CURVE SMOOTH",
"25 22 LINE",
"25 0 LINE"
);
},
{
closed = 1;
nodes = (
"188 665 LINE",
"336 665 LINE SMOOTH",
"442 665 OFFCURVE",
"486 602 OFFCURVE",
"486 496 CURVE SMOOTH",
"486 391 OFFCURVE",
"442 327 OFFCURVE",
"336 327 CURVE SMOOTH",
"188 327 LINE"
);
},
{
closed = 1;
nodes = (
"613 0 LINE",
"613 22 LINE",
"537 23 OFFCURVE",
"516 100 OFFCURVE",
"495 174 CURVE SMOOTH",
"480 228 OFFCURVE",
"465 284 OFFCURVE",
"416 305 CURVE",
"351 305 LINE",
"351 301 LINE",
"405 268 OFFCURVE",
"414 177 OFFCURVE",
"435 103 CURVE SMOOTH",
"453 41 OFFCURVE",
"485 0 OFFCURVE",
"546 0 CURVE SMOOTH"
);
},
{
closed = 1;
nodes = (
"391 863 LINE SMOOTH",
"409 873 OFFCURVE",
"419 885 OFFCURVE",
"419 899 CURVE SMOOTH",
"419 912 OFFCURVE",
"411 924 OFFCURVE",
"394 924 CURVE SMOOTH",
"377 924 OFFCURVE",
"362 911 OFFCURVE",
"354 904 CURVE SMOOTH",
"241 804 LINE",
"255 784 LINE"
);
}
);
width = 649;
}
);
note = Racute;
rightKerningGroup = R;
unicode = 0154;
},
{
glyphname = Rcaron;
lastChange = "2015-12-01 09:13:58 +0000";
layers = (
{
layerId = "F0EF4016-32DD-4ABE-928D-BF0CB1E4FAE8";
name = Light;
paths = (
{
closed = 1;
nodes = (
"276 0 LINE",
"276 22 LINE",
"247 22 LINE SMOOTH",
"209 22 OFFCURVE",
"188 32 OFFCURVE",
"188 57 CURVE SMOOTH",
"188 292 LINE",
"348 292 LINE SMOOTH",
"503 292 OFFCURVE",
"560 373 OFFCURVE",
"560 496 CURVE SMOOTH",
"560 620 OFFCURVE",
"503 700 OFFCURVE",
"348 700 CURVE SMOOTH",
"25 700 LINE",
"25 677 LINE",
"53 677 LINE SMOOTH",
"92 677 OFFCURVE",
"112 667 OFFCURVE",
"112 642 CURVE SMOOTH",
"112 57 LINE SMOOTH",
"112 32 OFFCURVE",
"92 22 OFFCURVE",
"53 22 CURVE SMOOTH",
"25 22 LINE",
"25 0 LINE"
);
},
{
closed = 1;
nodes = (
"188 665 LINE",
"336 665 LINE SMOOTH",
"442 665 OFFCURVE",
"486 602 OFFCURVE",
"486 496 CURVE SMOOTH",
"486 391 OFFCURVE",
"442 327 OFFCURVE",
"336 327 CURVE SMOOTH",
"188 327 LINE"
);
},
{
closed = 1;
nodes = (
"613 0 LINE",
"613 22 LINE",
"537 23 OFFCURVE",
"516 100 OFFCURVE",
"495 174 CURVE SMOOTH",
"480 228 OFFCURVE",
"465 284 OFFCURVE",
"416 305 CURVE",
"351 305 LINE",
"351 301 LINE",
"405 268 OFFCURVE",
"414 177 OFFCURVE",
"435 103 CURVE SMOOTH",
"453 41 OFFCURVE",
"485 0 OFFCURVE",
"546 0 CURVE SMOOTH"
);
},
{
closed = 1;
nodes = (
"351 784 LINE",
"468 902 LINE",
"450 921 LINE",
"349 839 LINE",
"342 834 OFFCURVE",
"335 830 OFFCURVE",
"330 830 CURVE SMOOTH",
"325 830 OFFCURVE",
"319 832 OFFCURVE",
"310 839 CURVE SMOOTH",
"209 921 LINE",
"192 902 LINE",
"308 784 LINE"
);
}
);
width = 649;
}
);
note = Rcaron;
rightKerningGroup = R;
unicode = 0158;
},
{
glyphname = Rcommaaccent;
lastChange = "2015-12-01 09:13:54 +0000";
layers = (
{
layerId = "F0EF4016-32DD-4ABE-928D-BF0CB1E4FAE8";
name = Light;
paths = (
{
closed = 1;
nodes = (
"276 0 LINE",
"276 22 LINE",
"247 22 LINE SMOOTH",
"209 22 OFFCURVE",
"188 32 OFFCURVE",
"188 57 CURVE SMOOTH",
"188 292 LINE",
"348 292 LINE SMOOTH",
"503 292 OFFCURVE",
"560 373 OFFCURVE",
"560 496 CURVE SMOOTH",
"560 620 OFFCURVE",
"503 700 OFFCURVE",
"348 700 CURVE SMOOTH",
"25 700 LINE",
"25 677 LINE",
"53 677 LINE SMOOTH",
"92 677 OFFCURVE",
"112 667 OFFCURVE",
"112 642 CURVE SMOOTH",
"112 57 LINE SMOOTH",
"112 32 OFFCURVE",
"92 22 OFFCURVE",
"53 22 CURVE SMOOTH",
"25 22 LINE",
"25 0 LINE"
);
},
{
closed = 1;
nodes = (
"188 665 LINE",
"336 665 LINE SMOOTH",
"442 665 OFFCURVE",
"486 602 OFFCURVE",
"486 496 CURVE SMOOTH",
"486 391 OFFCURVE",
"442 327 OFFCURVE",
"336 327 CURVE SMOOTH",
"188 327 LINE"
);
},
{
closed = 1;
nodes = (
"613 0 LINE",
"613 22 LINE",
"537 23 OFFCURVE",
"516 100 OFFCURVE",
"495 174 CURVE SMOOTH",
"480 228 OFFCURVE",
"465 284 OFFCURVE",
"416 305 CURVE",
"351 305 LINE",
"351 301 LINE",
"405 268 OFFCURVE",
"414 177 OFFCURVE",
"435 103 CURVE SMOOTH",
"453 41 OFFCURVE",
"485 0 OFFCURVE",
"546 0 CURVE SMOOTH"
);
},
{
closed = 1;
nodes = (
"344 -237 OFFCURVE",
"380 -182 OFFCURVE",
"380 -124 CURVE SMOOTH",
"380 -80 OFFCURVE",
"359 -65 OFFCURVE",
"335 -65 CURVE SMOOTH",
"310 -65 OFFCURVE",
"296 -82 OFFCURVE",
"296 -104 CURVE SMOOTH",
"296 -135 OFFCURVE",
"328 -140 OFFCURVE",
"328 -173 CURVE SMOOTH",
"328 -207 OFFCURVE",
"302 -238 OFFCURVE",
"277 -262 CURVE",
"291 -277 LINE"
);
}
);
width = 649;
}
);
note = Rcommaaccent;
rightKerningGroup = R;
unicode = 0156;
},
{
glyphname = Rdotbelow;
lastChange = "2015-12-01 09:13:50 +0000";
layers = (
{
layerId = "F0EF4016-32DD-4ABE-928D-BF0CB1E4FAE8";
name = Light;
paths = (
{
closed = 1;
nodes = (
"276 0 LINE",
"276 22 LINE",
"247 22 LINE SMOOTH",
"209 22 OFFCURVE",
"188 32 OFFCURVE",
"188 57 CURVE SMOOTH",
"188 292 LINE",
"348 292 LINE SMOOTH",
"503 292 OFFCURVE",
"560 373 OFFCURVE",
"560 496 CURVE SMOOTH",
"560 620 OFFCURVE",
"503 700 OFFCURVE",
"348 700 CURVE SMOOTH",
"25 700 LINE",
"25 677 LINE",
"53 677 LINE SMOOTH",
"92 677 OFFCURVE",
"112 667 OFFCURVE",
"112 642 CURVE SMOOTH",
"112 57 LINE SMOOTH",
"112 32 OFFCURVE",
"92 22 OFFCURVE",
"53 22 CURVE SMOOTH",
"25 22 LINE",
"25 0 LINE"
);
},
{
closed = 1;
nodes = (
"188 665 LINE",
"336 665 LINE SMOOTH",
"442 665 OFFCURVE",
"486 602 OFFCURVE",
"486 496 CURVE SMOOTH",
"486 391 OFFCURVE",
"442 327 OFFCURVE",
"336 327 CURVE SMOOTH",
"188 327 LINE"
);
},
{
closed = 1;
nodes = (
"613 0 LINE",
"613 22 LINE",
"537 23 OFFCURVE",
"516 100 OFFCURVE",
"495 174 CURVE SMOOTH",
"480 228 OFFCURVE",
"465 284 OFFCURVE",
"416 305 CURVE",
"351 305 LINE",
"351 301 LINE",
"405 268 OFFCURVE",
"414 177 OFFCURVE",
"435 103 CURVE SMOOTH",
"453 41 OFFCURVE",
"485 0 OFFCURVE",
"546 0 CURVE SMOOTH"
);
},
{
closed = 1;
nodes = (
"368 -147 OFFCURVE",
"384 -131 OFFCURVE",
"384 -106 CURVE SMOOTH",
"384 -81 OFFCURVE",
"368 -64 OFFCURVE",
"343 -64 CURVE SMOOTH",
"319 -64 OFFCURVE",
"302 -81 OFFCURVE",
"302 -106 CURVE SMOOTH",
"302 -131 OFFCURVE",
"319 -147 OFFCURVE",
"343 -147 CURVE SMOOTH"
);
}
);
width = 649;
}
);
note = Rdotbelow;
rightKerningGroup = R;
unicode = 1E5A;
},
{
glyphname = Rdotbelowmacron;
lastChange = "2015-12-01 09:14:15 +0000";
layers = (
{
layerId = "F0EF4016-32DD-4ABE-928D-BF0CB1E4FAE8";
name = Light;
paths = (
{
closed = 1;
nodes = (
"276 0 LINE",
"276 22 LINE",
"247 22 LINE SMOOTH",
"209 22 OFFCURVE",
"188 32 OFFCURVE",
"188 57 CURVE SMOOTH",
"188 292 LINE",
"348 292 LINE SMOOTH",
"503 292 OFFCURVE",
"560 373 OFFCURVE",
"560 496 CURVE SMOOTH",
"560 620 OFFCURVE",
"503 700 OFFCURVE",
"348 700 CURVE SMOOTH",
"25 700 LINE",
"25 677 LINE",
"53 677 LINE SMOOTH",
"92 677 OFFCURVE",
"112 667 OFFCURVE",
"112 642 CURVE SMOOTH",
"112 57 LINE SMOOTH",
"112 32 OFFCURVE",
"92 22 OFFCURVE",
"53 22 CURVE SMOOTH",
"25 22 LINE",
"25 0 LINE"
);
},
{
closed = 1;
nodes = (
"188 665 LINE",
"336 665 LINE SMOOTH",
"442 665 OFFCURVE",
"486 602 OFFCURVE",
"486 496 CURVE SMOOTH",
"486 391 OFFCURVE",
"442 327 OFFCURVE",
"336 327 CURVE SMOOTH",
"188 327 LINE"
);
},
{
closed = 1;
nodes = (
"368 -147 OFFCURVE",
"384 -131 OFFCURVE",
"384 -106 CURVE SMOOTH",
"384 -81 OFFCURVE",
"368 -64 OFFCURVE",
"343 -64 CURVE SMOOTH",
"319 -64 OFFCURVE",
"302 -81 OFFCURVE",
"302 -106 CURVE SMOOTH",
"302 -131 OFFCURVE",
"319 -147 OFFCURVE",
"343 -147 CURVE SMOOTH"
);
},
{
closed = 1;
nodes = (
"613 0 LINE",
"613 22 LINE",
"537 23 OFFCURVE",
"516 100 OFFCURVE",
"495 174 CURVE SMOOTH",
"480 228 OFFCURVE",
"465 284 OFFCURVE",
"416 305 CURVE",
"351 305 LINE",
"351 301 LINE",
"405 268 OFFCURVE",
"414 177 OFFCURVE",
"435 103 CURVE SMOOTH",
"453 41 OFFCURVE",
"485 0 OFFCURVE",
"546 0 CURVE SMOOTH"
);
},
{
closed = 1;
nodes = (
"451 781 LINE",
"451 816 LINE",
"138 816 LINE",
"138 781 LINE"
);
}
);
width = 649;
}
);
note = Rdotbelowmacron;
rightKerningGroup = R;
unicode = 1E5C;
},
{
glyphname = Rlinebelow;
lastChange = "2015-12-01 09:14:20 +0000";
layers = (
{
layerId = "F0EF4016-32DD-4ABE-928D-BF0CB1E4FAE8";
name = Light;
paths = (
{
closed = 1;
nodes = (
"276 0 LINE",
"276 22 LINE",
"247 22 LINE SMOOTH",
"209 22 OFFCURVE",
"188 32 OFFCURVE",
"188 57 CURVE SMOOTH",
"188 292 LINE",
"348 292 LINE SMOOTH",
"503 292 OFFCURVE",
"560 373 OFFCURVE",
"560 496 CURVE SMOOTH",
"560 620 OFFCURVE",
"503 700 OFFCURVE",
"348 700 CURVE SMOOTH",
"25 700 LINE",
"25 677 LINE",
"53 677 LINE SMOOTH",
"92 677 OFFCURVE",
"112 667 OFFCURVE",
"112 642 CURVE SMOOTH",
"112 57 LINE SMOOTH",
"112 32 OFFCURVE",
"92 22 OFFCURVE",
"53 22 CURVE SMOOTH",
"25 22 LINE",
"25 0 LINE"
);
},
{
closed = 1;
nodes = (
"188 665 LINE",
"336 665 LINE SMOOTH",
"442 665 OFFCURVE",
"486 602 OFFCURVE",
"486 496 CURVE SMOOTH",
"486 391 OFFCURVE",
"442 327 OFFCURVE",
"336 327 CURVE SMOOTH",
"188 327 LINE"
);
},
{
closed = 1;
nodes = (
"466 -106 LINE",
"466 -73 LINE",
"153 -73 LINE",
"153 -106 LINE"
);
},
{
closed = 1;
nodes = (
"613 0 LINE",
"613 22 LINE",
"537 23 OFFCURVE",
"516 100 OFFCURVE",
"495 174 CURVE SMOOTH",
"480 228 OFFCURVE",
"465 284 OFFCURVE",
"416 305 CURVE",
"351 305 LINE",
"351 301 LINE",
"405 268 OFFCURVE",
"414 177 OFFCURVE",
"435 103 CURVE SMOOTH",
"453 41 OFFCURVE",
"485 0 OFFCURVE",
"546 0 CURVE SMOOTH"
);
}
);
width = 649;
}
);
note = Rlinebelow;
rightKerningGroup = R;
unicode = 1E5E;
},
{
glyphname = S;
lastChange = "2015-10-02 09:32:27 +0000";
layers = (
{
layerId = "F0EF4016-32DD-4ABE-928D-BF0CB1E4FAE8";
name = Light;
paths = (
{
closed = 1;
nodes = (
"423 -10 OFFCURVE",
"523 60 OFFCURVE",
"523 181 CURVE SMOOTH",
"523 418 OFFCURVE",
"130 382 OFFCURVE",
"130 556 CURVE SMOOTH",
"130 627 OFFCURVE",
"186 674 OFFCURVE",
"291 674 CURVE SMOOTH",
"388 674 OFFCURVE",
"460 615 OFFCURVE",
"470 521 CURVE",
"494 521 LINE",
"494 706 LINE",
"463 706 LINE",
"463 664 LINE SMOOTH",
"463 656 OFFCURVE",
"460 653 OFFCURVE",
"456 653 CURVE SMOOTH",
"443 653 OFFCURVE",
"380 710 OFFCURVE",
"276 710 CURVE SMOOTH",
"147 710 OFFCURVE",
"54 657 OFFCURVE",
"54 548 CURVE SMOOTH",
"54 332 OFFCURVE",
"446 360 OFFCURVE",
"446 171 CURVE SMOOTH",
"446 79 OFFCURVE",
"375 25 OFFCURVE",
"269 25 CURVE SMOOTH",
"172 25 OFFCURVE",
"74 93 OFFCURVE",
"63 186 CURVE",
"39 186 LINE",
"39 1 LINE",
"70 1 LINE",
"70 45 LINE SMOOTH",
"70 57 OFFCURVE",
"74 62 OFFCURVE",
"79 62 CURVE SMOOTH",
"95 62 OFFCURVE",
"171 -10 OFFCURVE",
"291 -10 CURVE SMOOTH"
);
}
);
width = 563;
}
);
leftKerningGroup = S;
note = S;
rightKerningGroup = S;
unicode = 0053;
},
{
glyphname = Sacute;
lastChange = "2015-10-02 09:32:28 +0000";
layers = (
{
layerId = "F0EF4016-32DD-4ABE-928D-BF0CB1E4FAE8";
name = Light;
paths = (
{
closed = 1;
nodes = (
"423 -10 OFFCURVE",
"523 60 OFFCURVE",
"523 181 CURVE SMOOTH",
"523 418 OFFCURVE",
"130 382 OFFCURVE",
"130 556 CURVE SMOOTH",
"130 627 OFFCURVE",
"186 674 OFFCURVE",
"291 674 CURVE SMOOTH",
"388 674 OFFCURVE",
"460 615 OFFCURVE",
"470 521 CURVE",
"494 521 LINE",
"494 706 LINE",
"463 706 LINE",
"463 664 LINE SMOOTH",
"463 656 OFFCURVE",
"460 653 OFFCURVE",
"456 653 CURVE SMOOTH",
"443 653 OFFCURVE",
"380 710 OFFCURVE",
"276 710 CURVE SMOOTH",
"147 710 OFFCURVE",
"54 657 OFFCURVE",
"54 548 CURVE SMOOTH",
"54 332 OFFCURVE",
"446 360 OFFCURVE",
"446 171 CURVE SMOOTH",
"446 79 OFFCURVE",
"375 25 OFFCURVE",
"269 25 CURVE SMOOTH",
"172 25 OFFCURVE",
"74 93 OFFCURVE",
"63 186 CURVE",
"39 186 LINE",
"39 1 LINE",
"70 1 LINE",
"70 45 LINE SMOOTH",
"70 57 OFFCURVE",
"74 62 OFFCURVE",
"79 62 CURVE SMOOTH",
"95 62 OFFCURVE",
"171 -10 OFFCURVE",
"291 -10 CURVE SMOOTH"
);
},
{
closed = 1;
nodes = (
"342 863 LINE SMOOTH",
"360 873 OFFCURVE",
"370 885 OFFCURVE",
"370 899 CURVE SMOOTH",
"370 912 OFFCURVE",
"362 924 OFFCURVE",
"345 924 CURVE SMOOTH",
"328 924 OFFCURVE",
"313 911 OFFCURVE",
"305 904 CURVE SMOOTH",
"192 804 LINE",
"206 784 LINE"
);
}
);
width = 563;
}
);
leftKerningGroup = S;
note = Sacute;
rightKerningGroup = S;
unicode = 015A;
},
{
glyphname = Scaron;
lastChange = "2015-10-02 09:32:29 +0000";
layers = (
{
layerId = "F0EF4016-32DD-4ABE-928D-BF0CB1E4FAE8";
name = Light;
paths = (
{
closed = 1;
nodes = (
"423 -10 OFFCURVE",
"523 60 OFFCURVE",
"523 181 CURVE SMOOTH",
"523 418 OFFCURVE",
"130 382 OFFCURVE",
"130 556 CURVE SMOOTH",
"130 627 OFFCURVE",
"186 674 OFFCURVE",
"291 674 CURVE SMOOTH",
"388 674 OFFCURVE",
"460 615 OFFCURVE",
"470 521 CURVE",
"494 521 LINE",
"494 706 LINE",
"463 706 LINE",
"463 664 LINE SMOOTH",
"463 656 OFFCURVE",
"460 653 OFFCURVE",
"456 653 CURVE SMOOTH",
"443 653 OFFCURVE",
"380 710 OFFCURVE",
"276 710 CURVE SMOOTH",
"147 710 OFFCURVE",
"54 657 OFFCURVE",
"54 548 CURVE SMOOTH",
"54 332 OFFCURVE",
"446 360 OFFCURVE",
"446 171 CURVE SMOOTH",
"446 79 OFFCURVE",
"375 25 OFFCURVE",
"269 25 CURVE SMOOTH",
"172 25 OFFCURVE",
"74 93 OFFCURVE",
"63 186 CURVE",
"39 186 LINE",
"39 1 LINE",
"70 1 LINE",
"70 45 LINE SMOOTH",
"70 57 OFFCURVE",
"74 62 OFFCURVE",
"79 62 CURVE SMOOTH",
"95 62 OFFCURVE",
"171 -10 OFFCURVE",
"291 -10 CURVE SMOOTH"
);
},
{
closed = 1;
nodes = (
"294 784 LINE",
"411 902 LINE",
"393 921 LINE",
"292 839 LINE",
"285 834 OFFCURVE",
"278 830 OFFCURVE",
"273 830 CURVE SMOOTH",
"268 830 OFFCURVE",
"262 832 OFFCURVE",
"253 839 CURVE SMOOTH",
"152 921 LINE",
"135 902 LINE",
"251 784 LINE"
);
}
);
width = 563;
}
);
leftKerningGroup = S;
note = Scaron;
rightKerningGroup = S;
unicode = 0160;
},
{
glyphname = Scedilla;
lastChange = "2015-10-02 09:32:29 +0000";
layers = (
{
layerId = "F0EF4016-32DD-4ABE-928D-BF0CB1E4FAE8";
name = Light;
paths = (
{
closed = 1;
nodes = (
"423 -10 OFFCURVE",
"523 60 OFFCURVE",
"523 181 CURVE SMOOTH",
"523 418 OFFCURVE",
"130 382 OFFCURVE",
"130 556 CURVE SMOOTH",
"130 627 OFFCURVE",
"186 674 OFFCURVE",
"291 674 CURVE SMOOTH",
"388 674 OFFCURVE",
"460 615 OFFCURVE",
"470 521 CURVE",
"494 521 LINE",
"494 706 LINE",
"463 706 LINE",
"463 664 LINE SMOOTH",
"463 656 OFFCURVE",
"460 653 OFFCURVE",
"456 653 CURVE SMOOTH",
"443 653 OFFCURVE",
"380 710 OFFCURVE",
"276 710 CURVE SMOOTH",
"147 710 OFFCURVE",
"54 657 OFFCURVE",
"54 548 CURVE SMOOTH",
"54 332 OFFCURVE",
"446 360 OFFCURVE",
"446 171 CURVE SMOOTH",
"446 79 OFFCURVE",
"375 25 OFFCURVE",
"269 25 CURVE SMOOTH",
"172 25 OFFCURVE",
"74 93 OFFCURVE",
"63 186 CURVE",
"39 186 LINE",
"39 1 LINE",
"70 1 LINE",
"70 45 LINE SMOOTH",
"70 57 OFFCURVE",
"74 62 OFFCURVE",
"79 62 CURVE SMOOTH",
"95 62 OFFCURVE",
"171 -10 OFFCURVE",
"291 -10 CURVE SMOOTH"
);
},
{
closed = 1;
nodes = (
"301 -205 OFFCURVE",
"358 -182 OFFCURVE",
"358 -123 CURVE SMOOTH",
"358 -70 OFFCURVE",
"304 -59 OFFCURVE",
"259 -59 CURVE",
"293 9 LINE",
"255 9 LINE",
"213 -68 LINE",
"229 -88 LINE",
"255 -88 OFFCURVE",
"306 -88 OFFCURVE",
"306 -124 CURVE SMOOTH",
"306 -162 OFFCURVE",
"272 -175 OFFCURVE",
"229 -175 CURVE SMOOTH",
"217 -175 OFFCURVE",
"200 -175 OFFCURVE",
"189 -173 CURVE",
"182 -199 LINE",
"197 -203 OFFCURVE",
"211 -205 OFFCURVE",
"228 -205 CURVE SMOOTH"
);
}
);
width = 563;
}
);
leftKerningGroup = S;
note = Scedilla;
rightKerningGroup = S;
unicode = 015E;
},
{
glyphname = Scircumflex;
lastChange = "2015-10-02 09:32:29 +0000";
layers = (
{
layerId = "F0EF4016-32DD-4ABE-928D-BF0CB1E4FAE8";
name = Light;
paths = (
{
closed = 1;
nodes = (
"423 -10 OFFCURVE",
"523 60 OFFCURVE",
"523 181 CURVE SMOOTH",
"523 418 OFFCURVE",
"130 382 OFFCURVE",
"130 556 CURVE SMOOTH",
"130 627 OFFCURVE",
"186 674 OFFCURVE",
"291 674 CURVE SMOOTH",
"388 674 OFFCURVE",
"460 615 OFFCURVE",
"470 521 CURVE",
"494 521 LINE",
"494 706 LINE",
"463 706 LINE",
"463 664 LINE SMOOTH",
"463 656 OFFCURVE",
"460 653 OFFCURVE",
"456 653 CURVE SMOOTH",
"443 653 OFFCURVE",
"380 710 OFFCURVE",
"276 710 CURVE SMOOTH",
"147 710 OFFCURVE",
"54 657 OFFCURVE",
"54 548 CURVE SMOOTH",
"54 332 OFFCURVE",
"446 360 OFFCURVE",
"446 171 CURVE SMOOTH",
"446 79 OFFCURVE",
"375 25 OFFCURVE",
"269 25 CURVE SMOOTH",
"172 25 OFFCURVE",
"74 93 OFFCURVE",
"63 186 CURVE",
"39 186 LINE",
"39 1 LINE",
"70 1 LINE",
"70 45 LINE SMOOTH",
"70 57 OFFCURVE",
"74 62 OFFCURVE",
"79 62 CURVE SMOOTH",
"95 62 OFFCURVE",
"171 -10 OFFCURVE",
"291 -10 CURVE SMOOTH"
);
},
{
closed = 1;
nodes = (
"253 866 LINE",
"260 871 OFFCURVE",
"268 875 OFFCURVE",
"273 875 CURVE SMOOTH",
"278 875 OFFCURVE",
"285 871 OFFCURVE",
"292 866 CURVE",
"393 784 LINE",
"411 803 LINE",
"294 921 LINE",
"251 921 LINE",
"135 803 LINE",
"152 784 LINE"
);
}
);
width = 563;
}
);
leftKerningGroup = S;
note = Scircumflex;
rightKerningGroup = S;
unicode = 015C;
},
{
glyphname = Scommaaccent;
lastChange = "2015-10-02 09:32:28 +0000";
layers = (
{
layerId = "F0EF4016-32DD-4ABE-928D-BF0CB1E4FAE8";
name = Light;
paths = (
{
closed = 1;
nodes = (
"423 -10 OFFCURVE",
"523 60 OFFCURVE",
"523 181 CURVE SMOOTH",
"523 418 OFFCURVE",
"130 382 OFFCURVE",
"130 556 CURVE SMOOTH",
"130 627 OFFCURVE",
"186 674 OFFCURVE",
"291 674 CURVE SMOOTH",
"388 674 OFFCURVE",
"460 615 OFFCURVE",
"470 521 CURVE",
"494 521 LINE",
"494 706 LINE",
"463 706 LINE",
"463 664 LINE SMOOTH",
"463 656 OFFCURVE",
"460 653 OFFCURVE",
"456 653 CURVE SMOOTH",
"443 653 OFFCURVE",
"380 710 OFFCURVE",
"276 710 CURVE SMOOTH",
"147 710 OFFCURVE",
"54 657 OFFCURVE",
"54 548 CURVE SMOOTH",
"54 332 OFFCURVE",
"446 360 OFFCURVE",
"446 171 CURVE SMOOTH",
"446 79 OFFCURVE",
"375 25 OFFCURVE",
"269 25 CURVE SMOOTH",
"172 25 OFFCURVE",
"74 93 OFFCURVE",
"63 186 CURVE",
"39 186 LINE",
"39 1 LINE",
"70 1 LINE",
"70 45 LINE SMOOTH",
"70 57 OFFCURVE",
"74 62 OFFCURVE",
"79 62 CURVE SMOOTH",
"95 62 OFFCURVE",
"171 -10 OFFCURVE",
"291 -10 CURVE SMOOTH"
);
},
{
closed = 1;
nodes = (
"258 -227 OFFCURVE",
"295 -173 OFFCURVE",
"295 -115 CURVE SMOOTH",
"295 -72 OFFCURVE",
"274 -57 OFFCURVE",
"250 -57 CURVE SMOOTH",
"225 -57 OFFCURVE",
"211 -73 OFFCURVE",
"211 -96 CURVE SMOOTH",
"211 -127 OFFCURVE",
"243 -132 OFFCURVE",
"243 -164 CURVE SMOOTH",
"243 -198 OFFCURVE",
"217 -229 OFFCURVE",
"192 -254 CURVE",
"206 -268 LINE"
);
}
);
width = 563;
}
);
leftKerningGroup = S;
note = Scommaaccent;
rightKerningGroup = S;
unicode = 0218;
},
{
glyphname = Sdotaccent;
lastChange = "2015-10-02 09:32:28 +0000";
layers = (
{
layerId = "F0EF4016-32DD-4ABE-928D-BF0CB1E4FAE8";
name = Light;
paths = (
{
closed = 1;
nodes = (
"423 -10 OFFCURVE",
"523 60 OFFCURVE",
"523 181 CURVE SMOOTH",
"523 418 OFFCURVE",
"130 382 OFFCURVE",
"130 556 CURVE SMOOTH",
"130 627 OFFCURVE",
"186 674 OFFCURVE",
"291 674 CURVE SMOOTH",
"388 674 OFFCURVE",
"460 615 OFFCURVE",
"470 521 CURVE",
"494 521 LINE",
"494 706 LINE",
"463 706 LINE",
"463 664 LINE SMOOTH",
"463 656 OFFCURVE",
"460 653 OFFCURVE",
"456 653 CURVE SMOOTH",
"443 653 OFFCURVE",
"380 710 OFFCURVE",
"276 710 CURVE SMOOTH",
"147 710 OFFCURVE",
"54 657 OFFCURVE",
"54 548 CURVE SMOOTH",
"54 332 OFFCURVE",
"446 360 OFFCURVE",
"446 171 CURVE SMOOTH",
"446 79 OFFCURVE",
"375 25 OFFCURVE",
"269 25 CURVE SMOOTH",
"172 25 OFFCURVE",
"74 93 OFFCURVE",
"63 186 CURVE",
"39 186 LINE",
"39 1 LINE",
"70 1 LINE",
"70 45 LINE SMOOTH",
"70 57 OFFCURVE",
"74 62 OFFCURVE",
"79 62 CURVE SMOOTH",
"95 62 OFFCURVE",
"171 -10 OFFCURVE",
"291 -10 CURVE SMOOTH"
);
},
{
closed = 1;
nodes = (
"309 784 OFFCURVE",
"325 800 OFFCURVE",
"325 825 CURVE SMOOTH",
"325 850 OFFCURVE",
"309 866 OFFCURVE",
"285 866 CURVE SMOOTH",
"260 866 OFFCURVE",
"244 850 OFFCURVE",
"244 825 CURVE SMOOTH",
"244 800 OFFCURVE",
"260 784 OFFCURVE",
"285 784 CURVE SMOOTH"
);
}
);
width = 563;
}
);
leftKerningGroup = S;
note = Sdotaccent;
rightKerningGroup = S;
unicode = 1E60;
},
{
glyphname = Sdotbelow;
lastChange = "2015-10-02 09:32:29 +0000";
layers = (
{
layerId = "F0EF4016-32DD-4ABE-928D-BF0CB1E4FAE8";
name = Light;
paths = (
{
closed = 1;
nodes = (
"423 -10 OFFCURVE",
"523 60 OFFCURVE",
"523 181 CURVE SMOOTH",
"523 418 OFFCURVE",
"130 382 OFFCURVE",
"130 556 CURVE SMOOTH",
"130 627 OFFCURVE",
"186 674 OFFCURVE",
"291 674 CURVE SMOOTH",
"388 674 OFFCURVE",
"460 615 OFFCURVE",
"470 521 CURVE",
"494 521 LINE",
"494 706 LINE",
"463 706 LINE",
"463 664 LINE SMOOTH",
"463 656 OFFCURVE",
"460 653 OFFCURVE",
"456 653 CURVE SMOOTH",
"443 653 OFFCURVE",
"380 710 OFFCURVE",
"276 710 CURVE SMOOTH",
"147 710 OFFCURVE",
"54 657 OFFCURVE",
"54 548 CURVE SMOOTH",
"54 332 OFFCURVE",
"446 360 OFFCURVE",
"446 171 CURVE SMOOTH",
"446 79 OFFCURVE",
"375 25 OFFCURVE",
"269 25 CURVE SMOOTH",
"172 25 OFFCURVE",
"74 93 OFFCURVE",
"63 186 CURVE",
"39 186 LINE",
"39 1 LINE",
"70 1 LINE",
"70 45 LINE SMOOTH",
"70 57 OFFCURVE",
"74 62 OFFCURVE",
"79 62 CURVE SMOOTH",
"95 62 OFFCURVE",
"171 -10 OFFCURVE",
"291 -10 CURVE SMOOTH"
);
},
{
closed = 1;
nodes = (
"306 -147 OFFCURVE",
"322 -131 OFFCURVE",
"322 -106 CURVE SMOOTH",
"322 -81 OFFCURVE",
"306 -64 OFFCURVE",
"281 -64 CURVE SMOOTH",
"257 -64 OFFCURVE",
"240 -81 OFFCURVE",
"240 -106 CURVE SMOOTH",
"240 -131 OFFCURVE",
"257 -147 OFFCURVE",
"281 -147 CURVE SMOOTH"
);
}
);
width = 563;
}
);
leftKerningGroup = S;
note = Sdotbelow;
rightKerningGroup = S;
unicode = 1E62;
},
{
glyphname = Germandbls;
lastChange = "2015-10-02 09:32:28 +0000";
layers = (
{
layerId = "F0EF4016-32DD-4ABE-928D-BF0CB1E4FAE8";
name = Light;
paths = (
{
closed = 1;
nodes = (
"586 -10 OFFCURVE",
"654 88 OFFCURVE",
"654 202 CURVE SMOOTH",
"654 314 OFFCURVE",
"569 386 OFFCURVE",
"423 397 CURVE",
"571 554 LINE",
"549 628 OFFCURVE",
"472 710 OFFCURVE",
"344 710 CURVE SMOOTH",
"174 710 OFFCURVE",
"91 614 OFFCURVE",
"91 466 CURVE SMOOTH",
"91 57 LINE SMOOTH",
"91 32 OFFCURVE",
"71 22 OFFCURVE",
"32 22 CURVE SMOOTH",
"4 22 LINE",
"4 0 LINE",
"236 0 LINE",
"236 14 LINE",
"223 22 LINE",
"186 22 OFFCURVE",
"166 40 OFFCURVE",
"166 65 CURVE SMOOTH",
"166 486 LINE SMOOTH",
"166 601 OFFCURVE",
"228 674 OFFCURVE",
"338 674 CURVE SMOOTH",
"425 674 OFFCURVE",
"477 621 OFFCURVE",
"500 557 CURVE",
"344 389 LINE",
"344 364 LINE",
"396 364 LINE SMOOTH",
"518 364 OFFCURVE",
"579 298 OFFCURVE",
"579 202 CURVE SMOOTH",
"579 96 OFFCURVE",
"518 23 OFFCURVE",
"409 23 CURVE SMOOTH",
"361 23 OFFCURVE",
"307 32 OFFCURVE",
"258 54 CURVE",
"258 17 LINE",
"301 -1 OFFCURVE",
"353 -10 OFFCURVE",
"413 -10 CURVE SMOOTH"
);
}
);
width = 682;
}
);
note = uni1E9E;
unicode = 1E9E;
},
{
glyphname = Schwa;
lastChange = "2015-10-02 09:32:28 +0000";
layers = (
{
layerId = "F0EF4016-32DD-4ABE-928D-BF0CB1E4FAE8";
name = Light;
paths = (
{
closed = 1;
nodes = (
"526 -10 OFFCURVE",
"643 117 OFFCURVE",
"643 345 CURVE SMOOTH",
"643 566 OFFCURVE",
"519 710 OFFCURVE",
"314 710 CURVE SMOOTH",
"161 710 OFFCURVE",
"59 624 OFFCURVE",
"44 512 CURVE",
"81 512 LINE",
"109 625 OFFCURVE",
"202 668 OFFCURVE",
"293 668 CURVE SMOOTH",
"484 668 OFFCURVE",
"566 518 OFFCURVE",
"566 339 CURVE SMOOTH",
"566 180 OFFCURVE",
"488 30 OFFCURVE",
"318 30 CURVE SMOOTH",
"164 30 OFFCURVE",
"112 177 OFFCURVE",
"110 291 CURVE",
"577 291 LINE",
"577 332 LINE",
"34 332 LINE",
"34 306 LINE SMOOTH",
"34 134 OFFCURVE",
"119 -10 OFFCURVE",
"321 -10 CURVE SMOOTH"
);
}
);
width = 678;
}
);
note = uni018F;
unicode = 018F;
},
{
glyphname = T;
lastChange = "2015-10-02 09:32:27 +0000";
layers = (
{
layerId = "F0EF4016-32DD-4ABE-928D-BF0CB1E4FAE8";
name = Light;
paths = (
{
closed = 1;
nodes = (
"441 0 LINE",
"441 22 LINE",
"413 22 LINE SMOOTH",
"374 22 OFFCURVE",
"354 32 OFFCURVE",
"354 57 CURVE SMOOTH",
"354 665 LINE",
"495 665 LINE SMOOTH",
"556 665 OFFCURVE",
"565 561 OFFCURVE",
"567 521 CURVE",
"589 521 LINE",
"589 700 LINE",
"42 700 LINE",
"42 521 LINE",
"64 521 LINE",
"66 561 OFFCURVE",
"75 665 OFFCURVE",
"136 665 CURVE SMOOTH",
"278 665 LINE",
"278 57 LINE SMOOTH",
"278 32 OFFCURVE",
"257 22 OFFCURVE",
"218 22 CURVE SMOOTH",
"190 22 LINE",
"190 0 LINE"
);
}
);
width = 631;
}
);
leftKerningGroup = T;
note = T;
rightKerningGroup = T;
unicode = 0054;
},
{
glyphname = Tbar;
lastChange = "2015-10-02 09:32:29 +0000";
layers = (
{
layerId = "F0EF4016-32DD-4ABE-928D-BF0CB1E4FAE8";
name = Light;
paths = (
{
closed = 1;
nodes = (
"441 0 LINE",
"441 22 LINE",
"413 22 LINE SMOOTH",
"374 22 OFFCURVE",
"354 32 OFFCURVE",
"354 57 CURVE SMOOTH",
"354 665 LINE",
"495 665 LINE SMOOTH",
"556 665 OFFCURVE",
"565 561 OFFCURVE",
"567 521 CURVE",
"589 521 LINE",
"589 700 LINE",
"42 700 LINE",
"42 521 LINE",
"64 521 LINE",
"66 561 OFFCURVE",
"75 665 OFFCURVE",
"136 665 CURVE SMOOTH",
"278 665 LINE",
"278 57 LINE SMOOTH",
"278 32 OFFCURVE",
"257 22 OFFCURVE",
"218 22 CURVE SMOOTH",
"190 22 LINE",
"190 0 LINE"
);
},
{
closed = 1;
nodes = (
"501 328 LINE",
"501 366 LINE",
"132 366 LINE",
"132 328 LINE"
);
}
);
width = 631;
}
);
leftKerningGroup = T;
note = Tbar;
rightKerningGroup = T;
unicode = 0166;
},
{
glyphname = Tcaron;
lastChange = "2015-10-02 09:32:28 +0000";
layers = (
{
layerId = "F0EF4016-32DD-4ABE-928D-BF0CB1E4FAE8";
name = Light;
paths = (
{
closed = 1;
nodes = (
"441 0 LINE",
"441 22 LINE",
"413 22 LINE SMOOTH",
"374 22 OFFCURVE",
"354 32 OFFCURVE",
"354 57 CURVE SMOOTH",
"354 665 LINE",
"495 665 LINE SMOOTH",
"556 665 OFFCURVE",
"565 561 OFFCURVE",
"567 521 CURVE",
"589 521 LINE",
"589 700 LINE",
"42 700 LINE",
"42 521 LINE",
"64 521 LINE",
"66 561 OFFCURVE",
"75 665 OFFCURVE",
"136 665 CURVE SMOOTH",
"278 665 LINE",
"278 57 LINE SMOOTH",
"278 32 OFFCURVE",
"257 22 OFFCURVE",
"218 22 CURVE SMOOTH",
"190 22 LINE",
"190 0 LINE"
);
},
{
closed = 1;
nodes = (
"337 784 LINE",
"454 902 LINE",
"436 921 LINE",
"335 839 LINE",
"328 834 OFFCURVE",
"321 830 OFFCURVE",
"316 830 CURVE SMOOTH",
"311 830 OFFCURVE",
"305 832 OFFCURVE",
"296 839 CURVE SMOOTH",
"195 921 LINE",
"178 902 LINE",
"294 784 LINE"
);
}
);
width = 631;
}
);
leftKerningGroup = T;
note = Tcaron;
rightKerningGroup = T;
unicode = 0164;
},
{
glyphname = Tcedilla;
lastChange = "2015-10-02 09:32:29 +0000";
layers = (
{
layerId = "F0EF4016-32DD-4ABE-928D-BF0CB1E4FAE8";
name = Light;
paths = (
{
closed = 1;
nodes = (
"441 0 LINE",
"441 22 LINE",
"413 22 LINE SMOOTH",
"374 22 OFFCURVE",
"354 32 OFFCURVE",
"354 57 CURVE SMOOTH",
"354 665 LINE",
"495 665 LINE SMOOTH",
"556 665 OFFCURVE",
"565 561 OFFCURVE",
"567 521 CURVE",
"589 521 LINE",
"589 700 LINE",
"42 700 LINE",
"42 521 LINE",
"64 521 LINE",
"66 561 OFFCURVE",
"75 665 OFFCURVE",
"136 665 CURVE SMOOTH",
"278 665 LINE",
"278 57 LINE SMOOTH",
"278 32 OFFCURVE",
"257 22 OFFCURVE",
"218 22 CURVE SMOOTH",
"190 22 LINE",
"190 0 LINE"
);
},
{
closed = 1;
nodes = (
"345 -205 OFFCURVE",
"402 -182 OFFCURVE",
"402 -123 CURVE SMOOTH",
"402 -70 OFFCURVE",
"348 -59 OFFCURVE",
"303 -59 CURVE",
"337 9 LINE",
"299 9 LINE",
"257 -68 LINE",
"273 -88 LINE",
"299 -88 OFFCURVE",
"350 -88 OFFCURVE",
"350 -124 CURVE SMOOTH",
"350 -162 OFFCURVE",
"316 -175 OFFCURVE",
"273 -175 CURVE SMOOTH",
"261 -175 OFFCURVE",
"244 -175 OFFCURVE",
"233 -173 CURVE",
"226 -199 LINE",
"241 -203 OFFCURVE",
"255 -205 OFFCURVE",
"272 -205 CURVE SMOOTH"
);
}
);
width = 631;
}
);
leftKerningGroup = T;
note = Tcedilla;
rightKerningGroup = T;
unicode = 0162;
},
{
glyphname = Tcommaaccent;
lastChange = "2015-10-02 09:32:29 +0000";
layers = (
{
layerId = "F0EF4016-32DD-4ABE-928D-BF0CB1E4FAE8";
name = Light;
paths = (
{
closed = 1;
nodes = (
"441 0 LINE",
"441 22 LINE",
"413 22 LINE SMOOTH",
"374 22 OFFCURVE",
"354 32 OFFCURVE",
"354 57 CURVE SMOOTH",
"354 665 LINE",
"495 665 LINE SMOOTH",
"556 665 OFFCURVE",
"565 561 OFFCURVE",
"567 521 CURVE",
"589 521 LINE",
"589 700 LINE",
"42 700 LINE",
"42 521 LINE",
"64 521 LINE",
"66 561 OFFCURVE",
"75 665 OFFCURVE",
"136 665 CURVE SMOOTH",
"278 665 LINE",
"278 57 LINE SMOOTH",
"278 32 OFFCURVE",
"257 22 OFFCURVE",
"218 22 CURVE SMOOTH",
"190 22 LINE",
"190 0 LINE"
);
},
{
closed = 1;
nodes = (
"313 -237 OFFCURVE",
"349 -182 OFFCURVE",
"349 -124 CURVE SMOOTH",
"349 -80 OFFCURVE",
"328 -65 OFFCURVE",
"304 -65 CURVE SMOOTH",
"279 -65 OFFCURVE",
"265 -82 OFFCURVE",
"265 -104 CURVE SMOOTH",
"265 -135 OFFCURVE",
"297 -140 OFFCURVE",
"297 -173 CURVE SMOOTH",
"297 -207 OFFCURVE",
"271 -238 OFFCURVE",
"246 -262 CURVE",
"260 -277 LINE"
);
}
);
width = 631;
}
);
leftKerningGroup = T;
note = Tcommaaccent;
rightKerningGroup = T;
unicode = 021A;
},
